{
.appVersion = "3343";
.formatVersion = 3;
DisplayStrings = (
"روس ٮوٮا ٮورما ٮراح ٮوما كوما ٮمروار /twodotshorizontalbelow-ar",
"}ا/heh-ar.init و وهمىى وهم وحم وصم
وهحصما",
"ءا/alef-ar.fina ٮ/behDotless-ar.fina/behDotless-ar.medi/behDotless-ar.init ح/hah-ar.fina/hah-ar.medi/hah-ar.init د/dal-ar.fina ر/reh-ar.fina س/seen-ar.fina/seen-ar.medi/seen-ar.init ں/_part.sadcurve ص/sad-ar.fina/sad-ar.medi/sad-ar.init ط/tah-ar.fina/tah-ar.medi/tah-ar.init ع/ain-ar.fina/ain-ar.medi/ain-ar.init ڡ/fehDotless-ar.fina/fehDotless-ar.medi/fehDotless-ar.init ٯ/qafDotless-ar.fina ك/kaf-ar.fina/kaf-ar.medi/kaf-ar.init ل/lam-ar.fina/lam-ar.medi/lam-ar.init م/meem-ar.fina/meem-ar.medi/meem-ar.init ں/noonghunna-ar.fina ه/heh-ar.fina/heh-ar.medi/heh-ar.init و/waw-ar.fina ىى/alefMaksura-ar.fina ـ/lam_alef-ar/lam_alef-ar.fina/dotabove-ar/dotbelow-ar/dotcenter-ar/twodotshorizontalabove-ar/twodotshorizontalbelow-ar/threedotsupabove-ar ٕٔٓ",
"وهحصما?",
"/behDotless-ar.fina/behDotless-ar.medi/dal-ar.fina/seen-ar.fina/seen-ar.medi/seen-ar.init/sad-ar.fina/sad-ar.medi/tah-ar.fina/tah-ar.medi/fehDotless-ar.fina/fehDotless-ar.medi/kaf-ar.fina/lam-ar.medi/heh-ar.medi/lam_alef-ar.fina",
"كهر،و؟كط'\"كس لارهال:",
"كلما كاس٠١٢٣٤٥٦٧٨٩
كلما كاس٠١٢٣٤٥٦٧٨٩",
"اكواسم اطىى 
EFCQGOJUHILTBSX
ANMVWDYZFPRK",
"AcuminLace
اكملها مرور",
"ٯلںى",
"/meem-ar.init   /fehDotless-ar.init ددٮ/meem-ar.medi ه",
"ٯ/qafDotless-ar.fina",
"ABCDEFGHIJKLMNOPQRSTUVWXYZ
abcdefghijlmnopqrstuvwxyz

wave, space, gaze, argue, zero, aeos
gravity, yes, sync, buzz, effect
game, rage, bright, grow, crisp
Ga, Re, Za, Gy, Ye",
"هوره المحص/heh-ar.fina  سم",
aes,
"/behDotless-ar.fina",
"ـ"
);
axes = (
{
name = Weight;
tag = wght;
},
{
name = Width;
tag = wdth;
}
);
customParameters = (
{
name = "Enforce Compatibility Check";
value = 1;
},
{
name = "Update Features";
value = 1;
},
{
name = fsType;
value = (
);
},
{
name = "Variable Font Origin";
value = m01;
},
{
name = "Use Typo Metrics";
value = 1;
},
{
name = "Use Line Breaks";
value = 1;
}

glyphs = (
{
glyphname = A;
kernLeft = A;
kernRight = A;
lastChange = "2025-04-20 12:44:52 +0000";
layers = (
{
layerId = m01;
shapes = (
{
attr = {
strokePos = "0";
strokeWidth = 30;
};
closed = 0;
nodes = (
(80,0,l),
(80,450,ls),
(80,573,o),
(147,640,o),
(270,640,cs),
(430,640,ls),
(553,640,o),
(620,573,o),
(620,450,cs),
(620,0,l)
);
},
{
attr = {
strokeWidth = 30;
};
closed = 0;
nodes = (
(617,274,l),
(82,274,l)
);
}
);
width = 700;
},
{
layerId = "410C308F-557C-4D4B-8D78-DF4F3F2F205E";
shapes = (
{
attr = {
strokeHeight = 160;
strokePos = 0;
strokeWidth = 170;
};
closed = 0;
nodes = (
(70,0,l),
(70,450,ls),
(70,573,o),
(137,640,o),
(260,640,cs),
(420,640,ls),
(543,640,o),
(610,573,o),
(610,450,cs),
(610,0,l)
);
},
{
attr = {
strokeHeight = 160;
strokeWidth = 170;
};
closed = 0;
nodes = (
(607,275,l),
(72,275,l)
);
}
);
width = 680;
},
{
layerId = "C375229C-5AB5-4F42-B4C5-B05E6279C8CD";
shapes = (
{
attr = {
strokeHeight = 160;
strokePos = 0;
strokeWidth = 170;
};
closed = 0;
nodes = (
(70,0,l),
(70,450,ls),
(70,573,o),
(137,640,o),
(260,640,cs),
(520,640,ls),
(643,640,o),
(710,573,o),
(710,450,cs),
(710,0,l)
);
},
{
attr = {
strokeHeight = 160;
strokeWidth = 170;
};
closed = 0;
nodes = (
(707,275,l),
(72,275,l)
);
}
);
width = 780;
},
{
layerId = "3EFBB2FF-E525-4F07-A4DB-42752D5683EA";
shapes = (
{
attr = {
strokePos = "0";
strokeWidth = 30;
};
closed = 0;
nodes = (
(80,0,l),
(80,450,ls),
(80,573,o),
(147,640,o),
(270,640,cs),
(530,640,ls),
(653,640,o),
(720,573,o),
(720,450,cs),
(720,0,l)
);
},
{
attr = {
strokeWidth = 30;
};
closed = 0;
nodes = (
(717,274,l),
(82,274,l)
);
}
);
width = 800;
}
);
metricLeft = H;
metricRight = H;
unicode = 65;
},
{
glyphname = B;
kernLeft = H;
kernRight = B;
lastChange = "2025-04-24 18:43:22 +0000";
layers = (
{
layerId = m01;
shapes = (
{
attr = {
strokeHeight = 30;
strokePos = "1";
strokeWidth = 30;
};
closed = 0;
nodes = (
(400,311,ls),
(495,311,o),
(570,381,o),
(570,469,cs),
(570,482,ls),
(570,570,o),
(495,640,o),
(400,640,cs),
(80,640,l),
(80,0,l)
);
},
{
attr = {
strokeHeight = 30;
strokePos = "1";
strokeWidth = 30;
};
closed = 0;
nodes = (
(86,0,l),
(430,0,ls),
(525,0,o),
(600,70,o),
(600,158,cs),
(600,183,ls),
(600,271,o),
(525,341,o),
(430,341,cs),
(86,341,l)
);
}
);
width = 670;
},
{
layerId = "410C308F-557C-4D4B-8D78-DF4F3F2F205E";
shapes = (
{
attr = {
strokeHeight = 160;
strokePos = "1";
strokeWidth = 170;
};
closed = 0;
nodes = (
(400,239,ls),
(506,239,o),
(590,323,o),
(590,429,cs),
(590,450,ls),
(590,556,o),
(506,640,o),
(400,640,cs),
(70,640,l),
(70,0,l)
);
},
{
attr = {
strokeHeight = 160;
strokePos = "1";
strokeWidth = 170;
};
closed = 0;
nodes = (
(76,0,l),
(430,0,ls),
(536,0,o),
(620,84,o),
(620,190,cs),
(620,209,ls),
(620,315,o),
(536,399,o),
(430,399,cs),
(76,399,l)
);
}
);
width = 660;
},
{
layerId = "C375229C-5AB5-4F42-B4C5-B05E6279C8CD";
shapes = (
{
attr = {
strokeHeight = 160;
strokePos = "1";
strokeWidth = 170;
};
closed = 0;
nodes = (
(500,245,ls),
(606,245,o),
(690,329,o),
(690,435,cs),
(690,450,ls),
(690,556,o),
(606,640,o),
(500,640,cs),
(70,640,l),
(70,0,l)
);
},
{
attr = {
strokeHeight = 160;
strokePos = "1";
strokeWidth = 170;
};
closed = 0;
nodes = (
(76,0,l),
(530,0,ls),
(636,0,o),
(720,84,o),
(720,190,cs),
(720,215,ls),
(720,321,o),
(636,405,o),
(530,405,cs),
(76,405,l)
);
}
);
width = 760;
},
{
layerId = "3EFBB2FF-E525-4F07-A4DB-42752D5683EA";
shapes = (
{
attr = {
strokeHeight = 30;
strokePos = "1";
strokeWidth = 30;
};
closed = 0;
nodes = (
(530,311,ls),
(625,311,o),
(700,381,o),
(700,469,cs),
(700,482,ls),
(700,570,o),
(625,640,o),
(530,640,cs),
(80,640,l),
(80,0,l)
);
},
{
attr = {
strokeHeight = 30;
strokePos = "1";
strokeWidth = 30;
};
closed = 0;
nodes = (
(86,0,l),
(560,0,ls),
(655,0,o),
(730,70,o),
(730,158,cs),
(730,183,ls),
(730,271,o),
(655,341,o),
(560,341,cs),
(86,341,l)
);
}
);
width = 800;
}
);
metricLeft = H;
metricRight = O;
unicode = 66;
},
{
glyphname = C;
kernLeft = O;
kernRight = C;
lastChange = "2025-04-20 12:45:09 +0000";
layers = (
{
layerId = m01;
shapes = (
{
attr = {
identifier = ID0x3050a7720;
strokeHeight = 30;
strokePos = "1";
strokeWidth = 30;
};
closed = 0;
nodes = (
(521,640,l),
(260,640,l),
(154,640,o),
(70,556,o),
(70,450,cs),
(70,190,ls),
(70,84,o),
(154,0,o),
(260,0,c),
(521,0,l)
);
}
);
width = 591;
},
{
layerId = "410C308F-557C-4D4B-8D78-DF4F3F2F205E";
shapes = (
{
attr = {
identifier = ID0x3050a7720;
strokeHeight = 160;
strokePos = "1";
strokeWidth = 170;
};
closed = 0;
nodes = (
(491,640,l),
(230,640,l),
(124,640,o),
(40,556,o),
(40,450,cs),
(40,190,ls),
(40,84,o),
(124,0,o),
(230,0,c),
(491,0,l)
);
}
);
width = 521;
},
{
associatedMasterId = "410C308F-557C-4D4B-8D78-DF4F3F2F205E";
layerId = "CED699F8-50BA-47E4-B9B8-EE38D5AD10D4";
name = "10 Apr 25 at 18:24";
shapes = (
{
attr = {
identifier = ID0x3050a7720;
strokeHeight = 165;
strokePos = 1;
strokeWidth = 170;
};
closed = 0;
nodes = (
(751,385,l),
(751,450,ls),
(751,556,o),
(667,640,o),
(561,640,cs),
(220,640,ls),
(114,640,o),
(30,556,o),
(30,450,cs),
(30,190,ls),
(30,84,o),
(114,0,o),
(220,0,cs),
(561,0,ls),
(667,0,o),
(751,84,o),
(751,190,cs),
(751,255,l)
);
}
);
width = 781;
},
{
layerId = "C375229C-5AB5-4F42-B4C5-B05E6279C8CD";
shapes = (
{
attr = {
identifier = ID0x3050a7720;
strokeHeight = 160;
strokePos = "1";
strokeWidth = 170;
};
closed = 0;
nodes = (
(691,640,l),
(230,640,l),
(124,640,o),
(40,556,o),
(40,450,cs),
(40,190,ls),
(40,84,o),
(124,0,o),
(230,0,c),
(691,0,l)
);
}
);
width = 721;
},
{
associatedMasterId = "C375229C-5AB5-4F42-B4C5-B05E6279C8CD";
layerId = "FA7F0EF2-F5DC-4C41-A87C-95CFB37B9DD9";
name = "10 Apr 25 at 18:24";
shapes = (
{
attr = {
identifier = ID0x3050a7720;
strokeHeight = 165;
strokePos = 1;
strokeWidth = 170;
};
closed = 0;
nodes = (
(751,385,l),
(751,450,ls),
(751,556,o),
(667,640,o),
(561,640,cs),
(220,640,ls),
(114,640,o),
(30,556,o),
(30,450,cs),
(30,190,ls),
(30,84,o),
(114,0,o),
(220,0,cs),
(561,0,ls),
(667,0,o),
(751,84,o),
(751,190,cs),
(751,255,l)
);
}
);
width = 781;
},
{
layerId = "3EFBB2FF-E525-4F07-A4DB-42752D5683EA";
shapes = (
{
attr = {
identifier = ID0x3050a7720;
strokeHeight = 30;
strokePos = "1";
strokeWidth = 30;
};
closed = 0;
nodes = (
(721,640,l),
(260,640,l),
(154,640,o),
(70,556,o),
(70,450,cs),
(70,190,ls),
(70,84,o),
(154,0,o),
(260,0,c),
(721,0,l)
);
}
);
width = 791;
}
);
metricLeft = O;
unicode = 67;
},
{
glyphname = D;
kernLeft = H;
kernRight = O;
lastChange = "2025-04-25 12:58:10 +0000";
layers = (
{
layerId = m01;
shapes = (
{
attr = {
strokeHeight = 30;
strokePos = "1";
strokeWidth = 30;
};
closed = 1;
nodes = (
(410,0,ls),
(516,0,o),
(600,84,o),
(600,190,cs),
(600,450,ls),
(600,556,o),
(516,640,o),
(410,640,cs),
(80,640,l),
(80,0,l)
);
}
);
width = 670;
},
{
layerId = "410C308F-557C-4D4B-8D78-DF4F3F2F205E";
shapes = (
{
attr = {
strokeHeight = 160;
strokePos = 1;
strokeWidth = 170;
};
closed = 1;
nodes = (
(430,0,ls),
(536,0,o),
(620,84,o),
(620,190,cs),
(620,450,ls),
(620,556,o),
(536,640,o),
(430,640,cs),
(70,640,l),
(70,0,l)
);
}
);
width = 660;
},
{
layerId = "C375229C-5AB5-4F42-B4C5-B05E6279C8CD";
shapes = (
{
attr = {
strokeHeight = 160;
strokePos = 1;
strokeWidth = 170;
};
closed = 1;
nodes = (
(530,0,ls),
(636,0,o),
(720,84,o),
(720,190,cs),
(720,450,ls),
(720,556,o),
(636,640,o),
(530,640,cs),
(70,640,l),
(70,0,l)
);
}
);
width = 760;
},
{
layerId = "3EFBB2FF-E525-4F07-A4DB-42752D5683EA";
shapes = (
{
attr = {
strokeHeight = 30;
strokePos = "1";
strokeWidth = 30;
};
closed = 1;
nodes = (
(540,0,ls),
(646,0,o),
(730,84,o),
(730,190,cs),
(730,450,ls),
(730,556,o),
(646,640,o),
(540,640,cs),
(80,640,l),
(80,0,l)
);
}
);
width = 800;
}
);
metricLeft = H;
metricRight = O;
unicode = 68;
},
{
glyphname = E;
kernLeft = H;
kernRight = E;
lastChange = "2025-04-21 10:50:53 +0000";
layers = (
{
layerId = m01;
shapes = (
{
attr = {
strokeHeight = 30;
strokePos = 1;
strokeWidth = 30;
};
closed = 0;
nodes = (
(535,640,l),
(80,640,l),
(80,0,l),
(535,0,l)
);
},
{
attr = {
strokeWidth = 30;
};
closed = 0;
nodes = (
(90,320,l),
(457,320,l)
);
}
);
width = 685;
},
{
layerId = "410C308F-557C-4D4B-8D78-DF4F3F2F205E";
shapes = (
{
attr = {
strokeHeight = 160;
strokePos = 1;
strokeWidth = 170;
};
closed = 0;
nodes = (
(525,640,l),
(70,640,l),
(70,0,l),
(525,0,l)
);
},
{
attr = {
strokeHeight = 160;
strokeWidth = 165;
};
closed = 0;
nodes = (
(80,320,l),
(447,320,l)
);
}
);
width = 565;
},
{
layerId = "C375229C-5AB5-4F42-B4C5-B05E6279C8CD";
shapes = (
{
attr = {
strokeHeight = 160;
strokePos = 1;
strokeWidth = 170;
};
closed = 0;
nodes = (
(625,640,l),
(70,640,l),
(70,0,l),
(625,0,l)
);
},
{
attr = {
strokeHeight = 160;
strokeWidth = 165;
};
closed = 0;
nodes = (
(80,320,l),
(547,320,l)
);
}
);
width = 665;
},
{
layerId = "3EFBB2FF-E525-4F07-A4DB-42752D5683EA";
shapes = (
{
attr = {
strokeHeight = 30;
strokePos = 1;
strokeWidth = 30;
};
closed = 0;
nodes = (
(635,640,l),
(80,640,l),
(80,0,l),
(635,0,l)
);
},
{
attr = {
strokeWidth = 30;
};
closed = 0;
nodes = (
(90,320,l),
(557,320,l)
);
}
);
width = 685;
}
);
metricLeft = H;
unicode = 69;
},
{
glyphname = F;
kernLeft = H;
kernRight = F;
lastChange = "2025-04-21 10:50:57 +0000";
layers = (
{
layerId = m01;
shapes = (
{
attr = {
strokeHeight = 30;
strokePos = "1";
strokeWidth = 30;
};
closed = 0;
nodes = (
(535,640,l),
(80,640,l),
(80,0,l)
);
},
{
attr = {
strokeWidth = 30;
};
closed = 0;
nodes = (
(90,290,l),
(457,290,l)
);
}
);
width = 685;
},
{
layerId = "410C308F-557C-4D4B-8D78-DF4F3F2F205E";
shapes = (
{
attr = {
strokeHeight = 160;
strokePos = "1";
strokeWidth = 170;
};
closed = 0;
nodes = (
(525,640,l),
(70,640,l),
(70,0,l)
);
},
{
attr = {
strokeWidth = 160;
};
closed = 0;
nodes = (
(80,290,l),
(447,290,l)
);
}
);
width = 565;
},
{
layerId = "C375229C-5AB5-4F42-B4C5-B05E6279C8CD";
shapes = (
{
attr = {
strokeHeight = 160;
strokePos = "1";
strokeWidth = 170;
};
closed = 0;
nodes = (
(625,640,l),
(70,640,l),
(70,0,l)
);
},
{
attr = {
strokeWidth = 160;
};
closed = 0;
nodes = (
(80,290,l),
(547,290,l)
);
}
);
width = 665;
},
{
layerId = "3EFBB2FF-E525-4F07-A4DB-42752D5683EA";
shapes = (
{
attr = {
strokeHeight = 30;
strokePos = "1";
strokeWidth = 30;
};
closed = 0;
nodes = (
(635,640,l),
(80,640,l),
(80,0,l)
);
},
{
attr = {
strokeWidth = 30;
};
closed = 0;
nodes = (
(90,290,l),
(557,290,l)
);
}
);
width = 685;
}
);
metricLeft = H;
unicode = 70;
},
{
glyphname = G;
kernLeft = O;
kernRight = G;
lastChange = "2025-04-20 12:32:34 +0000";
layers = (
{
layerId = m01;
shapes = (
{
attr = {
identifier = ID0x3050a7720;
strokeHeight = 30;
strokePos = "1";
strokeWidth = 30;
};
closed = 0;
nodes = (
(562,640,l),
(260,640,ls),
(154,640,o),
(70,556,o),
(70,450,cs),
(70,190,ls),
(70,84,o),
(154,0,o),
(260,0,cs),
(591,0,l),
(591,328,l),
(368,328,l)
);
}
);
width = 671;
},
{
layerId = "410C308F-557C-4D4B-8D78-DF4F3F2F205E";
shapes = (
{
attr = {
identifier = ID0x3050a7720;
strokeHeight = 160;
strokePos = "1";
strokeWidth = 170;
};
closed = 0;
nodes = (
(532,640,l),
(230,640,ls),
(124,640,o),
(40,556,o),
(40,450,cs),
(40,190,ls),
(40,84,o),
(124,0,o),
(230,0,cs),
(561,0,l),
(561,394,l),
(318,394,l)
);
}
);
width = 631;
},
{
layerId = "C375229C-5AB5-4F42-B4C5-B05E6279C8CD";
shapes = (
{
attr = {
identifier = ID0x3050a7720;
strokeHeight = 160;
strokePos = "1";
strokeWidth = 170;
};
closed = 0;
nodes = (
(722,640,l),
(230,640,ls),
(124,640,o),
(40,556,o),
(40,450,cs),
(40,190,ls),
(40,84,o),
(124,0,o),
(230,0,cs),
(761,0,l),
(761,394,l),
(338,394,l)
);
}
);
width = 831;
},
{
layerId = "3EFBB2FF-E525-4F07-A4DB-42752D5683EA";
shapes = (
{
attr = {
identifier = ID0x3050a7720;
strokeHeight = 30;
strokePos = "1";
strokeWidth = 30;
};
closed = 0;
nodes = (
(752,640,l),
(260,640,ls),
(154,640,o),
(70,556,o),
(70,450,cs),
(70,190,ls),
(70,84,o),
(154,0,o),
(260,0,cs),
(791,0,l),
(791,328,l),
(368,328,l)
);
}
);
width = 871;
}
);
metricLeft = O;
metricRight = H;
unicode = 71;
},
{
color = 3;
glyphname = H;
kernLeft = H;
kernRight = H;
lastChange = "2025-04-24 18:37:23 +0000";
layers = (
{
layerId = m01;
shapes = (
{
attr = {
strokePos = 1;
strokeWidth = 30;
};
closed = 0;
nodes = (
(80,640,l),
(80,0,l)
);
},
{
attr = {
strokePos = 0;
strokeWidth = 30;
};
closed = 0;
nodes = (
(530,640,l),
(530,0,l)
);
},
{
attr = {
strokeWidth = 30;
};
closed = 0;
nodes = (
(90,306,l),
(520,306,l)
);
}
);
width = 610;
},
{
layerId = "410C308F-557C-4D4B-8D78-DF4F3F2F205E";
shapes = (
{
attr = {
strokePos = 1;
strokeWidth = 170;
};
closed = 0;
nodes = (
(70,640,l),
(70,0,l)
);
},
{
attr = {
strokePos = 0;
strokeWidth = 170;
};
closed = 0;
nodes = (
(620,640,l),
(620,0,l)
);
},
{
attr = {
strokeWidth = 160;
};
closed = 0;
nodes = (
(80,306,l),
(610,306,l)
);
}
);
width = 690;
},
{
layerId = "C375229C-5AB5-4F42-B4C5-B05E6279C8CD";
shapes = (
{
attr = {
strokePos = 1;
strokeWidth = 170;
};
closed = 0;
nodes = (
(70,640,l),
(70,0,l)
);
},
{
attr = {
strokePos = 0;
strokeWidth = 170;
};
closed = 0;
nodes = (
(720,640,l),
(720,0,l)
);
},
{
attr = {
strokeWidth = 160;
};
closed = 0;
nodes = (
(80,306,l),
(710,306,l)
);
}
);
width = 790;
},
{
layerId = "3EFBB2FF-E525-4F07-A4DB-42752D5683EA";
shapes = (
{
attr = {
strokePos = 1;
strokeWidth = 30;
};
closed = 0;
nodes = (
(80,640,l),
(80,0,l)
);
},
{
attr = {
strokePos = 0;
strokeWidth = 30;
};
closed = 0;
nodes = (
(730,640,l),
(730,0,l)
);
},
{
attr = {
strokeWidth = 30;
};
closed = 0;
nodes = (
(90,306,l),
(720,306,l)
);
}
);
width = 810;
}
);
metricRight = "=|";
unicode = 72;
},
{
glyphname = I;
kernLeft = H;
kernRight = H;
lastChange = "2025-04-12 16:15:33 +0000";
layers = (
{
layerId = m01;
shapes = (
{
attr = {
strokeWidth = 30;
};
closed = 0;
nodes = (
(95,640,l),
(95,0,l)
);
}
);
width = 190;
},
{
layerId = "410C308F-557C-4D4B-8D78-DF4F3F2F205E";
shapes = (
{
attr = {
strokeWidth = 170;
};
closed = 0;
nodes = (
(155,640,l),
(155,0,l)
);
}
);
width = 310;
},
{
layerId = "C375229C-5AB5-4F42-B4C5-B05E6279C8CD";
shapes = (
{
attr = {
strokeWidth = 170;
};
closed = 0;
nodes = (
(155,640,l),
(155,0,l)
);
}
);
width = 310;
},
{
layerId = "3EFBB2FF-E525-4F07-A4DB-42752D5683EA";
shapes = (
{
attr = {
strokeWidth = 30;
};
closed = 0;
nodes = (
(95,640,l),
(95,0,l)
);
}
);
width = 190;
}
);
metricLeft = H;
metricRight = H;
unicode = 73;
},
{
glyphname = J;
kernLeft = J;
kernRight = H;
lastChange = "2025-04-21 10:49:22 +0000";
layers = (
{
layerId = m01;
shapes = (
{
attr = {
identifier = ID0x322a633e0;
strokeHeight = 30;
strokePos = "1";
strokeWidth = 30;
};
closed = 0;
nodes = (
(70,286,l),
(70,190,ls),
(70,84,o),
(154,0,o),
(260,0,cs),
(421,0,ls),
(527,0,o),
(611,84,o),
(611,190,cs),
(611,640,ls)
);
}
);
width = 691;
},
{
layerId = "410C308F-557C-4D4B-8D78-DF4F3F2F205E";
shapes = (
{
attr = {
identifier = ID0x322a633e0;
strokeHeight = 160;
strokePos = "1";
strokeWidth = 170;
};
closed = 0;
nodes = (
(25,286,l),
(25,190,ls),
(25,84,o),
(109,0,o),
(215,0,cs),
(406,0,ls),
(512,0,o),
(596,84,o),
(596,190,cs),
(596,640,ls)
);
}
);
width = 666;
},
{
layerId = "C375229C-5AB5-4F42-B4C5-B05E6279C8CD";
shapes = (
{
attr = {
identifier = ID0x322a633e0;
strokeHeight = 160;
strokePos = "1";
strokeWidth = 170;
};
closed = 0;
nodes = (
(25,286,l),
(25,190,ls),
(25,84,o),
(109,0,o),
(215,0,cs),
(506,0,ls),
(612,0,o),
(696,84,o),
(696,190,cs),
(696,640,ls)
);
}
);
width = 766;
},
{
layerId = "3EFBB2FF-E525-4F07-A4DB-42752D5683EA";
shapes = (
{
attr = {
identifier = ID0x322a633e0;
strokeHeight = 30;
strokePos = "1";
strokeWidth = 30;
};
closed = 0;
nodes = (
(40,286,l),
(40,190,ls),
(40,84,o),
(124,0,o),
(230,0,cs),
(521,0,ls),
(627,0,o),
(711,84,o),
(711,190,cs),
(711,640,ls)
);
}
);
width = 791;
}
);
metricRight = H;
unicode = 74;
},
{
glyphname = K;
kernLeft = H;
kernRight = K;
lastChange = "2025-04-22 16:57:21 +0000";
layers = (
{
layerId = m01;
shapes = (
{
attr = {
strokeHeight = 30;
strokePos = "1";
strokeWidth = 30;
};
closed = 0;
nodes = (
(80,640,l),
(80,0,l)
);
},
{
attr = {
lineCapEnd = "4";
lineCapStart = "4";
strokeHeight = 30;
strokeWidth = 30;
};
closed = 0;
nodes = (
(514,640,l),
(316,320,l),
(514,0,l)
);
},
{
attr = {
strokeWidth = 30;
};
closed = 0;
nodes = (
(312,320,l),
(85,320,l)
);
}
);
width = 663;
},
{
layerId = "410C308F-557C-4D4B-8D78-DF4F3F2F205E";
shapes = (
{
attr = {
strokeHeight = 160;
strokePos = "1";
strokeWidth = 170;
};
closed = 0;
nodes = (
(70,640,l),
(70,0,l)
);
},
{
attr = {
lineCapEnd = "4";
lineCapStart = "4";
strokeHeight = 150;
strokeWidth = 150;
};
closed = 0;
nodes = (
(526,640,l),
(316,320,l),
(526,0,l)
);
},
{
attr = {
strokeWidth = 160;
};
closed = 0;
nodes = (
(312,320,l),
(75,320,l)
);
}
);
width = 633;
},
{
layerId = "C375229C-5AB5-4F42-B4C5-B05E6279C8CD";
shapes = (
{
attr = {
strokeHeight = 160;
strokePos = "1";
strokeWidth = 170;
};
closed = 0;
nodes = (
(70,640,l),
(70,0,l)
);
},
{
attr = {
lineCapEnd = "4";
lineCapStart = "4";
strokeHeight = 150;
strokeWidth = 150;
};
closed = 0;
nodes = (
(636,640,l),
(446,320,l),
(636,0,l)
);
},
{
attr = {
strokeWidth = 160;
};
closed = 0;
nodes = (
(442,320,l),
(75,320,l)
);
}
);
width = 733;
},
{
layerId = "3EFBB2FF-E525-4F07-A4DB-42752D5683EA";
shapes = (
{
attr = {
strokeHeight = 30;
strokePos = "1";
strokeWidth = 30;
};
closed = 0;
nodes = (
(80,640,l),
(80,0,l)
);
},
{
attr = {
lineCapEnd = "4";
lineCapStart = "4";
strokeHeight = 30;
strokeWidth = 30;
};
closed = 0;
nodes = (
(696,640,l),
(506,320,l),
(696,0,l)
);
},
{
attr = {
strokeWidth = 30;
};
closed = 0;
nodes = (
(502,320,l),
(85,320,l)
);
}
);
width = 763;
}
);
metricLeft = H;
unicode = 75;
},
{
glyphname = L;
kernLeft = H;
kernRight = L;
lastChange = "2025-04-21 10:50:01 +0000";
layers = (
{
layerId = m01;
shapes = (
{
attr = {
strokeHeight = 30;
strokePos = "1";
strokeWidth = 30;
};
closed = 0;
nodes = (
(80,640,l),
(80,0,l),
(529,0,l)
);
}
);
width = 585;
},
{
layerId = "410C308F-557C-4D4B-8D78-DF4F3F2F205E";
shapes = (
{
attr = {
strokeHeight = 160;
strokePos = "1";
strokeWidth = 170;
};
closed = 0;
nodes = (
(70,640,l),
(70,0,l),
(525,0,l)
);
}
);
width = 555;
},
{
layerId = "C375229C-5AB5-4F42-B4C5-B05E6279C8CD";
shapes = (
{
attr = {
strokeHeight = 160;
strokePos = "1";
strokeWidth = 170;
};
closed = 0;
nodes = (
(70,640,l),
(70,0,l),
(625,0,l)
);
}
);
width = 655;
},
{
layerId = "3EFBB2FF-E525-4F07-A4DB-42752D5683EA";
shapes = (
{
attr = {
strokeHeight = 30;
strokePos = "1";
strokeWidth = 30;
};
closed = 0;
nodes = (
(80,640,l),
(80,0,l),
(635,0,l)
);
}
);
width = 585;
}
);
metricLeft = H;
unicode = 76;
},
{
glyphname = M;
kernLeft = H;
kernRight = H;
lastChange = "2025-04-22 17:02:41 +0000";
layers = (
{
layerId = m01;
shapes = (
{
attr = {
identifier = ID0x303e09a70;
strokeHeight = 30;
strokePos = "1";
strokeWidth = 30;
};
closed = 0;
nodes = (
(88,640,l),
(88,0,l)
);
},
{
attr = {
identifier = ID0x303e09a70;
strokeHeight = 30;
strokePos = "0";
strokeWidth = 30;
};
closed = 0;
nodes = (
(588,640,l),
(588,0,l)
);
},
{
attr = {
identifier = ID0x303e09a70;
lineCapEnd = "4";
lineCapStart = "4";
strokeWidth = 30;
};
closed = 0;
nodes = (
(98,640,l),
(338,272,l),
(578,640,l)
);
}
);
width = 676;
},
{
layerId = "410C308F-557C-4D4B-8D78-DF4F3F2F205E";
shapes = (
{
attr = {
identifier = ID0x303e09a70;
strokePos = "1";
strokeWidth = 170;
};
closed = 0;
nodes = (
(80,640,l),
(80,0,l)
);
},
{
attr = {
identifier = ID0x303e09a70;
strokePos = "0";
strokeWidth = 170;
};
closed = 0;
nodes = (
(680,640,l),
(680,0,l)
);
},
{
attr = {
identifier = ID0x303e09a70;
lineCapEnd = "4";
lineCapStart = "4";
strokeWidth = 160;
};
closed = 0;
nodes = (
(163,640,l),
(380,272,l),
(597,640,l)
);
}
);
width = 760;
},
{
layerId = "C375229C-5AB5-4F42-B4C5-B05E6279C8CD";
shapes = (
{
attr = {
identifier = ID0x303e09a70;
strokePos = "1";
strokeWidth = 170;
};
closed = 0;
nodes = (
(86,640,l),
(86,0,l)
);
},
{
attr = {
identifier = ID0x303e09a70;
strokePos = "0";
strokeWidth = 170;
};
closed = 0;
nodes = (
(786,640,l),
(786,0,l)
);
},
{
attr = {
identifier = ID0x303e09a70;
lineCapEnd = "4";
lineCapStart = "4";
strokeWidth = 160;
};
closed = 0;
nodes = (
(169,640,l),
(436,272,l),
(703,640,l)
);
}
);
width = 872;
},
{
layerId = "3EFBB2FF-E525-4F07-A4DB-42752D5683EA";
shapes = (
{
attr = {
identifier = ID0x303e09a70;
strokeHeight = 30;
strokePos = "1";
strokeWidth = 30;
};
closed = 0;
nodes = (
(90,640,l),
(90,0,l)
);
},
{
attr = {
identifier = ID0x303e09a70;
strokeHeight = 30;
strokePos = "0";
strokeWidth = 30;
};
closed = 0;
nodes = (
(790,640,l),
(790,0,l)
);
},
{
attr = {
identifier = ID0x303e09a70;
lineCapEnd = "4";
lineCapStart = "4";
strokeWidth = 30;
};
closed = 0;
nodes = (
(100,640,l),
(440,272,l),
(780,640,l)
);
}
);
width = 880;
}
);
metricLeft = H;
metricRight = H;
unicode = 77;
},
{
glyphname = N;
kernLeft = H;
kernRight = H;
lastChange = "2025-04-22 17:02:59 +0000";
layers = (
{
layerId = m01;
shapes = (
{
attr = {
identifier = ID0x303e09a70;
strokePos = "1";
strokeWidth = 30;
};
closed = 0;
nodes = (
(88,640,l),
(88,0,l)
);
},
{
attr = {
identifier = ID0x303e09a70;
strokePos = "0";
strokeWidth = 30;
};
closed = 0;
nodes = (
(528,640,l),
(528,0,l)
);
},
{
attr = {
identifier = ID0x303e09a70;
lineCapEnd = "4";
lineCapStart = "4";
strokeWidth = 30;
};
closed = 0;
nodes = (
(98,640,l),
(519,0,l)
);
}
);
width = 617;
},
{
layerId = "410C308F-557C-4D4B-8D78-DF4F3F2F205E";
shapes = (
{
attr = {
identifier = ID0x303e09a70;
strokePos = 1;
strokeWidth = 170;
};
closed = 0;
nodes = (
(97,640,l),
(97,0,l)
);
},
{
attr = {
identifier = ID0x303e09a70;
strokePos = 0;
strokeWidth = 170;
};
closed = 0;
nodes = (
(637,640,l),
(637,0,l)
);
},
{
attr = {
identifier = ID0x303e09a70;
lineCapEnd = 4;
lineCapStart = 4;
strokeWidth = 160;
};
closed = 0;
nodes = (
(165,640,l),
(568,0,l)
);
}
);
width = 733;
},
{
layerId = "C375229C-5AB5-4F42-B4C5-B05E6279C8CD";
shapes = (
{
attr = {
identifier = ID0x303e09a70;
strokePos = 1;
strokeWidth = 170;
};
closed = 0;
nodes = (
(104,640,l),
(104,0,l)
);
},
{
attr = {
identifier = ID0x303e09a70;
strokePos = 0;
strokeWidth = 170;
};
closed = 0;
nodes = (
(744,640,l),
(744,0,l)
);
},
{
attr = {
identifier = ID0x303e09a70;
lineCapEnd = 4;
lineCapStart = 4;
strokeWidth = 160;
};
closed = 0;
nodes = (
(172,640,l),
(675,0,l)
);
}
);
width = 847;
},
{
layerId = "3EFBB2FF-E525-4F07-A4DB-42752D5683EA";
shapes = (
{
attr = {
identifier = ID0x303e09a70;
strokePos = "1";
strokeWidth = 30;
};
closed = 0;
nodes = (
(91,640,l),
(91,0,l)
);
},
{
attr = {
identifier = ID0x303e09a70;
strokePos = "0";
strokeWidth = 30;
};
closed = 0;
nodes = (
(731,640,l),
(731,0,l)
);
},
{
attr = {
identifier = ID0x303e09a70;
lineCapEnd = "4";
lineCapStart = "4";
strokeWidth = 30;
};
closed = 0;
nodes = (
(101,640,l),
(722,0,l)
);
}
);
width = 823;
}
);
metricLeft = H;
metricRight = H;
unicode = 78;
},
{
color = 3;
glyphname = O;
kernLeft = O;
kernRight = O;
lastChange = "2025-04-25 12:58:10 +0000";
layers = (
{
layerId = m01;
shapes = (
{
attr = {
strokeHeight = 30;
strokePos = "1";
strokeWidth = 30;
};
closed = 1;
nodes = (
(401,0,ls),
(507,0,o),
(591,84,o),
(591,190,cs),
(591,450,ls),
(591,556,o),
(507,640,o),
(401,640,cs),
(260,640,ls),
(154,640,o),
(70,556,o),
(70,450,cs),
(70,190,ls),
(70,84,o),
(154,0,o),
(260,0,cs)
);
}
);
width = 661;
},
{
layerId = "410C308F-557C-4D4B-8D78-DF4F3F2F205E";
shapes = (
{
attr = {
strokeHeight = 160;
strokePos = 1;
strokeWidth = 170;
};
closed = 1;
nodes = (
(471,0,ls),
(577,0,o),
(661,84,o),
(661,190,cs),
(661,450,ls),
(661,556,o),
(577,640,o),
(471,640,cs),
(230,640,ls),
(124,640,o),
(40,556,o),
(40,450,cs),
(40,190,ls),
(40,84,o),
(124,0,o),
(230,0,cs)
);
}
);
width = 701;
},
{
layerId = "C375229C-5AB5-4F42-B4C5-B05E6279C8CD";
shapes = (
{
attr = {
strokeHeight = 160;
strokePos = 1;
strokeWidth = 170;
};
closed = 1;
nodes = (
(571,0,ls),
(677,0,o),
(761,84,o),
(761,190,cs),
(761,450,ls),
(761,556,o),
(677,640,o),
(571,640,cs),
(230,640,ls),
(124,640,o),
(40,556,o),
(40,450,cs),
(40,190,ls),
(40,84,o),
(124,0,o),
(230,0,cs)
);
}
);
width = 801;
},
{
layerId = "3EFBB2FF-E525-4F07-A4DB-42752D5683EA";
shapes = (
{
attr = {
strokeHeight = 30;
strokePos = "1";
strokeWidth = 30;
};
closed = 1;
nodes = (
(601,0,ls),
(707,0,o),
(791,84,o),
(791,190,cs),
(791,450,ls),
(791,556,o),
(707,640,o),
(601,640,cs),
(260,640,ls),
(154,640,o),
(70,556,o),
(70,450,cs),
(70,190,ls),
(70,84,o),
(154,0,o),
(260,0,cs)
);
}
);
width = 861;
}
);
unicode = 79;
},
{
glyphname = P;
kernLeft = H;
kernRight = P;
lastChange = "2025-04-21 10:48:31 +0000";
layers = (
{
layerId = m01;
shapes = (
{
attr = {
strokeHeight = 30;
strokePos = "1";
strokeWidth = 29;
};
closed = 0;
nodes = (
(86,235,l),
(340,235,ls),
(446,235,o),
(530,319,o),
(530,425,cs),
(530,450,ls),
(530,556,o),
(446,640,o),
(340,640,cs),
(80,640,l),
(80,0,l)
);
}
);
width = 600;
},
{
layerId = "410C308F-557C-4D4B-8D78-DF4F3F2F205E";
shapes = (
{
attr = {
strokeHeight = 160;
strokePos = "1";
strokeWidth = 170;
};
closed = 0;
nodes = (
(76,195,l),
(430,195,ls),
(536,195,o),
(620,279,o),
(620,385,cs),
(620,450,ls),
(620,556,o),
(536,640,o),
(430,640,cs),
(70,640,l),
(70,0,l)
);
}
);
width = 660;
},
{
layerId = "C375229C-5AB5-4F42-B4C5-B05E6279C8CD";
shapes = (
{
attr = {
strokeHeight = 160;
strokePos = "1";
strokeWidth = 170;
};
closed = 0;
nodes = (
(76,195,l),
(530,195,ls),
(636,195,o),
(720,279,o),
(720,385,cs),
(720,450,ls),
(720,556,o),
(636,640,o),
(530,640,cs),
(70,640,l),
(70,0,l)
);
}
);
width = 760;
},
{
layerId = "3EFBB2FF-E525-4F07-A4DB-42752D5683EA";
shapes = (
{
attr = {
strokeHeight = 30;
strokePos = "1";
strokeWidth = 29;
};
closed = 0;
nodes = (
(86,235,l),
(540,235,ls),
(646,235,o),
(730,319,o),
(730,425,cs),
(730,450,ls),
(730,556,o),
(646,640,o),
(540,640,cs),
(80,640,l),
(80,0,l)
);
}
);
width = 800;
}
);
metricLeft = H;
metricRight = O;
unicode = 80;
},
{
glyphname = Q;
kernLeft = O;
kernRight = O;
lastChange = "2025-04-21 10:48:29 +0000";
layers = (
{
layerId = m01;
shapes = (
{
ref = O;
},
{
attr = {
strokeWidth = 30;
};
closed = 0;
nodes = (
(331,268,l),
(331,-91,l)
);
}
);
width = 661;
},
{
layerId = "410C308F-557C-4D4B-8D78-DF4F3F2F205E";
shapes = (
{
ref = O;
},
{
attr = {
strokeWidth = 160;
};
closed = 0;
nodes = (
(351,268,l),
(351,-91,l)
);
}
);
width = 701;
},
{
layerId = "C375229C-5AB5-4F42-B4C5-B05E6279C8CD";
shapes = (
{
ref = O;
},
{
attr = {
strokeWidth = 160;
};
closed = 0;
nodes = (
(401,268,l),
(401,-91,l)
);
}
);
width = 801;
},
{
layerId = "3EFBB2FF-E525-4F07-A4DB-42752D5683EA";
shapes = (
{
ref = O;
},
{
attr = {
strokeWidth = 30;
};
closed = 0;
nodes = (
(431,268,l),
(431,-91,l)
);
}
);
width = 861;
}
);
metricLeft = O;
metricRight = O;
unicode = 81;
},
{
glyphname = R;
kernLeft = H;
kernRight = R;
lastChange = "2025-04-21 10:48:36 +0000";
layers = (
{
layerId = m01;
shapes = (
{
attr = {
lineCapEnd = "4";
lineCapStart = "4";
strokeWidth = 30;
};
closed = 0;
nodes = (
(349,262,l),
(516,0,l)
);
},
{
ref = P;
}
);
width = 580;
},
{
layerId = "410C308F-557C-4D4B-8D78-DF4F3F2F205E";
shapes = (
{
attr = {
lineCapEnd = 4;
lineCapStart = 4;
strokeWidth = 150;
};
closed = 0;
nodes = (
(346,283,l),
(526,0,l)
);
},
{
ref = P;
}
);
width = 670;
},
{
layerId = "C375229C-5AB5-4F42-B4C5-B05E6279C8CD";
shapes = (
{
attr = {
lineCapEnd = 4;
lineCapStart = 4;
strokeWidth = 150;
};
closed = 0;
nodes = (
(446,283,l),
(626,0,l)
);
},
{
ref = P;
}
);
width = 770;
},
{
layerId = "3EFBB2FF-E525-4F07-A4DB-42752D5683EA";
shapes = (
{
attr = {
lineCapEnd = "4";
lineCapStart = "4";
strokeWidth = 30;
};
closed = 0;
nodes = (
(509,262,l),
(676,0,l)
);
},
{
ref = P;
}
);
width = 780;
}
);
metricLeft = H;
unicode = 82;
},
{
glyphname = S;
kernLeft = S;
kernRight = S;
lastChange = "2025-04-20 12:52:19 +0000";
layers = (
{
layerId = m01;
shapes = (
{
attr = {
identifier = ID0x3050a7720;
strokeHeight = 30;
strokePos = "1";
strokeWidth = 30;
};
closed = 0;
nodes = (
(551,640,l),
(230,640,ls),
(124,640,o),
(40,568,o),
(40,478,cs),
(40,467,ls),
(40,377,o),
(124,305,o),
(230,305,cs),
(315,305,l)
);
},
{
attr = {
identifier = ID0x3050a7720;
strokeHeight = 30;
strokePos = "1";
strokeWidth = 30;
};
closed = 0;
nodes = (
(60,0,l),
(401,0,ls),
(507,0,o),
(591,72,o),
(591,162,cs),
(591,173,ls),
(591,263,o),
(507,335,o),
(401,335,cs),
(315,335,l)
);
}
);
width = 631;
},
{
layerId = "410C308F-557C-4D4B-8D78-DF4F3F2F205E";
shapes = (
{
attr = {
identifier = ID0x3050a7720;
strokeHeight = 160;
strokePos = "1";
strokeWidth = 170;
};
closed = 0;
nodes = (
(541,640,l),
(220,640,ls),
(114,640,o),
(30,556,o),
(30,450,cs),
(30,430,ls),
(30,324,o),
(114,240,o),
(220,240,cs),
(305,240,l)
);
},
{
attr = {
identifier = ID0x3050a7720;
strokeHeight = 160;
strokePos = "1";
strokeWidth = 170;
};
closed = 0;
nodes = (
(50,0,l),
(391,0,ls),
(497,0,o),
(581,84,o),
(581,190,cs),
(581,210,ls),
(581,316,o),
(497,400,o),
(391,400,cs),
(305,400,l)
);
}
);
width = 611;
},
{
layerId = "C375229C-5AB5-4F42-B4C5-B05E6279C8CD";
shapes = (
{
attr = {
identifier = ID0x3050a7720;
strokeHeight = 160;
strokePos = "1";
strokeWidth = 170;
};
closed = 0;
nodes = (
(641,640,l),
(220,640,ls),
(114,640,o),
(30,556,o),
(30,450,cs),
(30,430,ls),
(30,324,o),
(114,240,o),
(220,240,cs),
(355,240,l)
);
},
{
attr = {
identifier = ID0x3050a7720;
strokeHeight = 160;
strokePos = "1";
strokeWidth = 170;
};
closed = 0;
nodes = (
(50,0,l),
(491,0,ls),
(597,0,o),
(681,84,o),
(681,190,cs),
(681,210,ls),
(681,316,o),
(597,400,o),
(491,400,cs),
(355,400,l)
);
}
);
width = 711;
},
{
layerId = "3EFBB2FF-E525-4F07-A4DB-42752D5683EA";
shapes = (
{
attr = {
identifier = ID0x3050a7720;
strokeHeight = 30;
strokePos = "1";
strokeWidth = 30;
};
closed = 0;
nodes = (
(651,640,l),
(230,640,ls),
(124,640,o),
(40,568,o),
(40,478,cs),
(40,467,ls),
(40,377,o),
(124,305,o),
(230,305,cs),
(365,305,l)
);
},
{
attr = {
identifier = ID0x3050a7720;
strokeHeight = 30;
strokePos = "1";
strokeWidth = 30;
};
closed = 0;
nodes = (
(60,0,l),
(501,0,ls),
(607,0,o),
(691,72,o),
(691,162,cs),
(691,173,ls),
(691,263,o),
(607,335,o),
(501,335,cs),
(365,335,l)
);
}
);
width = 731;
}
);
metricRight = "=|";
unicode = 83;
},
{
glyphname = T;
kernLeft = T;
kernRight = T;
lastChange = "2025-04-20 12:55:04 +0000";
layers = (
{
layerId = m01;
shapes = (
{
attr = {
strokeWidth = 30;
};
closed = 0;
nodes = (
(315,640,l),
(315,0,l)
);
},
{
attr = {
strokePos = "0";
strokeWidth = 30;
};
closed = 0;
nodes = (
(55,640,l),
(575,640,l)
);
}
);
width = 630;
},
{
layerId = "410C308F-557C-4D4B-8D78-DF4F3F2F205E";
shapes = (
{
attr = {
strokeWidth = 170;
};
closed = 0;
nodes = (
(315,640,l),
(315,0,l)
);
},
{
attr = {
strokePos = "0";
strokeWidth = 160;
};
closed = 0;
nodes = (
(40,640,l),
(590,640,l)
);
}
);
width = 630;
},
{
layerId = "C375229C-5AB5-4F42-B4C5-B05E6279C8CD";
shapes = (
{
attr = {
strokeWidth = 170;
};
closed = 0;
nodes = (
(365,640,l),
(365,0,l)
);
},
{
attr = {
strokePos = "0";
strokeWidth = 160;
};
closed = 0;
nodes = (
(40,640,l),
(690,640,l)
);
}
);
width = 730;
},
{
layerId = "3EFBB2FF-E525-4F07-A4DB-42752D5683EA";
shapes = (
{
attr = {
strokeWidth = 30;
};
closed = 0;
nodes = (
(365,640,l),
(365,0,l)
);
},
{
attr = {
strokePos = "0";
strokeWidth = 30;
};
closed = 0;
nodes = (
(55,640,l),
(675,640,l)
);
}
);
width = 730;
}
);
metricRight = "=|";
unicode = 84;
},
{
glyphname = U;
kernLeft = H;
kernRight = H;
lastChange = "2025-04-21 10:52:59 +0000";
layers = (
{
layerId = m01;
shapes = (
{
attr = {
identifier = ID0x322a633e0;
strokeHeight = 30;
strokePos = "1";
strokeWidth = 30;
};
closed = 0;
nodes = (
(80,640,l),
(80,190,ls),
(80,84,o),
(164,0,o),
(270,0,cs),
(411,0,ls),
(517,0,o),
(601,84,o),
(601,190,cs),
(601,640,ls)
);
}
);
width = 681;
},
{
layerId = "410C308F-557C-4D4B-8D78-DF4F3F2F205E";
shapes = (
{
attr = {
identifier = ID0x322a633e0;
strokeHeight = 160;
strokePos = 1;
strokeWidth = 170;
};
closed = 0;
nodes = (
(70,640,l),
(70,190,ls),
(70,84,o),
(154,0,o),
(260,0,cs),
(501,0,ls),
(607,0,o),
(691,84,o),
(691,190,cs),
(691,640,ls)
);
}
);
width = 761;
},
{
layerId = "C375229C-5AB5-4F42-B4C5-B05E6279C8CD";
shapes = (
{
attr = {
identifier = ID0x322a633e0;
strokeHeight = 160;
strokePos = 1;
strokeWidth = 170;
};
closed = 0;
nodes = (
(70,640,l),
(70,190,ls),
(70,84,o),
(154,0,o),
(260,0,cs),
(601,0,ls),
(707,0,o),
(791,84,o),
(791,190,cs),
(791,640,ls)
);
}
);
width = 861;
},
{
layerId = "3EFBB2FF-E525-4F07-A4DB-42752D5683EA";
shapes = (
{
attr = {
identifier = ID0x322a633e0;
strokeHeight = 30;
strokePos = "1";
strokeWidth = 30;
};
closed = 0;
nodes = (
(80,640,l),
(80,190,ls),
(80,84,o),
(164,0,o),
(270,0,cs),
(611,0,ls),
(717,0,o),
(801,84,o),
(801,190,cs),
(801,640,ls)
);
}
);
width = 881;
}
);
metricLeft = H;
metricRight = H;
unicode = 85;
},
{
glyphname = V;
kernLeft = V;
kernRight = V;
lastChange = "2025-04-22 17:09:10 +0000";
layers = (
{
layerId = m01;
shapes = (
{
attr = {
identifier = ID0x303e09a70;
lineCapEnd = "4";
lineCapStart = "4";
strokeWidth = 30;
};
closed = 0;
nodes = (
(26,640,l),
(271,15,l),
(295,15,l),
(540,640,l)
);
}
);
width = 566;
},
{
layerId = "410C308F-557C-4D4B-8D78-DF4F3F2F205E";
shapes = (
{
attr = {
identifier = ID0x303e09a70;
lineCapEnd = "4";
lineCapStart = "4";
strokeWidth = 160;
};
closed = 0;
nodes = (
(105,640,l),
(287,80,l),
(397,80,l),
(579,640,l)
);
}
);
width = 684;
},
{
layerId = "C375229C-5AB5-4F42-B4C5-B05E6279C8CD";
shapes = (
{
attr = {
identifier = ID0x303e09a70;
lineCapEnd = "4";
lineCapStart = "4";
strokeWidth = 160;
};
closed = 0;
nodes = (
(89,640,l),
(351,80,l),
(461,80,l),
(723,640,l)
);
}
);
width = 812;
},
{
layerId = "3EFBB2FF-E525-4F07-A4DB-42752D5683EA";
shapes = (
{
attr = {
identifier = ID0x303e09a70;
lineCapEnd = "4";
lineCapStart = "4";
strokeWidth = 30;
};
closed = 0;
nodes = (
(27,640,l),
(372,15,l),
(396,15,l),
(741,640,l)
);
}
);
width = 768;
}
);
metricRight = "=|";
unicode = 86;
},
{
glyphname = W;
kernLeft = W;
kernRight = W;
lastChange = "2025-04-22 17:07:46 +0000";
layers = (
{
layerId = m01;
shapes = (
{
attr = {
identifier = ID0x303e09a70;
lineCapEnd = "4";
lineCapStart = "4";
strokeWidth = 30;
};
closed = 0;
nodes = (
(26,640,l),
(175,15,l),
(199,15,l),
(339,640,l)
);
},
{
attr = {
identifier = ID0x303e09a70;
lineCapEnd = "4";
lineCapStart = "4";
strokeWidth = 30;
};
closed = 0;
nodes = (
(331,640,l),
(470,15,l),
(495,15,l),
(643,640,l)
);
}
);
width = 669;
},
{
layerId = "410C308F-557C-4D4B-8D78-DF4F3F2F205E";
shapes = (
{
attr = {
identifier = ID0x303e09a70;
lineCapEnd = "4";
lineCapStart = "4";
strokeWidth = 160;
};
closed = 0;
nodes = (
(134,640,l),
(250,80,l),
(299,80,l),
(416,640,l)
);
},
{
attr = {
identifier = ID0x303e09a70;
lineCapEnd = "4";
lineCapStart = "4";
strokeWidth = 160;
};
closed = 0;
nodes = (
(409,640,l),
(525,80,l),
(574,80,l),
(690,640,l)
);
}
);
width = 824;
},
{
layerId = "C375229C-5AB5-4F42-B4C5-B05E6279C8CD";
shapes = (
{
attr = {
identifier = ID0x303e09a70;
lineCapEnd = "4";
lineCapStart = "4";
strokeWidth = 160;
};
closed = 0;
nodes = (
(134,640,l),
(299,80,l),
(368,80,l),
(533,640,l)
);
},
{
attr = {
identifier = ID0x303e09a70;
lineCapEnd = "4";
lineCapStart = "4";
strokeWidth = 160;
};
closed = 0;
nodes = (
(523,640,l),
(688,80,l),
(758,80,l),
(922,640,l)
);
}
);
width = 1056;
},
{
layerId = "3EFBB2FF-E525-4F07-A4DB-42752D5683EA";
shapes = (
{
attr = {
identifier = ID0x303e09a70;
lineCapEnd = "4";
lineCapStart = "4";
strokeWidth = 30;
};
closed = 0;
nodes = (
(26,640,l),
(243,15,l),
(261,15,l),
(479,640,l)
);
},
{
attr = {
identifier = ID0x303e09a70;
lineCapEnd = "4";
lineCapStart = "4";
strokeWidth = 30;
};
closed = 0;
nodes = (
(467,640,l),
(685,15,l),
(704,15,l),
(920,640,l)
);
}
);
width = 946;
}
);
metricRight = "=|";
unicode = 87;
},
{
glyphname = X;
kernLeft = X;
kernRight = X;
lastChange = "2025-04-20 12:54:42 +0000";
layers = (
{
layerId = m01;
shapes = (
{
attr = {
lineCapEnd = "4";
lineCapStart = "4";
strokeWidth = 30;
};
closed = 0;
nodes = (
(598,640,l),
(408,320,l),
(598,0,l)
);
},
{
attr = {
strokeWidth = 30;
};
closed = 0;
nodes = (
(401,320,l),
(264,320,l)
);
},
{
attr = {
lineCapEnd = "4";
lineCapStart = "4";
strokeWidth = 30;
};
closed = 0;
nodes = (
(67,640,l),
(257,320,l),
(67,0,l)
);
}
);
width = 665;
},
{
layerId = "410C308F-557C-4D4B-8D78-DF4F3F2F205E";
shapes = (
{
attr = {
lineCapEnd = "4";
lineCapStart = "4";
strokeWidth = 150;
};
closed = 0;
nodes = (
(538,640,l),
(348,320,l),
(538,0,l)
);
},
{
attr = {
strokeWidth = 160;
};
closed = 0;
nodes = (
(344,320,l),
(291,320,l)
);
},
{
attr = {
lineCapEnd = "4";
lineCapStart = "4";
strokeWidth = 150;
};
closed = 0;
nodes = (
(97,640,l),
(287,320,l),
(97,0,l)
);
}
);
width = 635;
},
{
layerId = "C375229C-5AB5-4F42-B4C5-B05E6279C8CD";
shapes = (
{
attr = {
lineCapEnd = "4";
lineCapStart = "4";
strokeWidth = 150;
};
closed = 0;
nodes = (
(638,640,l),
(448,320,l),
(638,0,l)
);
},
{
attr = {
strokeWidth = 160;
};
closed = 0;
nodes = (
(444,320,l),
(291,320,l)
);
},
{
attr = {
lineCapEnd = "4";
lineCapStart = "4";
strokeWidth = 150;
};
closed = 0;
nodes = (
(97,640,l),
(287,320,l),
(97,0,l)
);
}
);
width = 735;
},
{
layerId = "3EFBB2FF-E525-4F07-A4DB-42752D5683EA";
shapes = (
{
attr = {
lineCapEnd = "4";
lineCapStart = "4";
strokeWidth = 30;
};
closed = 0;
nodes = (
(688,640,l),
(498,320,l),
(688,0,l)
);
},
{
attr = {
strokeWidth = 30;
};
closed = 0;
nodes = (
(491,320,l),
(204,320,l)
);
},
{
attr = {
lineCapEnd = "4";
lineCapStart = "4";
strokeWidth = 30;
};
closed = 0;
nodes = (
(7,640,l),
(197,320,l),
(7,0,l)
);
}
);
width = 695;
}
);
metricRight = "=|";
unicode = 88;
},
{
glyphname = Y;
kernLeft = Y;
kernRight = Y;
lastChange = "2025-04-20 12:54:03 +0000";
layers = (
{
layerId = m01;
shapes = (
{
attr = {
identifier = ID0x303e09a70;
lineCapEnd = "4";
lineCapStart = "4";
strokeWidth = 30;
};
closed = 0;
nodes = (
(68,640,l),
(338,265,l),
(608,640,l)
);
},
{
attr = {
strokeWidth = 30;
};
closed = 0;
nodes = (
(338,265,l),
(338,0,l)
);
}
);
width = 676;
},
{
layerId = "410C308F-557C-4D4B-8D78-DF4F3F2F205E";
shapes = (
{
attr = {
identifier = ID0x303e09a70;
lineCapEnd = "4";
lineCapStart = "4";
strokeWidth = 160;
};
closed = 0;
nodes = (
(157,640,l),
(376,238,l),
(605,640,l)
);
},
{
attr = {
strokeWidth = 170;
};
closed = 0;
nodes = (
(376,238,l),
(376,0,l)
);
}
);
width = 763;
},
{
layerId = "C375229C-5AB5-4F42-B4C5-B05E6279C8CD";
shapes = (
{
attr = {
identifier = ID0x303e09a70;
lineCapEnd = "4";
lineCapStart = "4";
strokeWidth = 160;
};
closed = 0;
nodes = (
(97,640,l),
(376,238,l),
(655,640,l)
);
},
{
attr = {
strokeWidth = 170;
};
closed = 0;
nodes = (
(376,238,l),
(376,0,l)
);
}
);
width = 752;
},
{
layerId = "3EFBB2FF-E525-4F07-A4DB-42752D5683EA";
shapes = (
{
attr = {
identifier = ID0x303e09a70;
lineCapEnd = "4";
lineCapStart = "4";
strokeWidth = 30;
};
closed = 0;
nodes = (
(39,640,l),
(359,265,l),
(679,640,l)
);
},
{
attr = {
strokeWidth = 30;
};
closed = 0;
nodes = (
(359,265,l),
(359,0,l)
);
}
);
width = 718;
}
);
metricRight = "=|";
unicode = 89;
},
{
glyphname = Z;
kernLeft = Z;
kernRight = Z;
lastChange = "2025-04-20 12:53:45 +0000";
layers = (
{
layerId = m01;
shapes = (
{
attr = {
strokeWidth = 30;
};
closed = 0;
nodes = (
(50,625,l),
(615,625,l),
(615,561,l),
(65,79,l),
(65,15,l),
(630,15,l)
);
}
);
width = 680;
},
{
layerId = "410C308F-557C-4D4B-8D78-DF4F3F2F205E";
shapes = (
{
attr = {
strokeWidth = 160;
};
closed = 0;
nodes = (
(80,559,l),
(550,559,l),
(550,509,l),
(160,130,l),
(160,80,l),
(630,80,l)
);
}
);
width = 710;
},
{
layerId = "C375229C-5AB5-4F42-B4C5-B05E6279C8CD";
shapes = (
{
attr = {
strokeWidth = 160;
};
closed = 0;
nodes = (
(30,559,l),
(600,559,l),
(600,509,l),
(110,130,l),
(110,80,l),
(680,80,l)
);
}
);
width = 710;
},
{
layerId = "3EFBB2FF-E525-4F07-A4DB-42752D5683EA";
shapes = (
{
attr = {
strokeWidth = 30;
};
closed = 0;
nodes = (
(50,625,l),
(715,625,l),
(715,561,l),
(65,79,l),
(65,15,l),
(730,15,l)
);
}
);
width = 780;
}
);
metricRight = "=|";
unicode = 90;
},
{
glyphname = a;
kernLeft = a;
kernRight = a;
lastChange = "2025-04-20 12:38:02 +0000";
layers = (
{
layerId = m01;
shapes = (
{
attr = {
strokeHeight = 30;
strokePos = 1;
strokeWidth = 30;
};
closed = 0;
nodes = (
(484,0,l),
(484,440,l),
(235,440,ls),
(112,440,o),
(45,373,o),
(45,250,cs),
(45,190,ls),
(45,67,o),
(112,0,o),
(235,0,cs),
(366,0,l)
);
}
);
width = 549;
},
{
background = {
shapes = (
{
closed = 1;
nodes = (
(525,0,l),
(525,305,ls),
(525,390,o),
(485,440,o),
(382,440,cs),
(-13,440,l),
(-13,342,l),
(349,342,ls),
(385,342,o),
(401,325,o),
(401,290,cs),
(401,231,l),
(439,269,l),
(73,269,ls),
(-20,269,o),
(-70,220,o),
(-70,135,cs),
(-70,49,o),
(-20,0,o),
(73,0,cs)
);
},
{
closed = 1;
nodes = (
(439,98,l),
(95,98,ls),
(73,98,o),
(61,113,o),
(61,135,cs),
(61,156,o),
(73,171,o),
(95,171,cs),
(439,171,l),
(401,208,l),
(401,61,l)
);
}
);
};
layerId = "410C308F-557C-4D4B-8D78-DF4F3F2F205E";
shapes = (
{
attr = {
strokeHeight = 150;
strokePos = 1;
strokeWidth = 160;
};
closed = 0;
nodes = (
(474,0,l),
(474,440,l),
(225,440,ls),
(102,440,o),
(35,373,o),
(35,250,cs),
(35,190,ls),
(35,67,o),
(102,0,o),
(225,0,cs),
(276,0,l)
);
}
);
width = 529;
},
{
associatedMasterId = "410C308F-557C-4D4B-8D78-DF4F3F2F205E";
background = {
shapes = (
{
closed = 1;
nodes = (
(620,0,l),
(620,305,ls),
(620,390,o),
(580,440,o),
(477,440,cs),
(82,440,l),
(82,342,l),
(444,342,ls),
(480,342,o),
(496,325,o),
(496,290,cs),
(496,231,l),
(534,269,l),
(168,269,ls),
(75,269,o),
(25,220,o),
(25,135,cs),
(25,49,o),
(75,0,o),
(168,0,cs)
);
},
{
closed = 1;
nodes = (
(534,98,l),
(190,98,ls),
(168,98,o),
(156,113,o),
(156,135,cs),
(156,156,o),
(168,171,o),
(190,171,cs),
(534,171,l),
(496,208,l),
(496,61,l)
);
}
);
};
layerId = "E13B51CF-A37B-4619-9638-44C2AFDF9C7C";
name = "11 Apr 25 at 21:27";
shapes = (
{
attr = {
strokeHeight = 150;
strokePos = 0;
strokeWidth = 160;
};
closed = 0;
nodes = (
(126,440,l),
(489,440,ls),
(541,440,o),
(569,412,o),
(569,360,cs),
(569,0,l)
);
},
{
attr = {
strokeHeight = 140;
strokePos = 1;
strokeWidth = 130;
};
closed = 0;
nodes = (
(371,384,l),
(188,220,ls),
(132,169,o),
(105,136,o),
(105,91,cs),
(105,24,o),
(164,0,o),
(220,0,cs),
(555,0,l)
);
}
);
width = 600;
},
{
associatedMasterId = m01;
layerId = "0B110033-4C14-42A6-B921-7913AB10F503";
name = "11 Apr 25 at 21:29";
shapes = (
{
attr = {
strokeHeight = 30;
strokePos = "0";
strokeWidth = 30;
};
closed = 0;
nodes = (
(126,440,l),
(489,440,ls),
(541,440,o),
(569,412,o),
(569,360,cs),
(569,0,l)
);
},
{
attr = {
strokeHeight = 30;
strokePos = "1";
strokeWidth = 30;
};
closed = 0;
nodes = (
(548,338,l),
(188,220,ls),
(118,197,o),
(105,136,o),
(105,100,cs),
(105,24,o),
(164,0,o),
(220,0,cs),
(555,0,l)
);
}
);
width = 600;
},
{
background = {
shapes = (
{
closed = 1;
nodes = (
(625,0,l),
(625,305,ls),
(625,390,o),
(585,440,o),
(482,440,cs),
(87,440,l),
(87,342,l),
(449,342,ls),
(485,342,o),
(501,325,o),
(501,290,cs),
(501,231,l),
(539,269,l),
(173,269,ls),
(80,269,o),
(30,220,o),
(30,135,cs),
(30,49,o),
(80,0,o),
(173,0,cs)
);
},
{
closed = 1;
nodes = (
(539,98,l),
(195,98,ls),
(173,98,o),
(161,113,o),
(161,135,cs),
(161,156,o),
(173,171,o),
(195,171,cs),
(539,171,l),
(501,208,l),
(501,61,l)
);
}
);
};
layerId = "C375229C-5AB5-4F42-B4C5-B05E6279C8CD";
shapes = (
{
attr = {
strokeHeight = 150;
strokePos = 1;
strokeWidth = 160;
};
closed = 0;
nodes = (
(574,0,l),
(574,440,l),
(225,440,ls),
(102,440,o),
(35,373,o),
(35,250,cs),
(35,190,ls),
(35,67,o),
(102,0,o),
(225,0,cs),
(376,0,l)
);
}
);
width = 629;
},
{
associatedMasterId = "C375229C-5AB5-4F42-B4C5-B05E6279C8CD";
background = {
shapes = (
{
closed = 1;
nodes = (
(620,0,l),
(620,305,ls),
(620,390,o),
(580,440,o),
(477,440,cs),
(82,440,l),
(82,342,l),
(444,342,ls),
(480,342,o),
(496,325,o),
(496,290,cs),
(496,231,l),
(534,269,l),
(168,269,ls),
(75,269,o),
(25,220,o),
(25,135,cs),
(25,49,o),
(75,0,o),
(168,0,cs)
);
},
{
closed = 1;
nodes = (
(534,98,l),
(190,98,ls),
(168,98,o),
(156,113,o),
(156,135,cs),
(156,156,o),
(168,171,o),
(190,171,cs),
(534,171,l),
(496,208,l),
(496,61,l)
);
}
);
};
layerId = "9893507A-011C-4D92-91CC-0538F8D8128E";
name = "11 Apr 25 at 21:27";
shapes = (
{
attr = {
strokeHeight = 150;
strokePos = 0;
strokeWidth = 160;
};
closed = 0;
nodes = (
(126,440,l),
(489,440,ls),
(541,440,o),
(569,412,o),
(569,360,cs),
(569,0,l)
);
},
{
attr = {
strokeHeight = 140;
strokePos = 1;
strokeWidth = 130;
};
closed = 0;
nodes = (
(371,384,l),
(188,220,ls),
(132,169,o),
(105,136,o),
(105,91,cs),
(105,24,o),
(164,0,o),
(220,0,cs),
(555,0,l)
);
}
);
width = 600;
},
{
layerId = "3EFBB2FF-E525-4F07-A4DB-42752D5683EA";
shapes = (
{
attr = {
strokeHeight = 30;
strokePos = 1;
strokeWidth = 30;
};
closed = 0;
nodes = (
(584,0,l),
(584,440,l),
(235,440,ls),
(112,440,o),
(45,373,o),
(45,250,cs),
(45,190,ls),
(45,67,o),
(112,0,o),
(235,0,cs),
(466,0,l)
);
}
);
width = 649;
},
{
associatedMasterId = "3EFBB2FF-E525-4F07-A4DB-42752D5683EA";
layerId = "8D5464B4-188A-490A-AC1A-B25A9D3496C6";
name = "11 Apr 25 at 21:29";
shapes = (
{
attr = {
strokeHeight = 30;
strokePos = "0";
strokeWidth = 30;
};
closed = 0;
nodes = (
(126,440,l),
(489,440,ls),
(541,440,o),
(569,412,o),
(569,360,cs),
(569,0,l)
);
},
{
attr = {
strokeHeight = 30;
strokePos = "1";
strokeWidth = 30;
};
closed = 0;
nodes = (
(548,338,l),
(188,220,ls),
(118,197,o),
(105,136,o),
(105,100,cs),
(105,24,o),
(164,0,o),
(220,0,cs),
(555,0,l)
);
}
);
width = 600;
}
);
metricLeft = o;
metricRight = "=|n";
unicode = 97;
},
{
glyphname = c;
kernLeft = o;
kernRight = o;
lastChange = "2025-04-20 12:37:53 +0000";
layers = (
{
layerId = m01;
shapes = (
{
attr = {
strokePos = "1";
strokeWidth = 30;
};
closed = 0;
nodes = (
(405,430,l),
(235,430,l),
(112,430,o),
(45,363,o),
(45,240,cs),
(45,190,ls),
(45,67,o),
(112,0,o),
(235,0,c),
(405,0,l)
);
}
);
width = 445;
},
{
layerId = "410C308F-557C-4D4B-8D78-DF4F3F2F205E";
shapes = (
{
attr = {
strokeHeight = 150;
strokePos = "1";
strokeWidth = 160;
};
closed = 0;
nodes = (
(395,440,l),
(225,440,l),
(102,440,o),
(35,373,o),
(35,250,cs),
(35,190,ls),
(35,67,o),
(102,0,o),
(225,0,c),
(395,0,l)
);
}
);
width = 445;
},
{
layerId = "C375229C-5AB5-4F42-B4C5-B05E6279C8CD";
shapes = (
{
attr = {
strokeHeight = 150;
strokePos = "1";
strokeWidth = 160;
};
closed = 0;
nodes = (
(495,440,l),
(225,440,l),
(102,440,o),
(35,373,o),
(35,250,cs),
(35,190,ls),
(35,67,o),
(102,0,o),
(225,0,c),
(495,0,l)
);
}
);
width = 545;
},
{
layerId = "3EFBB2FF-E525-4F07-A4DB-42752D5683EA";
shapes = (
{
attr = {
strokePos = "1";
strokeWidth = 30;
};
closed = 0;
nodes = (
(505,430,l),
(235,430,l),
(112,430,o),
(45,363,o),
(45,240,cs),
(45,190,ls),
(45,67,o),
(112,0,o),
(235,0,c),
(505,0,l)
);
}
);
width = 545;
}
);
metricLeft = o;
unicode = 99;
},
{
glyphname = d;
kernLeft = o;
kernRight = l;
lastChange = "2025-04-20 12:37:26 +0000";
layers = (
{
layerId = m01;
shapes = (
{
attr = {
strokeHeight = 30;
strokePos = "1";
strokeWidth = 30;
};
closed = 0;
nodes = (
(435,440,l),
(235,440,ls),
(112,440,o),
(45,373,o),
(45,250,cs),
(45,190,ls),
(45,67,o),
(112,0,o),
(235,0,cs),
(445,0,l),
(445,640,l)
);
}
);
width = 510;
},
{
layerId = "410C308F-557C-4D4B-8D78-DF4F3F2F205E";
shapes = (
{
attr = {
strokeHeight = 150;
strokePos = "1";
strokeWidth = 160;
};
closed = 0;
nodes = (
(425,440,l),
(225,440,ls),
(102,440,o),
(35,373,o),
(35,250,cs),
(35,190,ls),
(35,67,o),
(102,0,o),
(225,0,cs),
(435,0,l),
(435,640,l)
);
}
);
width = 490;
},
{
layerId = "C375229C-5AB5-4F42-B4C5-B05E6279C8CD";
shapes = (
{
attr = {
strokeHeight = 150;
strokePos = "1";
strokeWidth = 160;
};
closed = 0;
nodes = (
(525,440,l),
(225,440,ls),
(102,440,o),
(35,373,o),
(35,250,cs),
(35,190,ls),
(35,67,o),
(102,0,o),
(225,0,cs),
(535,0,l),
(535,640,l)
);
}
);
width = 590;
},
{
layerId = "3EFBB2FF-E525-4F07-A4DB-42752D5683EA";
shapes = (
{
attr = {
strokeHeight = 30;
strokePos = "1";
strokeWidth = 30;
};
closed = 0;
nodes = (
(535,440,l),
(235,440,ls),
(112,440,o),
(45,373,o),
(45,250,cs),
(45,190,ls),
(45,67,o),
(112,0,o),
(235,0,cs),
(545,0,l),
(545,640,l)
);
}
);
width = 610;
}
);
metricLeft = o;
metricRight = "=|n";
unicode = 100;
},
{
glyphname = e;
kernLeft = o;
kernRight = o;
lastChange = "2025-04-22 16:50:32 +0000";
layers = (
{
layerId = m01;
shapes = (
{
attr = {
strokeHeight = 30;
strokePos = "1";
strokeWidth = 30;
};
closed = 0;
nodes = (
(445,212,l),
(445,250,ls),
(445,373,o),
(378,440,o),
(255,440,cs),
(235,440,ls),
(112,440,o),
(45,373,o),
(45,250,cs),
(45,190,ls),
(45,67,o),
(112,0,o),
(235,0,cs),
(435,0,l)
);
},
{
attr = {
strokeWidth = 30;
};
closed = 0;
nodes = (
(54,204,l),
(445,204,l)
);
}
);
width = 490;
},
{
background = {
shapes = (
{
closed = 1;
nodes = (
(519,-5,l),
(519,90,l),
(237,90,ls),
(177,90,o),
(144,128,o),
(144,212,cs),
(144,296,o),
(177,335,o),
(237,335,cs),
(406,335,ls),
(425,335,o),
(436,323,o),
(436,300,cs),
(436,277,o),
(425,263,o),
(406,263,cs),
(110,263,l),
(110,167,l),
(411,167,ls),
(494,167,o),
(537,212,o),
(537,297,cs),
(537,383,o),
(493,430,o),
(411,430,cs),
(237,430,ls),
(113,430,o),
(40,355,o),
(40,212,cs),
(40,70,o),
(113,-5,o),
(237,-5,cs)
);
}
);
};
layerId = "410C308F-557C-4D4B-8D78-DF4F3F2F205E";
shapes = (
{
attr = {
strokeHeight = 140;
strokePos = "1";
strokeWidth = 160;
};
closed = 0;
nodes = (
(435,213,l),
(435,255,ls),
(435,378,o),
(368,440,o),
(245,440,cs),
(225,440,ls),
(102,440,o),
(35,373,o),
(35,250,cs),
(35,190,ls),
(35,67,o),
(102,0,o),
(225,0,cs),
(425,0,l)
);
},
{
attr = {
strokeWidth = 80;
};
closed = 0;
nodes = (
(44,219,l),
(435,219,l)
);
}
);
width = 470;
},
{
associatedMasterId = m01;
attr = {
coordinates = (
90,
70
);
};
layerId = "AEAFAE6E-2C26-4CF2-99FA-A65C0B32484B";
name = "11 Apr 25 at 21:32";
shapes = (
{
attr = {
strokeHeight = 77.14286;
strokePos = 1;
strokeWidth = 85.71429;
};
closed = 0;
nodes = (
(441,210,l),
(441,250,ls),
(441,373,o),
(374,440,o),
(251,440,cs),
(231,440,ls),
(108,440,o),
(41,373,o),
(41,250,cs),
(41,190,ls),
(41,67,o),
(108,0,o),
(231,0,cs),
(431,0,l)
);
},
{
attr = {
strokeWidth = 77;
};
closed = 0;
nodes = (
(50,204,l),
(441,204,l)
);
}
);
width = 481;
},
{
background = {
shapes = (
{
closed = 1;
nodes = (
(519,-5,l),
(519,90,l),
(237,90,ls),
(177,90,o),
(144,128,o),
(144,212,cs),
(144,296,o),
(177,335,o),
(237,335,cs),
(406,335,ls),
(425,335,o),
(436,323,o),
(436,300,cs),
(436,277,o),
(425,263,o),
(406,263,cs),
(110,263,l),
(110,167,l),
(411,167,ls),
(494,167,o),
(537,212,o),
(537,297,cs),
(537,383,o),
(493,430,o),
(411,430,cs),
(237,430,ls),
(113,430,o),
(40,355,o),
(40,212,cs),
(40,70,o),
(113,-5,o),
(237,-5,cs)
);
}
);
};
layerId = "C375229C-5AB5-4F42-B4C5-B05E6279C8CD";
shapes = (
{
attr = {
strokeHeight = 140;
strokePos = "1";
strokeWidth = 160;
};
closed = 0;
nodes = (
(535,213,l),
(535,255,ls),
(535,378,o),
(468,440,o),
(345,440,cs),
(225,440,ls),
(102,440,o),
(35,373,o),
(35,250,cs),
(35,190,ls),
(35,67,o),
(102,0,o),
(225,0,cs),
(525,0,l)
);
},
{
attr = {
strokeWidth = 80;
};
closed = 0;
nodes = (
(44,219,l),
(535,219,l)
);
}
);
width = 570;
},
{
layerId = "3EFBB2FF-E525-4F07-A4DB-42752D5683EA";
shapes = (
{
attr = {
strokeHeight = 30;
strokePos = "1";
strokeWidth = 30;
};
closed = 0;
nodes = (
(545,212,l),
(545,250,ls),
(545,373,o),
(478,440,o),
(355,440,cs),
(235,440,ls),
(112,440,o),
(45,373,o),
(45,250,cs),
(45,190,ls),
(45,67,o),
(112,0,o),
(235,0,cs),
(535,0,l)
);
},
{
attr = {
strokeWidth = 30;
};
closed = 0;
nodes = (
(54,204,l),
(545,204,l)
);
}
);
width = 590;
},
{
associatedMasterId = "3EFBB2FF-E525-4F07-A4DB-42752D5683EA";
attr = {
coordinates = (
90,
120
);
};
layerId = "BFD68289-C587-4EF0-86DF-30AC09895862";
name = "11 Apr 25 at 21:32";
shapes = (
{
attr = {
strokeHeight = 77.14286;
strokePos = 1;
strokeWidth = 85.71429;
};
closed = 0;
nodes = (
(541,212,l),
(541,252,ls),
(541,375,o),
(474,440,o),
(351,440,cs),
(231,440,ls),
(108,440,o),
(41,373,o),
(41,250,cs),
(41,190,ls),
(41,67,o),
(108,0,o),
(231,0,cs),
(531,0,l)
);
},
{
attr = {
strokeWidth = 77;
};
closed = 0;
nodes = (
(50,206,l),
(541,206,l)
);
}
);
width = 581;
}
);
metricLeft = o;
metricRight = o;
unicode = 101;
},
{
glyphname = f;
kernLeft = f;
kernRight = f;
lastChange = "2025-04-20 12:39:13 +0000";
layers = (
{
layerId = m01;
shapes = (
{
attr = {
strokeHeight = 30;
strokePos = "1";
strokeWidth = 30;
};
closed = 0;
nodes = (
(320,640,l),
(255,640,ls),
(132,640,o),
(65,573,o),
(65,450,cs),
(65,0,l)
);
},
{
attr = {
strokePos = "0";
strokeWidth = 30;
};
closed = 0;
nodes = (
(76,366,l),
(320,366,l)
);
}
);
width = 350;
},
{
layerId = "410C308F-557C-4D4B-8D78-DF4F3F2F205E";
shapes = (
{
attr = {
strokeHeight = 150;
strokePos = 1;
strokeWidth = 160;
};
closed = 0;
nodes = (
(310,640,l),
(245,640,ls),
(122,640,o),
(55,573,o),
(55,450,cs),
(55,0,l)
);
},
{
attr = {
strokePos = "0";
strokeWidth = 150;
};
closed = 0;
nodes = (
(66,426,l),
(310,426,l)
);
}
);
width = 330;
},
{
layerId = "C375229C-5AB5-4F42-B4C5-B05E6279C8CD";
shapes = (
{
attr = {
strokeHeight = 150;
strokePos = 1;
strokeWidth = 160;
};
closed = 0;
nodes = (
(410,640,l),
(245,640,ls),
(122,640,o),
(55,573,o),
(55,450,cs),
(55,0,l)
);
},
{
attr = {
strokePos = "0";
strokeWidth = 150;
};
closed = 0;
nodes = (
(66,426,l),
(410,426,l)
);
}
);
width = 430;
},
{
layerId = "3EFBB2FF-E525-4F07-A4DB-42752D5683EA";
shapes = (
{
attr = {
strokeHeight = 30;
strokePos = "1";
strokeWidth = 30;
};
closed = 0;
nodes = (
(420,640,l),
(255,640,ls),
(132,640,o),
(65,573,o),
(65,450,cs),
(65,0,l)
);
},
{
attr = {
strokePos = "0";
strokeWidth = 30;
};
closed = 0;
nodes = (
(76,366,l),
(420,366,l)
);
}
);
width = 450;
}
);
metricLeft = n;
unicode = 102;
},
{
glyphname = g;
kernLeft = o;
kernRight = l;
lastChange = "2025-04-20 12:33:54 +0000";
layers = (
{
layerId = m01;
shapes = (
{
attr = {
identifier = ID0x313c96120;
strokeHeight = 30;
strokePos = "1";
strokeWidth = 30;
};
closed = 0;
nodes = (
(445,440,l),
(235,440,ls),
(112,440,o),
(45,373,o),
(45,250,cs),
(45,190,ls),
(45,67,o),
(112,0,o),
(235,0,cs),
(435,0,l)
);
},
{
attr = {
strokeHeight = 30;
strokePos = "0";
strokeWidth = 30;
};
closed = 0;
nodes = (
(445,440,l),
(445,-10,ls),
(445,-133,o),
(378,-200,o),
(255,-200,cs),
(69,-200,l)
);
}
);
width = 510;
},
{
layerId = "410C308F-557C-4D4B-8D78-DF4F3F2F205E";
shapes = (
{
attr = {
identifier = ID0x313c96120;
strokeHeight = 150;
strokePos = "1";
strokeWidth = 160;
};
closed = 0;
nodes = (
(435,440,l),
(225,440,ls),
(102,440,o),
(35,373,o),
(35,250,cs),
(35,190,ls),
(35,67,o),
(102,0,o),
(225,0,cs),
(425,0,l)
);
},
{
attr = {
strokeHeight = 150;
strokePos = "0";
strokeWidth = 160;
};
closed = 0;
nodes = (
(435,440,l),
(435,-10,ls),
(435,-133,o),
(368,-200,o),
(245,-200,cs),
(69,-200,l)
);
}
);
width = 490;
},
{
layerId = "C375229C-5AB5-4F42-B4C5-B05E6279C8CD";
shapes = (
{
attr = {
identifier = ID0x313c96120;
strokeHeight = 150;
strokePos = "1";
strokeWidth = 160;
};
closed = 0;
nodes = (
(535,440,l),
(225,440,ls),
(102,440,o),
(35,373,o),
(35,250,cs),
(35,190,ls),
(35,67,o),
(102,0,o),
(225,0,cs),
(525,0,l)
);
},
{
attr = {
strokeHeight = 150;
strokePos = "0";
strokeWidth = 160;
};
closed = 0;
nodes = (
(535,440,l),
(535,-10,ls),
(535,-133,o),
(468,-200,o),
(345,-200,cs),
(149,-200,l)
);
}
);
width = 590;
},
{
layerId = "3EFBB2FF-E525-4F07-A4DB-42752D5683EA";
shapes = (
{
attr = {
identifier = ID0x313c96120;
strokeHeight = 30;
strokePos = "1";
strokeWidth = 30;
};
closed = 0;
nodes = (
(545,440,l),
(235,440,ls),
(112,440,o),
(45,373,o),
(45,250,cs),
(45,190,ls),
(45,67,o),
(112,0,o),
(235,0,cs),
(535,0,l)
);
},
{
attr = {
strokeHeight = 30;
strokePos = "0";
strokeWidth = 30;
};
closed = 0;
nodes = (
(545,440,l),
(545,-10,ls),
(545,-133,o),
(478,-200,o),
(355,-200,cs),
(159,-200,l)
);
}
);
width = 610;
}
);
metricLeft = o;
metricRight = "=|n";
unicode = 103;
},
{
glyphname = h;
kernLeft = l;
kernRight = n;
lastChange = "2025-04-20 12:39:27 +0000";
layers = (
{
layerId = m01;
shapes = (
{
attr = {
strokeHeight = 30;
strokePos = "0";
strokeWidth = 30;
};
closed = 0;
nodes = (
(75,440,l),
(275,440,ls),
(398,440,o),
(465,373,o),
(465,250,cs),
(465,0,l)
);
},
{
attr = {
strokeHeight = 30;
strokePos = "1";
strokeWidth = 30;
};
closed = 0;
nodes = (
(65,640,l),
(65,0,l)
);
}
);
width = 525;
},
{
layerId = "410C308F-557C-4D4B-8D78-DF4F3F2F205E";
shapes = (
{
attr = {
strokeHeight = 150;
strokePos = "0";
strokeWidth = 160;
};
closed = 0;
nodes = (
(65,440,l),
(265,440,ls),
(388,440,o),
(455,373,o),
(455,250,cs),
(455,0,l)
);
},
{
attr = {
strokePos = 1;
strokeWidth = 160;
};
closed = 0;
nodes = (
(55,640,l),
(55,0,l)
);
}
);
width = 505;
},
{
layerId = "C375229C-5AB5-4F42-B4C5-B05E6279C8CD";
shapes = (
{
attr = {
strokeHeight = 150;
strokePos = "0";
strokeWidth = 160;
};
closed = 0;
nodes = (
(65,440,l),
(365,440,ls),
(488,440,o),
(555,373,o),
(555,250,cs),
(555,0,l)
);
},
{
attr = {
strokePos = 1;
strokeWidth = 160;
};
closed = 0;
nodes = (
(55,640,l),
(55,0,l)
);
}
);
width = 605;
},
{
layerId = "3EFBB2FF-E525-4F07-A4DB-42752D5683EA";
shapes = (
{
attr = {
strokeHeight = 30;
strokePos = "0";
strokeWidth = 30;
};
closed = 0;
nodes = (
(75,440,l),
(375,440,ls),
(498,440,o),
(565,373,o),
(565,250,cs),
(565,0,l)
);
},
{
attr = {
strokeHeight = 30;
strokePos = "1";
strokeWidth = 30;
};
closed = 0;
nodes = (
(65,640,l),
(65,0,l)
);
}
);
width = 625;
}
);
metricLeft = n;
metricRight = n;
unicode = 104;
},
{
glyphname = i;
kernLeft = l;
kernRight = l;
lastChange = "2025-04-25 12:59:06 +0000";
layers = (
{
layerId = m01;
shapes = (
{
attr = {
strokeWidth = 30;
};
closed = 0;
nodes = (
(93,430,l),
(93,0,l)
);
},
{
pos = (60,35);
ref = "dotabove-ar";
}
);
width = 186;
},
{
layerId = "410C308F-557C-4D4B-8D78-DF4F3F2F205E";
shapes = (
{
attr = {
strokeWidth = 160;
};
closed = 0;
nodes = (
(135,440,l),
(135,0,l)
);
},
{
pos = (63,35);
ref = "dotabove-ar";
}
);
width = 270;
},
{
layerId = "C375229C-5AB5-4F42-B4C5-B05E6279C8CD";
shapes = (
{
attr = {
strokeWidth = 160;
};
closed = 0;
nodes = (
(135,440,l),
(135,0,l)
);
},
{
pos = (61,35);
ref = "dotabove-ar";
}
);
width = 270;
},
{
layerId = "3EFBB2FF-E525-4F07-A4DB-42752D5683EA";
shapes = (
{
attr = {
strokeWidth = 30;
};
closed = 0;
nodes = (
(96,430,l),
(96,0,l)
);
},
{
pos = (60,35);
ref = "dotabove-ar";
}
);
width = 186;
}
);
metricLeft = n;
metricRight = "=|";
unicode = 105;
},
{
glyphname = j;
kernLeft = j;
kernRight = l;
lastChange = "2025-04-20 12:40:10 +0000";
layers = (
{
layerId = m01;
shapes = (
{
attr = {
strokeHeight = 30;
strokePos = "0";
strokeWidth = 30;
};
closed = 0;
nodes = (
(276,440,l),
(276,-10,ls),
(276,-133,o),
(209,-200,o),
(86,-200,cs),
(30,-200,l)
);
}
);
width = 341;
},
{
layerId = "410C308F-557C-4D4B-8D78-DF4F3F2F205E";
shapes = (
{
attr = {
strokeHeight = 150;
strokePos = 0;
strokeWidth = 160;
};
closed = 0;
nodes = (
(276,440,l),
(276,-10,ls),
(276,-133,o),
(209,-200,o),
(86,-200,cs),
(30,-200,l)
);
}
);
width = 331;
},
{
layerId = "C375229C-5AB5-4F42-B4C5-B05E6279C8CD";
shapes = (
{
attr = {
strokeHeight = 150;
strokePos = 0;
strokeWidth = 160;
};
closed = 0;
nodes = (
(216,440,l),
(216,-10,ls),
(216,-133,o),
(149,-200,o),
(26,-200,cs),
(-170,-200,l)
);
}
);
width = 271;
},
{
layerId = "3EFBB2FF-E525-4F07-A4DB-42752D5683EA";
shapes = (
{
attr = {
strokeHeight = 30;
strokePos = "0";
strokeWidth = 30;
};
closed = 0;
nodes = (
(216,440,l),
(216,-10,ls),
(216,-133,o),
(149,-200,o),
(26,-200,cs),
(-170,-200,l)
);
}
);
width = 281;
}
);
metricRight = "=|n";
unicode = 106;
},
{
glyphname = k;
kernLeft = l;
kernRight = k;
lastChange = "2025-04-22 16:55:39 +0000";
layers = (
{
layerId = m01;
shapes = (
{
attr = {
lineCapEnd = "4";
lineCapStart = "4";
strokeWidth = 30;
};
closed = 0;
nodes = (
(377,440,l),
(246,220,l),
(377,0,l)
);
},
{
attr = {
strokeWidth = 30;
};
closed = 0;
nodes = (
(244,220,l),
(68,220,l)
);
},
{
attr = {
strokePos = "0";
strokeWidth = 30;
};
closed = 0;
nodes = (
(65,0,l),
(65,640,l)
);
}
);
width = 610;
},
{
layerId = "410C308F-557C-4D4B-8D78-DF4F3F2F205E";
shapes = (
{
attr = {
lineCapEnd = "4";
lineCapStart = "4";
strokeWidth = 150;
};
closed = 0;
nodes = (
(387,440,l),
(256,220,l),
(387,0,l)
);
},
{
attr = {
strokeWidth = 150;
};
closed = 0;
nodes = (
(254,220,l),
(58,220,l)
);
},
{
attr = {
strokePos = 0;
strokeWidth = 160;
};
closed = 0;
nodes = (
(55,0,l),
(55,640,l)
);
}
);
width = 648;
},
{
layerId = "C375229C-5AB5-4F42-B4C5-B05E6279C8CD";
shapes = (
{
attr = {
lineCapEnd = "4";
lineCapStart = "4";
strokeWidth = 150;
};
closed = 0;
nodes = (
(467,440,l),
(336,220,l),
(467,0,l)
);
},
{
attr = {
strokeWidth = 150;
};
closed = 0;
nodes = (
(334,220,l),
(58,220,l)
);
},
{
attr = {
strokePos = "0";
strokeWidth = 160;
};
closed = 0;
nodes = (
(55,0,l),
(55,640,l)
);
}
);
width = 650;
},
{
layerId = "3EFBB2FF-E525-4F07-A4DB-42752D5683EA";
shapes = (
{
attr = {
lineCapEnd = "4";
lineCapStart = "4";
strokeWidth = 30;
};
closed = 0;
nodes = (
(477,440,l),
(346,220,l),
(477,0,l)
);
},
{
attr = {
strokeWidth = 30;
};
closed = 0;
nodes = (
(344,220,l),
(68,220,l)
);
},
{
attr = {
strokePos = "0";
strokeWidth = 30;
};
closed = 0;
nodes = (
(65,0,l),
(65,640,l)
);
}
);
width = 600;
}
);
metricLeft = n;
unicode = 107;
},
{
glyphname = l;
kernLeft = l;
kernRight = l;
lastChange = "2025-04-20 12:40:30 +0000";
layers = (
{
layerId = m01;
shapes = (
{
attr = {
strokePos = "0";
strokeWidth = 30;
};
closed = 0;
nodes = (
(260,0,l),
(255,0,ls),
(132,0,o),
(65,67,o),
(65,190,cs),
(65,640,l)
);
}
);
width = 330;
},
{
layerId = "410C308F-557C-4D4B-8D78-DF4F3F2F205E";
shapes = (
{
attr = {
strokeHeight = 150;
strokePos = "0";
strokeWidth = 160;
};
closed = 0;
nodes = (
(270,0,l),
(245,0,ls),
(122,0,o),
(55,67,o),
(55,190,cs),
(55,640,l)
);
}
);
width = 380;
},
{
layerId = "C375229C-5AB5-4F42-B4C5-B05E6279C8CD";
shapes = (
{
attr = {
strokeHeight = 150;
strokePos = "0";
strokeWidth = 160;
};
closed = 0;
nodes = (
(300,0,l),
(245,0,ls),
(122,0,o),
(55,67,o),
(55,190,cs),
(55,640,l)
);
}
);
width = 350;
},
{
layerId = "3EFBB2FF-E525-4F07-A4DB-42752D5683EA";
shapes = (
{
attr = {
strokePos = "0";
strokeWidth = 30;
};
closed = 0;
nodes = (
(280,0,l),
(255,0,ls),
(132,0,o),
(65,67,o),
(65,190,cs),
(65,640,l)
);
}
);
width = 350;
}
);
metricLeft = n;
unicode = 108;
},
{
glyphname = m;
kernLeft = n;
kernRight = n;
lastChange = "2025-04-22 17:12:45 +0000";
layers = (
{
layerId = m01;
shapes = (
{
attr = {
strokeHeight = 30;
strokePos = "0";
strokeWidth = 30;
};
closed = 0;
nodes = (
(65,0,l),
(65,430,l),
(415,430,ls),
(538,430,o),
(605,363,o),
(605,240,cs),
(605,0,l)
);
},
{
attr = {
strokeWidth = 30;
};
closed = 0;
nodes = (
(335,0,l),
(335,423,l)
);
}
);
width = 665;
},
{
layerId = "410C308F-557C-4D4B-8D78-DF4F3F2F205E";
shapes = (
{
attr = {
strokeHeight = 150;
strokePos = "0";
strokeWidth = 160;
};
closed = 0;
nodes = (
(55,0,l),
(55,440,l),
(445,440,ls),
(568,440,o),
(635,373,o),
(635,250,cs),
(635,0,l)
);
},
{
attr = {
strokeWidth = 160;
};
closed = 0;
nodes = (
(345,0,l),
(345,433,l)
);
}
);
width = 685;
},
{
layerId = "C375229C-5AB5-4F42-B4C5-B05E6279C8CD";
shapes = (
{
attr = {
strokeHeight = 150;
strokePos = "0";
strokeWidth = 160;
};
closed = 0;
nodes = (
(55,0,l),
(55,440,l),
(545,440,ls),
(668,440,o),
(735,373,o),
(735,250,cs),
(735,0,l)
);
},
{
attr = {
strokeWidth = 160;
};
closed = 0;
nodes = (
(395,0,l),
(395,433,l)
);
}
);
width = 785;
},
{
layerId = "3EFBB2FF-E525-4F07-A4DB-42752D5683EA";
shapes = (
{
attr = {
strokeHeight = 30;
strokePos = "0";
strokeWidth = 30;
};
closed = 0;
nodes = (
(65,0,l),
(65,430,l),
(555,430,ls),
(678,430,o),
(745,363,o),
(745,240,cs),
(745,0,l)
);
},
{
attr = {
strokeWidth = 30;
};
closed = 0;
nodes = (
(405,0,l),
(405,423,l)
);
}
);
width = 805;
}
);
metricLeft = n;
metricRight = n;
unicode = 109;
},
{
color = 3;
glyphname = n;
kernLeft = n;
kernRight = n;
lastChange = "2025-04-20 12:35:27 +0000";
layers = (
{
layerId = m01;
shapes = (
{
attr = {
strokeHeight = 30;
strokePos = "0";
strokeWidth = 30;
};
closed = 0;
nodes = (
(65,0,l),
(65,430,l),
(275,430,ls),
(398,430,o),
(465,363,o),
(465,240,cs),
(465,0,l)
);
}
);
width = 525;
},
{
background = {
shapes = (
{
closed = 1;
nodes = (
(55,0,l),
(191,0,l),
(191,339,l),
(441,339,l),
(441,0,l),
(577,0,l),
(577,345,ls),
(577,407,o),
(520,460,o),
(448,460,cs),
(55,460,l)
);
}
);
};
layerId = "410C308F-557C-4D4B-8D78-DF4F3F2F205E";
shapes = (
{
attr = {
strokeHeight = 150;
strokePos = 0;
strokeWidth = 160;
};
closed = 0;
nodes = (
(55,0,l),
(55,440,l),
(265,440,ls),
(388,440,o),
(455,373,o),
(455,250,cs),
(455,0,l)
);
}
);
width = 505;
},
{
background = {
shapes = (
{
closed = 1;
nodes = (
(55,0,l),
(191,0,l),
(191,339,l),
(441,339,l),
(441,0,l),
(577,0,l),
(577,345,ls),
(577,407,o),
(520,460,o),
(448,460,cs),
(55,460,l)
);
}
);
};
layerId = "C375229C-5AB5-4F42-B4C5-B05E6279C8CD";
shapes = (
{
attr = {
strokeHeight = 150;
strokePos = 0;
strokeWidth = 160;
};
closed = 0;
nodes = (
(55,0,l),
(55,440,l),
(365,440,ls),
(488,440,o),
(555,373,o),
(555,250,cs),
(555,0,l)
);
}
);
width = 605;
},
{
layerId = "3EFBB2FF-E525-4F07-A4DB-42752D5683EA";
shapes = (
{
attr = {
strokeHeight = 30;
strokePos = "0";
strokeWidth = 30;
};
closed = 0;
nodes = (
(65,0,l),
(65,430,l),
(375,430,ls),
(498,430,o),
(565,363,o),
(565,240,cs),
(565,0,l)
);
}
);
width = 625;
}
);
unicode = 110;
},
{
color = 3;
glyphname = o;
kernLeft = o;
kernRight = o;
lastChange = "2025-04-25 12:58:10 +0000";
layers = (
{
layerId = m01;
shapes = (
{
attr = {
strokePos = "1";
strokeWidth = 30;
};
closed = 1;
nodes = (
(275,-10,ls),
(398,-10,o),
(465,57,o),
(465,180,cs),
(465,240,ls),
(465,363,o),
(398,430,o),
(275,430,cs),
(235,430,ls),
(112,430,o),
(45,363,o),
(45,240,cs),
(45,180,ls),
(45,57,o),
(112,-10,o),
(235,-10,cs)
);
}
);
width = 510;
},
{
background = {
shapes = (
{
closed = 1;
nodes = (
(88,460,o),
(30,407,o),
(30,345,cs),
(30,115,ls),
(30,53,o),
(88,0,o),
(159,0,cs),
(423,0,ls),
(495,0,o),
(552,53,o),
(552,115,cs),
(552,345,ls),
(552,407,o),
(495,460,o),
(423,460,cs),
(159,460,ls)
);
},
{
closed = 1;
nodes = (
(416,339,l),
(416,121,l),
(166,121,l),
(166,339,l)
);
}
);
};
layerId = "410C308F-557C-4D4B-8D78-DF4F3F2F205E";
shapes = (
{
attr = {
strokeHeight = 150;
strokePos = 1;
strokeWidth = 160;
};
closed = 1;
nodes = (
(265,-10,ls),
(388,-10,o),
(455,57,o),
(455,180,cs),
(455,260,ls),
(455,383,o),
(388,450,o),
(265,450,cs),
(225,450,ls),
(102,450,o),
(35,383,o),
(35,260,cs),
(35,180,ls),
(35,57,o),
(102,-10,o),
(225,-10,cs)
);
}
);
width = 490;
},
{
background = {
shapes = (
{
closed = 1;
nodes = (
(88,460,o),
(30,407,o),
(30,345,cs),
(30,115,ls),
(30,53,o),
(88,0,o),
(159,0,cs),
(423,0,ls),
(495,0,o),
(552,53,o),
(552,115,cs),
(552,345,ls),
(552,407,o),
(495,460,o),
(423,460,cs),
(159,460,ls)
);
},
{
closed = 1;
nodes = (
(416,339,l),
(416,121,l),
(166,121,l),
(166,339,l)
);
}
);
};
layerId = "C375229C-5AB5-4F42-B4C5-B05E6279C8CD";
shapes = (
{
attr = {
strokeHeight = 150;
strokePos = 1;
strokeWidth = 160;
};
closed = 1;
nodes = (
(365,-10,ls),
(488,-10,o),
(555,57,o),
(555,180,cs),
(555,260,ls),
(555,383,o),
(488,450,o),
(365,450,cs),
(225,450,ls),
(102,450,o),
(35,383,o),
(35,260,cs),
(35,180,ls),
(35,57,o),
(102,-10,o),
(225,-10,cs)
);
}
);
width = 590;
},
{
layerId = "3EFBB2FF-E525-4F07-A4DB-42752D5683EA";
shapes = (
{
attr = {
strokePos = "1";
strokeWidth = 30;
};
closed = 1;
nodes = (
(375,-10,ls),
(498,-10,o),
(565,57,o),
(565,180,cs),
(565,240,ls),
(565,363,o),
(498,430,o),
(375,430,cs),
(235,430,ls),
(112,430,o),
(45,363,o),
(45,240,cs),
(45,180,ls),
(45,57,o),
(112,-10,o),
(235,-10,cs)
);
}
);
width = 610;
}
);
metricRight = "=|";
unicode = 111;
},
{
glyphname = r;
kernLeft = n;
kernRight = r;
lastChange = "2025-04-22 17:16:47 +0000";
layers = (
{
background = {
shapes = (
{
attr = {
strokeHeight = 30;
strokePos = "0";
strokeWidth = 30;
};
closed = 0;
nodes = (
(65,0,l),
(65,420,l),
(270,420,ls),
(322,420,o),
(350,392,o),
(350,340,cs),
(350,270,l)
);
}
);
};
layerId = m01;
shapes = (
{
attr = {
strokeHeight = 30;
strokePos = "0";
strokeWidth = 30;
};
closed = 0;
nodes = (
(65,0,l),
(65,250,ls),
(65,356,o),
(149,440,o),
(255,440,cs),
(340,440,l)
);
}
);
width = 395;
},
{
layerId = "410C308F-557C-4D4B-8D78-DF4F3F2F205E";
shapes = (
{
attr = {
strokeHeight = 150;
strokePos = "0";
strokeWidth = 160;
};
closed = 0;
nodes = (
(55,0,l),
(55,250,ls),
(55,356,o),
(139,440,o),
(245,440,cs),
(350,440,l)
);
}
);
width = 375;
},
{
layerId = "C375229C-5AB5-4F42-B4C5-B05E6279C8CD";
shapes = (
{
attr = {
strokeHeight = 150;
strokePos = "0";
strokeWidth = 160;
};
closed = 0;
nodes = (
(55,0,l),
(55,250,ls),
(55,356,o),
(139,440,o),
(245,440,cs),
(450,440,l)
);
}
);
width = 475;
},
{
layerId = "3EFBB2FF-E525-4F07-A4DB-42752D5683EA";
shapes = (
{
attr = {
strokeHeight = 30;
strokePos = "0";
strokeWidth = 30;
};
closed = 0;
nodes = (
(65,0,l),
(65,250,ls),
(65,356,o),
(149,440,o),
(255,440,cs),
(460,440,l)
);
}
);
width = 495;
},
{
associatedMasterId = m01;
background = {
shapes = (
{
attr = {
strokeHeight = 30;
strokePos = "0";
strokeWidth = 30;
};
closed = 0;
nodes = (
(65,0,l),
(65,420,l),
(270,420,ls),
(322,420,o),
(350,392,o),
(350,340,cs),
(350,270,l)
);
}
);
};
layerId = "BC7CF592-5620-460C-BB52-B97EB56EC9D5";
name = "22 Apr 25 at 20:14";
shapes = (
{
attr = {
strokeHeight = 30;
strokePos = "0";
strokeWidth = 30;
};
closed = 0;
nodes = (
(65,0,l),
(65,250,ls),
(65,356,o),
(149,440,o),
(255,440,cs),
(340,440,l)
);
}
);
width = 395;
}
);
metricLeft = n;
unicode = 114;
},
{
glyphname = s;
kernLeft = s;
kernRight = s;
lastChange = "2025-04-22 17:24:06 +0000";
layers = (
{
layerId = m01;
shapes = (
{
attr = {
identifier = ID0x3050a7720;
strokeHeight = 30;
strokePos = "1";
strokeWidth = 30;
};
closed = 0;
nodes = (
(430,440,l),
(150,440,ls),
(88,440,o),
(40,392,o),
(40,330,cs),
(40,315,ls),
(40,253,o),
(88,205,o),
(150,205,cs),
(247,205,l)
);
},
{
attr = {
identifier = ID0x3050a7720;
strokeHeight = 30;
strokePos = "1";
strokeWidth = 30;
};
closed = 0;
nodes = (
(53,0,l),
(346,0,ls),
(408,0,o),
(456,48,o),
(456,110,cs),
(456,125,ls),
(456,187,o),
(408,235,o),
(346,235,cs),
(247,235,l)
);
}
);
width = 496;
},
{
background = {
guides = (
{
angle = 90;
pos = (346,102);
},
{
angle = 90;
pos = (129,304);
}
);
shapes = (
{
attr = {
identifier = ID0x3050a7720;
strokePos = "1";
};
closed = 1;
nodes = (
(-22,223,o),
(45,165,o),
(130,165,cs),
(346,165,l),
(346,130,l),
(-6,140,l),
(-6,0,l),
(346,0,ls),
(431,0,o),
(498,58,o),
(498,131,cs),
(498,145,ls),
(498,218,o),
(431,275,o),
(346,275,cs),
(129,275,l),
(129,310,l),
(465,300,l),
(465,440,l),
(130,440,ls),
(45,440,o),
(-22,382,o),
(-22,309,cs),
(-22,296,ls)
);
}
);
};
layerId = "410C308F-557C-4D4B-8D78-DF4F3F2F205E";
shapes = (
{
attr = {
identifier = ID0x3050a7720;
strokeHeight = 140;
strokePos = "1";
strokeWidth = 150;
};
closed = 0;
nodes = (
(420,440,l),
(150,440,ls),
(83,440,o),
(30,387,o),
(30,320,cs),
(30,285,ls),
(30,218,o),
(83,165,o),
(150,165,cs),
(237,165,l)
);
},
{
attr = {
identifier = ID0x3050a7720;
strokeHeight = 140;
strokePos = "1";
strokeWidth = 150;
};
closed = 0;
nodes = (
(43,0,l),
(326,0,ls),
(393,0,o),
(446,53,o),
(446,120,cs),
(446,155,ls),
(446,222,o),
(393,275,o),
(326,275,cs),
(237,275,l)
);
}
);
width = 476;
},
{
layerId = "C375229C-5AB5-4F42-B4C5-B05E6279C8CD";
shapes = (
{
attr = {
identifier = ID0x3050a7720;
strokeHeight = 140;
strokePos = "1";
strokeWidth = 150;
};
closed = 0;
nodes = (
(517,440,l),
(150,440,ls),
(72,440,o),
(30,398,o),
(30,320,cs),
(30,285,ls),
(30,207,o),
(72,165,o),
(150,165,cs),
(289,165,l)
);
},
{
attr = {
identifier = ID0x3050a7720;
strokeHeight = 140;
strokePos = "1";
strokeWidth = 150;
};
closed = 0;
nodes = (
(46,0,l),
(430,0,ls),
(508,0,o),
(550,42,o),
(550,120,cs),
(550,155,ls),
(550,233,o),
(508,275,o),
(430,275,cs),
(289,275,l)
);
}
);
width = 580;
},
{
layerId = "3EFBB2FF-E525-4F07-A4DB-42752D5683EA";
shapes = (
{
attr = {
identifier = ID0x3050a7720;
strokeHeight = 30;
strokePos = "1";
strokeWidth = 30;
};
closed = 0;
nodes = (
(527,440,l),
(150,440,ls),
(79,440,o),
(40,401,o),
(40,330,cs),
(40,315,ls),
(40,244,o),
(79,205,o),
(150,205,cs),
(299,205,l)
);
},
{
attr = {
identifier = ID0x3050a7720;
strokeHeight = 30;
strokePos = "1";
strokeWidth = 30;
};
closed = 0;
nodes = (
(56,0,l),
(450,0,ls),
(521,0,o),
(560,39,o),
(560,110,cs),
(560,125,ls),
(560,196,o),
(521,235,o),
(450,235,cs),
(299,235,l)
);
}
);
width = 600;
}
);
metricRight = "=|";
unicode = 115;
},
{
glyphname = t;
kernLeft = l;
kernRight = t;
lastChange = "2025-04-20 12:41:17 +0000";
layers = (
{
layerId = m01;
shapes = (
{
attr = {
strokeHeight = 30;
strokePos = "0";
strokeWidth = 30;
};
closed = 0;
nodes = (
(320,0,l),
(255,0,ls),
(132,0,o),
(65,67,o),
(65,190,cs),
(65,640,l)
);
},
{
attr = {
strokePos = "0";
strokeWidth = 30;
};
closed = 0;
nodes = (
(76,440,l),
(320,440,l)
);
}
);
width = 360;
},
{
layerId = "410C308F-557C-4D4B-8D78-DF4F3F2F205E";
shapes = (
{
attr = {
strokeHeight = 150;
strokePos = "0";
strokeWidth = 160;
};
closed = 0;
nodes = (
(310,0,l),
(245,0,ls),
(122,0,o),
(55,67,o),
(55,190,cs),
(55,640,l)
);
},
{
attr = {
strokePos = 0;
strokeWidth = 150;
};
closed = 0;
nodes = (
(66,440,l),
(310,440,l)
);
}
);
width = 330;
},
{
layerId = "C375229C-5AB5-4F42-B4C5-B05E6279C8CD";
shapes = (
{
attr = {
strokeHeight = 150;
strokePos = "0";
strokeWidth = 160;
};
closed = 0;
nodes = (
(410,0,l),
(245,0,ls),
(122,0,o),
(55,67,o),
(55,190,cs),
(55,640,l)
);
},
{
attr = {
strokePos = 0;
strokeWidth = 150;
};
closed = 0;
nodes = (
(66,440,l),
(410,440,l)
);
}
);
width = 430;
},
{
layerId = "3EFBB2FF-E525-4F07-A4DB-42752D5683EA";
shapes = (
{
attr = {
strokeHeight = 30;
strokePos = "0";
strokeWidth = 30;
};
closed = 0;
nodes = (
(420,0,l),
(255,0,ls),
(132,0,o),
(65,67,o),
(65,190,cs),
(65,640,l)
);
},
{
attr = {
strokePos = "0";
strokeWidth = 30;
};
closed = 0;
nodes = (
(76,440,l),
(420,440,l)
);
}
);
width = 460;
}
);
metricLeft = n;
unicode = 116;
},
{
glyphname = v;
kernLeft = v;
kernRight = v;
lastChange = "2025-04-22 17:26:07 +0000";
layers = (
{
layerId = m01;
shapes = (
{
attr = {
identifier = ID0x303e09a70;
lineCapEnd = "4";
lineCapStart = "4";
strokeWidth = 30;
};
closed = 0;
nodes = (
(77,440,l),
(271,15,l),
(297,15,l),
(491,440,l)
);
}
);
width = 568;
},
{
layerId = "410C308F-557C-4D4B-8D78-DF4F3F2F205E";
shapes = (
{
attr = {
identifier = ID0x303e09a70;
lineCapEnd = "4";
lineCapStart = "4";
strokeWidth = 150;
};
closed = 0;
nodes = (
(124,440,l),
(266,75,l),
(338,75,l),
(480,440,l)
);
}
);
width = 604;
},
{
layerId = "C375229C-5AB5-4F42-B4C5-B05E6279C8CD";
shapes = (
{
attr = {
identifier = ID0x303e09a70;
lineCapEnd = "4";
lineCapStart = "4";
strokeWidth = 150;
};
closed = 0;
nodes = (
(94,440,l),
(266,75,l),
(338,75,l),
(510,440,l)
);
}
);
width = 604;
},
{
layerId = "3EFBB2FF-E525-4F07-A4DB-42752D5683EA";
shapes = (
{
attr = {
identifier = ID0x303e09a70;
lineCapEnd = "4";
lineCapStart = "4";
strokeWidth = 30;
};
closed = 0;
nodes = (
(37,440,l),
(271,15,l),
(297,15,l),
(531,440,l)
);
}
);
width = 568;
}
);
metricRight = "=|";
unicode = 118;
},
{
glyphname = w;
kernLeft = w;
kernRight = w;
lastChange = "2025-04-22 17:18:14 +0000";
layers = (
{
layerId = m01;
shapes = (
{
attr = {
identifier = ID0x303e09a70;
lineCapEnd = "4";
lineCapStart = "4";
strokeWidth = 30;
};
closed = 0;
nodes = (
(56,440,l),
(181,15,l),
(208,15,l),
(334,440,l)
);
},
{
attr = {
identifier = ID0x303e09a70;
lineCapEnd = "4";
lineCapStart = "4";
strokeWidth = 30;
};
closed = 0;
nodes = (
(327,440,l),
(452,15,l),
(481,15,l),
(605,440,l)
);
}
);
width = 661;
},
{
layerId = "410C308F-557C-4D4B-8D78-DF4F3F2F205E";
shapes = (
{
attr = {
identifier = ID0x303e09a70;
lineCapEnd = "4";
lineCapStart = "4";
strokeWidth = 150;
};
closed = 0;
nodes = (
(109,440,l),
(205,75,l),
(245,75,l),
(341,440,l)
);
},
{
attr = {
identifier = ID0x303e09a70;
lineCapEnd = "4";
lineCapStart = "4";
strokeWidth = 150;
};
closed = 0;
nodes = (
(335,440,l),
(431,75,l),
(472,75,l),
(568,440,l)
);
}
);
width = 677;
},
{
layerId = "C375229C-5AB5-4F42-B4C5-B05E6279C8CD";
shapes = (
{
attr = {
identifier = ID0x303e09a70;
lineCapEnd = "4";
lineCapStart = "4";
strokeWidth = 150;
};
closed = 0;
nodes = (
(109,440,l),
(217,75,l),
(262,75,l),
(371,440,l)
);
},
{
attr = {
identifier = ID0x303e09a70;
lineCapEnd = "4";
lineCapStart = "4";
strokeWidth = 150;
};
closed = 0;
nodes = (
(364,440,l),
(472,75,l),
(518,75,l),
(626,440,l)
);
}
);
width = 735;
},
{
layerId = "3EFBB2FF-E525-4F07-A4DB-42752D5683EA";
shapes = (
{
attr = {
identifier = ID0x303e09a70;
lineCapEnd = "4";
lineCapStart = "4";
strokeWidth = 30;
};
closed = 0;
nodes = (
(56,440,l),
(195,15,l),
(229,15,l),
(369,440,l)
);
},
{
attr = {
identifier = ID0x303e09a70;
lineCapEnd = "4";
lineCapStart = "4";
strokeWidth = 30;
};
closed = 0;
nodes = (
(361,440,l),
(501,15,l),
(536,15,l),
(674,440,l)
);
}
);
width = 730;
}
);
metricRight = "=|";
unicode = 119;
},
{
glyphname = x;
kernLeft = u;
kernRight = l;
lastChange = "2025-04-22 16:56:44 +0000";
layers = (
{
layerId = m01;
shapes = (
{
attr = {
lineCapEnd = "4";
lineCapStart = "4";
strokeWidth = 30;
};
closed = 0;
nodes = (
(349,440,l),
(218,220,l),
(349,0,l)
);
},
{
attr = {
strokeWidth = 30;
};
closed = 0;
nodes = (
(213,220,l),
(173,220,l)
);
},
{
attr = {
lineCapEnd = "4";
lineCapStart = "4";
strokeWidth = 30;
};
closed = 0;
nodes = (
(37,440,l),
(168,220,l),
(37,0,l)
);
}
);
width = 386;
},
{
layerId = "410C308F-557C-4D4B-8D78-DF4F3F2F205E";
shapes = (
{
attr = {
lineCapEnd = "4";
lineCapStart = "4";
strokeWidth = 150;
};
closed = 0;
nodes = (
(443,440,l),
(312,220,l),
(443,0,l)
);
},
{
attr = {
strokeWidth = 150;
};
closed = 0;
nodes = (
(310,220,l),
(230,220,l)
);
},
{
attr = {
lineCapEnd = "4";
lineCapStart = "4";
strokeWidth = 150;
};
closed = 0;
nodes = (
(97,440,l),
(228,220,l),
(97,0,l)
);
}
);
width = 540;
},
{
layerId = "C375229C-5AB5-4F42-B4C5-B05E6279C8CD";
shapes = (
{
attr = {
lineCapEnd = "4";
lineCapStart = "4";
strokeWidth = 150;
};
closed = 0;
nodes = (
(469,440,l),
(338,220,l),
(469,0,l)
);
},
{
attr = {
strokeWidth = 150;
};
closed = 0;
nodes = (
(336,220,l),
(230,220,l)
);
},
{
attr = {
lineCapEnd = "4";
lineCapStart = "4";
strokeWidth = 150;
};
closed = 0;
nodes = (
(97,440,l),
(228,220,l),
(97,0,l)
);
}
);
width = 566;
},
{
layerId = "3EFBB2FF-E525-4F07-A4DB-42752D5683EA";
shapes = (
{
attr = {
lineCapEnd = "4";
lineCapStart = "4";
strokeWidth = 30;
};
closed = 0;
nodes = (
(549,440,l),
(418,220,l),
(549,0,l)
);
},
{
attr = {
strokeWidth = 30;
};
closed = 0;
nodes = (
(413,220,l),
(173,220,l)
);
},
{
attr = {
lineCapEnd = "4";
lineCapStart = "4";
strokeWidth = 30;
};
closed = 0;
nodes = (
(37,440,l),
(168,220,l),
(37,0,l)
);
}
);
width = 586;
}
);
metricRight = "=|";
unicode = 120;
},
{
glyphname = y;
lastChange = "2025-04-22 16:43:26 +0000";
layers = (
{
layerId = m01;
shapes = (
{
attr = {
strokeHeight = 30;
strokePos = "0";
strokeWidth = 30;
};
closed = 0;
nodes = (
(465,440,l),
(465,-10,ls),
(465,-133,o),
(398,-200,o),
(275,-200,cs),
(89,-200,l)
);
},
{
attr = {
identifier = ID0x313c96120;
strokeHeight = 30;
strokePos = "1";
strokeWidth = 30;
};
closed = 0;
nodes = (
(65,440,l),
(65,190,ls),
(65,67,o),
(132,0,o),
(255,0,cs),
(455,0,l)
);
}
);
width = 530;
},
{
layerId = "410C308F-557C-4D4B-8D78-DF4F3F2F205E";
shapes = (
{
attr = {
strokeHeight = 150;
strokePos = "0";
strokeWidth = 160;
};
closed = 0;
nodes = (
(455,440,l),
(455,-10,ls),
(455,-133,o),
(388,-200,o),
(265,-200,cs),
(89,-200,l)
);
},
{
attr = {
identifier = ID0x313c96120;
strokeHeight = 150;
strokePos = "1";
strokeWidth = 160;
};
closed = 0;
nodes = (
(55,440,l),
(55,190,ls),
(55,67,o),
(122,0,o),
(245,0,cs),
(445,0,l)
);
}
);
width = 510;
},
{
layerId = "C375229C-5AB5-4F42-B4C5-B05E6279C8CD";
shapes = (
{
attr = {
strokeHeight = 150;
strokePos = "0";
strokeWidth = 160;
};
closed = 0;
nodes = (
(555,440,l),
(555,-10,ls),
(555,-133,o),
(488,-200,o),
(365,-200,cs),
(169,-200,l)
);
},
{
attr = {
identifier = ID0x313c96120;
strokeHeight = 150;
strokePos = "1";
strokeWidth = 160;
};
closed = 0;
nodes = (
(55,440,l),
(55,190,ls),
(55,67,o),
(122,0,o),
(245,0,cs),
(545,0,l)
);
}
);
width = 610;
},
{
layerId = "3EFBB2FF-E525-4F07-A4DB-42752D5683EA";
shapes = (
{
attr = {
strokeHeight = 30;
strokePos = "0";
strokeWidth = 30;
};
closed = 0;
nodes = (
(565,440,l),
(565,-10,ls),
(565,-133,o),
(498,-200,o),
(375,-200,cs),
(179,-200,l)
);
},
{
attr = {
identifier = ID0x313c96120;
strokeHeight = 30;
strokePos = "1";
strokeWidth = 30;
};
closed = 0;
nodes = (
(65,440,l),
(65,190,ls),
(65,67,o),
(132,0,o),
(255,0,cs),
(555,0,l)
);
}
);
width = 630;
}
);
metricLeft = n;
metricRight = "=|";
unicode = 121;
},
{
glyphname = z;
kernLeft = z;
kernRight = z;
lastChange = "2025-04-20 12:42:54 +0000";
layers = (
{
background = {
shapes = (
{
ref = o;
}
);
};
layerId = m01;
shapes = (
{
attr = {
strokeWidth = 30;
};
closed = 0;
nodes = (
(50,425,l),
(441,425,l),
(441,381,l),
(62,58,l),
(62,15,l),
(452,15,l)
);
}
);
width = 503;
},
{
background = {
shapes = (
{
ref = o;
}
);
};
layerId = "410C308F-557C-4D4B-8D78-DF4F3F2F205E";
shapes = (
{
attr = {
strokeHeight = 150;
strokeWidth = 70;
};
closed = 0;
nodes = (
(40,365,l),
(413,365,l),
(413,334,l),
(70,105,l),
(70,75,l),
(443,75,l)
);
}
);
width = 483;
},
{
layerId = "C375229C-5AB5-4F42-B4C5-B05E6279C8CD";
shapes = (
{
attr = {
strokeWidth = 150;
};
closed = 0;
nodes = (
(40,365,l),
(480,365,l),
(480,334,l),
(115,105,l),
(115,75,l),
(555,75,l)
);
}
);
width = 595;
},
{
layerId = "3EFBB2FF-E525-4F07-A4DB-42752D5683EA";
shapes = (
{
attr = {
strokeWidth = 30;
};
closed = 0;
nodes = (
(50,425,l),
(550,425,l),
(550,381,l),
(65,58,l),
(65,15,l),
(565,15,l)
);
}
);
width = 615;
}
);
metricRight = "=|";
unicode = 122;
},
{
glyphname = "hamza-ar";
lastChange = "2025-04-25 13:27:20 +0000";
layers = (
{
anchors = (
{
name = bottom;
pos = (236,0);
},
{
name = top;
pos = (236,330);
}
);
layerId = m01;
shapes = (
{
attr = {
identifier = ID0x12cbfe300;
strokePos = 1;
};
closed = 1;
nodes = (
(60,30,l),
(60,0,l),
(382,0,l),
(382,30,l)
);
},
{
attr = {
strokePos = "1";
};
closed = 1;
nodes = (
(151,134,ls),
(151,229,o),
(200,278,o),
(295,278,cs),
(358,278,l),
(358,308,l),
(295,308,ls),
(183,308,o),
(121,246,o),
(121,134,cs),
(121,10,l),
(151,10,l)
);
}
);
width = 472;
},
{
anchors = (
{
name = bottom;
pos = (236,0);
},
{
name = top;
pos = (236,330);
}
);
layerId = "410C308F-557C-4D4B-8D78-DF4F3F2F205E";
shapes = (
{
attr = {
identifier = ID0x12cbfe300;
strokePos = 1;
};
closed = 1;
nodes = (
(60,140,l),
(60,0,l),
(382,0,l),
(382,140,l)
);
},
{
attr = {
strokePos = "1";
};
closed = 1;
nodes = (
(261,154,ls),
(261,188,o),
(261,188,o),
(295,188,cs),
(358,188,l),
(358,328,l),
(295,328,ls),
(183,328,o),
(121,266,o),
(121,154,cs),
(121,10,l),
(261,10,l)
);
}
);
width = 472;
},
{
anchors = (
{
name = bottom;
pos = (286,0);
},
{
name = top;
pos = (286,330);
}
);
layerId = "C375229C-5AB5-4F42-B4C5-B05E6279C8CD";
shapes = (
{
attr = {
identifier = ID0x12cbfe300;
strokePos = 1;
};
closed = 1;
nodes = (
(60,140,l),
(60,0,l),
(462,0,l),
(462,140,l)
);
},
{
attr = {
strokePos = "1";
};
closed = 1;
nodes = (
(261,154,ls),
(261,188,o),
(261,188,o),
(295,188,cs),
(438,188,l),
(438,328,l),
(295,328,ls),
(183,328,o),
(121,266,o),
(121,154,cs),
(121,10,l),
(261,10,l)
);
}
);
width = 522;
},
{
anchors = (
{
name = bottom;
pos = (286,0);
},
{
name = top;
pos = (286,330);
}
);
layerId = "3EFBB2FF-E525-4F07-A4DB-42752D5683EA";
shapes = (
{
attr = {
identifier = ID0x12cbfe300;
strokePos = 1;
};
closed = 1;
nodes = (
(60,30,l),
(60,0,l),
(462,0,l),
(462,30,l)
);
},
{
attr = {
strokePos = "1";
};
closed = 1;
nodes = (
(151,134,ls),
(151,229,o),
(200,278,o),
(295,278,cs),
(438,278,l),
(438,308,l),
(295,308,ls),
(183,308,o),
(121,246,o),
(121,134,cs),
(121,10,l),
(151,10,l)
);
}
);
width = 472;
}
);
unicode = 1569;
},
{
color = 3;
glyphname = "alef-ar";
lastChange = "2025-04-25 13:06:10 +0000";
layers = (
{
anchors = (
{
name = bottom;
pos = (95,0);
},
{
name = top;
pos = (95,640);
}
);
layerId = m01;
shapes = (
{
closed = 1;
nodes = (
(110,640,l),
(80,640,l),
(80,0,l),
(110,0,l)
);
}
);
width = 190;
},
{
anchors = (
{
name = bottom;
pos = (145,0);
},
{
name = top;
pos = (145,640);
}
);
layerId = "410C308F-557C-4D4B-8D78-DF4F3F2F205E";
shapes = (
{
closed = 1;
nodes = (
(230,640,l),
(60,640,l),
(60,0,l),
(230,0,l)
);
}
);
width = 290;
},
{
anchors = (
{
name = bottom;
pos = (155,0);
},
{
name = top;
pos = (155,640);
}
);
layerId = "C375229C-5AB5-4F42-B4C5-B05E6279C8CD";
shapes = (
{
closed = 1;
nodes = (
(240,640,l),
(70,640,l),
(70,0,l),
(240,0,l)
);
}
);
width = 310;
},
{
anchors = (
{
name = bottom;
pos = (95,0);
},
{
name = top;
pos = (95,640);
}
);
layerId = "3EFBB2FF-E525-4F07-A4DB-42752D5683EA";
shapes = (
{
closed = 1;
nodes = (
(110,640,l),
(80,640,l),
(80,0,l),
(110,0,l)
);
}
);
width = 190;
}
);
unicode = 1575;
},
{
glyphname = "alef-ar.fina";
lastChange = "2025-04-25 13:06:14 +0000";
layers = (
{
anchors = (
{
name = bottom;
pos = (96,0);
},
{
name = top;
pos = (96,640);
}
);
layerId = m01;
shapes = (
{
attr = {
strokePos = "0";
};
closed = 1;
nodes = (
(80,80,l),
(80,29,o),
(109,0,o),
(160,0,c),
(220,0,l),
(220,30,l),
(160,30,l),
(126,30,o),
(110,46,o),
(110,80,c),
(110,640,l),
(80,640,l)
);
}
);
width = 220;
},
{
anchors = (
{
name = bottom;
pos = (147,0);
},
{
name = top;
pos = (147,640);
}
);
layerId = "410C308F-557C-4D4B-8D78-DF4F3F2F205E";
shapes = (
{
attr = {
strokePos = "0";
};
closed = 1;
nodes = (
(60,80,l),
(60,29,o),
(89,0,o),
(140,0,c),
(290,0,l),
(290,170,l),
(140,170,l),
(159,170,o),
(230,99,o),
(230,80,c),
(230,640,l),
(60,640,l)
);
}
);
width = 290;
},
{
anchors = (
{
name = bottom;
pos = (156,0);
},
{
name = top;
pos = (155,640);
}
);
layerId = "C375229C-5AB5-4F42-B4C5-B05E6279C8CD";
shapes = (
{
attr = {
strokePos = "0";
};
closed = 1;
nodes = (
(70,80,l),
(70,29,o),
(99,0,o),
(150,0,c),
(310,0,l),
(310,170,l),
(150,170,l),
(169,170,o),
(240,99,o),
(240,80,c),
(240,640,l),
(70,640,l)
);
}
);
width = 310;
},
{
anchors = (
{
name = bottom;
pos = (96,0);
},
{
name = top;
pos = (96,640);
}
);
layerId = "3EFBB2FF-E525-4F07-A4DB-42752D5683EA";
shapes = (
{
attr = {
strokePos = "0";
};
closed = 1;
nodes = (
(80,80,l),
(80,29,o),
(109,0,o),
(160,0,c),
(220,0,l),
(220,30,l),
(160,30,l),
(126,30,o),
(110,46,o),
(110,80,c),
(110,640,l),
(80,640,l)
);
}
);
width = 220;
}
);
metricLeft = "alef-ar";
metricRight = "kashida-ar";
},
{
glyphname = "behDotless-ar";
lastChange = "2025-04-25 13:06:18 +0000";
layers = (
{
anchors = (
{
name = bottom;
pos = (327,0);
},
{
name = ring;
pos = (329,0);
},
{
name = top;
pos = (327,380);
}
);
background = {
shapes = (
{
pos = (-83,0);
ref = "tah-ar";
}
);
};
layerId = m01;
shapes = (
{
attr = {
strokePos = "0";
};
closed = 1;
nodes = (
(80,80,l),
(80,29,o),
(109,0,o),
(160,0,c),
(505,0,l),
(556,0,o),
(585,29,o),
(585,80,c),
(585,360,l),
(555,360,l),
(555,80,l),
(555,46,o),
(539,30,o),
(505,30,c),
(160,30,l),
(126,30,o),
(110,46,o),
(110,80,c),
(110,360,l),
(80,360,l)
);
}
);
width = 665;
},
{
anchors = (
{
name = bottom;
pos = (348,0);
},
{
name = ring;
pos = (348,0);
},
{
name = top;
pos = (348,440);
}
);
background = {
shapes = (
{
pos = (-43,0);
ref = "tah-ar";
}
);
};
layerId = "410C308F-557C-4D4B-8D78-DF4F3F2F205E";
shapes = (
{
attr = {
strokePos = "0";
};
closed = 1;
nodes = (
(60,80,l),
(60,29,o),
(89,0,o),
(140,0,c),
(555,0,l),
(606,0,o),
(635,29,o),
(635,80,c),
(635,390,l),
(465,390,l),
(465,80,l),
(465,99,o),
(536,170,o),
(555,170,c),
(140,170,l),
(159,170,o),
(230,99,o),
(230,80,c),
(230,390,l),
(60,390,l)
);
}
);
width = 695;
},
{
anchors = (
{
name = bottom;
pos = (427,0);
},
{
name = ring;
pos = (427,0);
},
{
name = top;
pos = (427,440);
}
);
background = {
shapes = (
{
pos = (-44,0);
ref = "tah-ar";
}
);
};
layerId = "C375229C-5AB5-4F42-B4C5-B05E6279C8CD";
shapes = (
{
attr = {
strokePos = "0";
};
closed = 1;
nodes = (
(70,80,l),
(70,29,o),
(99,0,o),
(150,0,c),
(724,0,l),
(775,0,o),
(804,29,o),
(804,80,c),
(804,390,l),
(634,390,l),
(634,80,l),
(634,99,o),
(705,170,o),
(724,170,c),
(150,170,l),
(169,170,o),
(240,99,o),
(240,80,c),
(240,390,l),
(70,390,l)
);
}
);
width = 874;
},
{
anchors = (
{
name = bottom;
pos = (356,0);
},
{
name = ring;
pos = (358,0);
},
{
name = top;
pos = (356,380);
}
);
background = {
shapes = (
{
pos = (-84,0);
ref = "tah-ar";
}
);
};
layerId = "3EFBB2FF-E525-4F07-A4DB-42752D5683EA";
shapes = (
{
attr = {
strokePos = "0";
};
closed = 1;
nodes = (
(80,80,l),
(80,29,o),
(109,0,o),
(160,0,c),
(664,0,l),
(715,0,o),
(744,29,o),
(744,80,c),
(744,360,l),
(714,360,l),
(714,80,l),
(714,46,o),
(698,30,o),
(664,30,c),
(160,30,l),
(126,30,o),
(110,46,o),
(110,80,c),
(110,360,l),
(80,360,l)
);
}
);
width = 824;
}
);
metricLeft = "alef-ar";
metricRight = "alef-ar";
unicode = 1646;
},
{
glyphname = "behDotless-ar.fina";
lastChange = "2025-04-25 13:41:10 +0000";
layers = (
{
anchors = (
{
name = bottom;
pos = (327,0);
},
{
name = ring;
pos = (329,0);
},
{
name = top;
pos = (327,380);
}
);
layerId = m01;
shapes = (
{
attr = {
identifier = ID0x1216465f0;
strokePos = "0";
};
closed = 1;
nodes = (
(80,80,ls),
(80,29,o),
(109,0,o),
(160,0,cs),
(445,0,l),
(445,30,l),
(160,30,ls),
(126,30,o),
(110,46,o),
(110,80,cs),
(110,360,l),
(80,360,l)
);
},
{
pos = (445,0);
ref = "behDotless-ar.medi";
}
);
width = 695;
},
{
anchors = (
{
name = bottom;
pos = (348,0);
},
{
name = ring;
pos = (348,0);
},
{
name = top;
pos = (348,440);
}
);
layerId = "410C308F-557C-4D4B-8D78-DF4F3F2F205E";
shapes = (
{
attr = {
identifier = ID0x1216642b0;
strokePos = "0";
};
closed = 1;
nodes = (
(60,80,l),
(60,29,o),
(89,0,o),
(140,0,c),
(405,0,l),
(405,170,l),
(140,170,l),
(159,170,o),
(230,99,o),
(230,80,c),
(230,390,l),
(60,390,l)
);
},
{
pos = (405,0);
ref = "behDotless-ar.medi";
}
);
width = 695;
},
{
anchors = (
{
name = bottom;
pos = (427,0);
},
{
name = ring;
pos = (427,0);
},
{
name = top;
pos = (427,440);
}
);
layerId = "C375229C-5AB5-4F42-B4C5-B05E6279C8CD";
shapes = (
{
attr = {
identifier = ID0x1216642b0;
strokePos = "0";
};
closed = 1;
nodes = (
(70,80,l),
(70,29,o),
(99,0,o),
(150,0,c),
(564,0,l),
(564,170,l),
(150,170,l),
(169,170,o),
(240,99,o),
(240,80,c),
(240,390,l),
(70,390,l)
);
},
{
pos = (564,0);
ref = "behDotless-ar.medi";
}
);
width = 874;
},
{
anchors = (
{
name = bottom;
pos = (416,0);
},
{
name = ring;
pos = (416,0);
},
{
name = top;
pos = (416,380);
}
);
layerId = "3EFBB2FF-E525-4F07-A4DB-42752D5683EA";
shapes = (
{
attr = {
identifier = ID0x1216465f0;
strokePos = "0";
};
closed = 1;
nodes = (
(80,80,ls),
(80,29,o),
(109,0,o),
(160,0,cs),
(604,0,l),
(604,30,l),
(160,30,ls),
(126,30,o),
(110,46,o),
(110,80,cs),
(110,360,l),
(80,360,l)
);
},
{
pos = (604,0);
ref = "behDotless-ar.medi";
}
);
width = 854;
}
);
metricLeft = "alef-ar";
metricRight = "kashida-ar";
},
{
glyphname = "behDotless-ar.medi";
lastChange = "2025-04-25 13:33:46 +0000";
layers = (
{
anchors = (
{
name = bottom;
pos = (63,0);
},
{
name = ring;
pos = (63,0);
},
{
name = top;
pos = (126,360);
}
);
layerId = m01;
shapes = (
{
attr = {
strokePos = 1;
};
closed = 1;
nodes = (
(0,30,ls),
(-8,30,o),
(-15,23,o),
(-15,15,cs),
(-15,7,o),
(-8,0,o),
(0,0,cs),
(250,0,l),
(250,30,l)
);
},
{
attr = {
identifier = ID0x114a33b60;
strokePos = "0";
};
closed = 1;
nodes = (
(140,10,l),
(140,360,l),
(110,360,l),
(110,10,l)
);
}
);
width = 250;
},
{
anchors = (
{
name = bottom;
pos = (73,0);
},
{
name = ring;
pos = (153,0);
},
{
name = top;
pos = (150,390);
}
);
layerId = "410C308F-557C-4D4B-8D78-DF4F3F2F205E";
shapes = (
{
attr = {
strokePos = 1;
};
closed = 1;
nodes = (
(0,170,l),
(-47,170,o),
(-85,132,o),
(-85,85,c),
(-85,38,o),
(-47,0,o),
(0,0,c),
(290,0,l),
(290,170,l)
);
},
{
attr = {
identifier = ID0x114a48d80;
strokePos = "0";
};
closed = 1;
nodes = (
(230,10,l),
(230,390,l),
(60,390,l),
(60,10,l)
);
}
);
width = 290;
},
{
anchors = (
{
name = bottom;
pos = (83,0);
},
{
name = ring;
pos = (163,0);
},
{
name = top;
pos = (160,390);
}
);
layerId = "C375229C-5AB5-4F42-B4C5-B05E6279C8CD";
shapes = (
{
attr = {
strokePos = 1;
};
closed = 1;
nodes = (
(0,170,l),
(-47,170,o),
(-85,132,o),
(-85,85,c),
(-85,38,o),
(-47,0,o),
(0,0,c),
(310,0,l),
(310,170,l)
);
},
{
attr = {
identifier = ID0x114a56020;
strokePos = "0";
};
closed = 1;
nodes = (
(240,10,l),
(240,390,l),
(70,390,l),
(70,10,l)
);
}
);
width = 310;
},
{
anchors = (
{
name = bottom;
pos = (63,0);
},
{
name = ring;
pos = (63,0);
},
{
name = top;
pos = (126,380);
}
);
layerId = "3EFBB2FF-E525-4F07-A4DB-42752D5683EA";
shapes = (
{
attr = {
strokePos = 1;
};
closed = 1;
nodes = (
(0,30,l),
(-8,30,o),
(-15,23,o),
(-15,15,c),
(-15,7,o),
(-8,0,o),
(0,0,c),
(250,0,l),
(250,30,l)
);
},
{
attr = {
identifier = ID0x114a7fa50;
strokePos = "0";
};
closed = 1;
nodes = (
(140,10,l),
(140,360,l),
(110,360,l),
(110,10,l)
);
}
);
width = 250;
}
);
metricLeft = "kashida-ar";
metricRight = "kashida-ar";
},
{
glyphname = "behDotless-ar.init";
lastChange = "2025-04-25 13:34:17 +0000";
layers = (
{
anchors = (
{
name = bottom;
pos = (63,0);
},
{
name = ring;
pos = (63,0);
},
{
name = top;
pos = (126,360);
}
);
layerId = m01;
shapes = (
{
attr = {
strokePos = "0";
};
closed = 1;
nodes = (
(60,0,l),
(111,0,o),
(140,29,o),
(140,80,c),
(140,360,l),
(110,360,l),
(110,80,l),
(110,46,o),
(94,30,o),
(60,30,c),
(0,30,l),
(-8,30,o),
(-15,23,o),
(-15,15,c),
(-15,7,o),
(-8,0,o),
(0,0,c)
);
}
);
width = 220;
},
{
anchors = (
{
name = bottom;
pos = (73,0);
},
{
name = ring;
pos = (153,0);
},
{
name = top;
pos = (150,390);
}
);
layerId = "410C308F-557C-4D4B-8D78-DF4F3F2F205E";
shapes = (
{
attr = {
strokePos = "0";
};
closed = 1;
nodes = (
(150,0,l),
(201,0,o),
(230,29,o),
(230,80,c),
(230,390,l),
(60,390,l),
(60,80,l),
(60,99,o),
(131,170,o),
(150,170,c),
(0,170,l),
(-48,170,o),
(-85,132,o),
(-85,85,c),
(-85,38,o),
(-48,0,o),
(0,0,c)
);
}
);
width = 290;
},
{
anchors = (
{
name = bottom;
pos = (83,0);
},
{
name = ring;
pos = (163,0);
},
{
name = top;
pos = (160,390);
}
);
layerId = "C375229C-5AB5-4F42-B4C5-B05E6279C8CD";
shapes = (
{
attr = {
strokePos = "0";
};
closed = 1;
nodes = (
(160,0,l),
(211,0,o),
(240,29,o),
(240,80,c),
(240,390,l),
(70,390,l),
(70,80,l),
(70,99,o),
(141,170,o),
(160,170,c),
(0,170,l),
(-48,170,o),
(-85,132,o),
(-85,85,c),
(-85,38,o),
(-48,0,o),
(0,0,c)
);
}
);
width = 310;
},
{
anchors = (
{
name = bottom;
pos = (63,0);
},
{
name = ring;
pos = (63,0);
},
{
name = top;
pos = (126,380);
}
);
layerId = "3EFBB2FF-E525-4F07-A4DB-42752D5683EA";
shapes = (
{
attr = {
strokePos = "0";
};
closed = 1;
nodes = (
(60,0,l),
(111,0,o),
(140,29,o),
(140,80,c),
(140,360,l),
(110,360,l),
(110,80,l),
(110,46,o),
(94,30,o),
(60,30,c),
(0,30,l),
(-8,30,o),
(-15,23,o),
(-15,15,c),
(-15,7,o),
(-8,0,o),
(0,0,c)
);
}
);
width = 220;
}
);
metricLeft = "kashida-ar";
metricRight = "alef-ar";
},
{
glyphname = "hah-ar";
lastChange = "2025-04-25 13:06:39 +0000";
layers = (
{
anchors = (
{
name = bottom;
pos = (317,-240);
},
{
name = center;
pos = (317,-106);
},
{
name = top;
pos = (317,440);
}
);
layerId = m01;
shapes = (
{
closed = 1;
nodes = (
(227,-210,l),
(161,-210,o),
(110,-164,o),
(110,-105,c),
(110,-46,o),
(161,0,o),
(227,0,c),
(227,30,l),
(145,30,o),
(80,-28,o),
(80,-105,c),
(80,-182,o),
(145,-240,o),
(227,-240,c),
(498,-240,l),
(498,-210,l)
);
},
{
attr = {
strokePos = "1";
};
closed = 1;
nodes = (
(378,390,l),
(468,390,o),
(538,320,o),
(538,230,c),
(538,80,l),
(538,46,o),
(522,30,o),
(488,30,c),
(227,30,l),
(219,30,o),
(212,23,o),
(212,15,c),
(212,7,o),
(219,0,o),
(227,0,c),
(488,0,l),
(539,0,o),
(568,29,o),
(568,80,c),
(568,230,l),
(568,336,o),
(484,420,o),
(378,420,c),
(165,420,l),
(165,390,l)
);
}
);
width = 648;
},
{
anchors = (
{
name = bottom;
pos = (357,-240);
},
{
name = center;
pos = (357,-33);
},
{
name = top;
pos = (357,440);
}
);
layerId = "410C308F-557C-4D4B-8D78-DF4F3F2F205E";
shapes = (
{
closed = 1;
nodes = (
(277,-70,l),
(248,-70,o),
(230,-54,o),
(230,-35,c),
(230,-16,o),
(248,0,o),
(277,0,c),
(277,170,l),
(156,170,o),
(60,80,o),
(60,-35,c),
(60,-150,o),
(156,-240,o),
(277,-240,c),
(538,-240,l),
(538,-70,l)
);
},
{
attr = {
strokePos = "1";
};
closed = 1;
nodes = (
(418,270,l),
(430,270,o),
(438,262,o),
(438,250,c),
(438,80,l),
(438,99,o),
(509,170,o),
(528,170,c),
(277,170,l),
(230,170,o),
(192,132,o),
(192,85,c),
(192,38,o),
(230,0,o),
(277,0,c),
(528,0,l),
(579,0,o),
(608,29,o),
(608,80,c),
(608,250,l),
(608,356,o),
(524,440,o),
(418,440,c),
(205,440,l),
(205,270,l)
);
}
);
width = 668;
},
{
anchors = (
{
name = bottom;
pos = (434,-240);
},
{
name = center;
pos = (435,-37);
},
{
name = top;
pos = (434,440);
}
);
layerId = "C375229C-5AB5-4F42-B4C5-B05E6279C8CD";
shapes = (
{
closed = 1;
nodes = (
(287,-70,l),
(258,-70,o),
(240,-54,o),
(240,-35,c),
(240,-16,o),
(258,0,o),
(287,0,c),
(287,170,l),
(166,170,o),
(70,80,o),
(70,-35,c),
(70,-150,o),
(166,-240,o),
(287,-240,c),
(608,-240,l),
(608,-70,l)
);
},
{
attr = {
strokePos = "1";
};
closed = 1;
nodes = (
(588,270,l),
(600,270,o),
(608,262,o),
(608,250,c),
(608,80,l),
(608,99,o),
(679,170,o),
(698,170,c),
(287,170,l),
(240,170,o),
(202,132,o),
(202,85,c),
(202,38,o),
(240,0,o),
(287,0,c),
(698,0,l),
(749,0,o),
(778,29,o),
(778,80,c),
(778,250,l),
(778,356,o),
(694,440,o),
(588,440,c),
(215,440,l),
(215,270,l)
);
}
);
width = 848;
},
{
anchors = (
{
name = bottom;
pos = (387,-240);
},
{
name = center;
pos = (387,-106);
},
{
name = top;
pos = (387,440);
}
);
layerId = "3EFBB2FF-E525-4F07-A4DB-42752D5683EA";
shapes = (
{
closed = 1;
nodes = (
(227,-210,l),
(161,-210,o),
(110,-164,o),
(110,-105,c),
(110,-46,o),
(161,0,o),
(227,0,c),
(227,30,l),
(145,30,o),
(80,-28,o),
(80,-105,c),
(80,-182,o),
(145,-240,o),
(227,-240,c),
(628,-240,l),
(628,-210,l)
);
},
{
attr = {
strokePos = "1";
};
closed = 1;
nodes = (
(538,390,l),
(628,390,o),
(698,320,o),
(698,230,c),
(698,80,l),
(698,46,o),
(682,30,o),
(648,30,c),
(227,30,l),
(219,30,o),
(212,23,o),
(212,15,c),
(212,7,o),
(219,0,o),
(227,0,c),
(648,0,l),
(699,0,o),
(728,29,o),
(728,80,c),
(728,230,l),
(728,336,o),
(644,420,o),
(538,420,c),
(165,420,l),
(165,390,l)
);
}
);
width = 808;
}
);
metricLeft = "alef-ar";
metricRight = "alef-ar";
unicode = 1581;
},
{
glyphname = "hah-ar.alt";
lastChange = "2025-04-25 13:06:42 +0000";
layers = (
{
anchors = (
{
name = bottom;
pos = (317,-240);
},
{
name = center;
pos = (337,-106);
},
{
name = top;
pos = (317,440);
}
);
layerId = m01;
shapes = (
{
closed = 1;
nodes = (
(227,-210,l),
(161,-210,o),
(110,-164,o),
(110,-105,c),
(110,-46,o),
(161,0,o),
(227,0,c),
(227,30,l),
(145,30,o),
(80,-28,o),
(80,-105,c),
(80,-182,o),
(145,-240,o),
(227,-240,c),
(498,-240,l),
(498,-210,l)
);
},
{
attr = {
strokePos = "1";
};
closed = 1;
nodes = (
(378,390,l),
(468,390,o),
(538,320,o),
(538,230,c),
(538,80,l),
(538,46,o),
(522,30,o),
(488,30,c),
(227,30,l),
(219,30,o),
(212,23,o),
(212,15,c),
(212,7,o),
(219,0,o),
(227,0,c),
(488,0,l),
(539,0,o),
(568,29,o),
(568,80,c),
(568,230,l),
(568,336,o),
(484,420,o),
(378,420,c),
(165,420,l),
(165,390,l)
);
}
);
width = 648;
},
{
anchors = (
{
name = bottom;
pos = (357,-240);
},
{
name = center;
pos = (490,-149);
},
{
name = top;
pos = (357,440);
}
);
layerId = "410C308F-557C-4D4B-8D78-DF4F3F2F205E";
shapes = (
{
closed = 1;
nodes = (
(277,-70,l),
(248,-70,o),
(230,-54,o),
(230,-35,c),
(230,-16,o),
(248,0,o),
(277,0,c),
(277,170,l),
(156,170,o),
(60,80,o),
(60,-35,c),
(60,-150,o),
(156,-240,o),
(277,-240,c),
(348,-240,l),
(348,-70,l)
);
},
{
attr = {
strokePos = "1";
};
closed = 1;
nodes = (
(418,270,l),
(430,270,o),
(438,262,o),
(438,250,c),
(438,80,l),
(438,99,o),
(509,170,o),
(528,170,c),
(277,170,l),
(230,170,o),
(192,132,o),
(192,85,c),
(192,38,o),
(230,0,o),
(277,0,c),
(528,0,l),
(579,0,o),
(608,29,o),
(608,80,c),
(608,250,l),
(608,356,o),
(524,440,o),
(418,440,c),
(205,440,l),
(205,270,l)
);
}
);
width = 668;
},
{
anchors = (
{
name = bottom;
pos = (434,-240);
},
{
name = center;
pos = (593,-149);
},
{
name = top;
pos = (434,440);
}
);
layerId = "C375229C-5AB5-4F42-B4C5-B05E6279C8CD";
shapes = (
{
closed = 1;
nodes = (
(287,-70,l),
(258,-70,o),
(240,-54,o),
(240,-35,c),
(240,-16,o),
(258,0,o),
(287,0,c),
(287,170,l),
(166,170,o),
(70,80,o),
(70,-35,c),
(70,-150,o),
(166,-240,o),
(287,-240,c),
(428,-240,l),
(428,-70,l)
);
},
{
attr = {
strokePos = "1";
};
closed = 1;
nodes = (
(588,270,l),
(600,270,o),
(608,262,o),
(608,250,c),
(608,80,l),
(608,99,o),
(679,170,o),
(698,170,c),
(287,170,l),
(240,170,o),
(202,132,o),
(202,85,c),
(202,38,o),
(240,0,o),
(287,0,c),
(698,0,l),
(749,0,o),
(778,29,o),
(778,80,c),
(778,250,l),
(778,356,o),
(694,440,o),
(588,440,c),
(215,440,l),
(215,270,l)
);
}
);
width = 848;
},
{
anchors = (
{
name = bottom;
pos = (387,-240);
},
{
name = center;
pos = (407,-106);
},
{
name = top;
pos = (387,440);
}
);
layerId = "3EFBB2FF-E525-4F07-A4DB-42752D5683EA";
shapes = (
{
closed = 1;
nodes = (
(227,-210,l),
(161,-210,o),
(110,-164,o),
(110,-105,c),
(110,-46,o),
(161,0,o),
(227,0,c),
(227,30,l),
(145,30,o),
(80,-28,o),
(80,-105,c),
(80,-182,o),
(145,-240,o),
(227,-240,c),
(628,-240,l),
(628,-210,l)
);
},
{
attr = {
strokePos = "1";
};
closed = 1;
nodes = (
(538,390,l),
(628,390,o),
(698,320,o),
(698,230,c),
(698,80,l),
(698,46,o),
(682,30,o),
(648,30,c),
(227,30,l),
(219,30,o),
(212,23,o),
(212,15,c),
(212,7,o),
(219,0,o),
(227,0,c),
(648,0,l),
(699,0,o),
(728,29,o),
(728,80,c),
(728,230,l),
(728,336,o),
(644,420,o),
(538,420,c),
(165,420,l),
(165,390,l)
);
}
);
width = 808;
},
{
anchors = (
{
name = bottom;
pos = (343,-240);
},
{
name = center;
pos = (452,-91);
},
{
name = top;
pos = (343,440);
}
);
associatedMasterId = m01;
attr = {
coordinates = (
120,
70
);
};
layerId = "AE387069-9830-431E-A13E-4EAEBF9923DB";
name = "25 Apr 25 at 02:57";
shapes = (
{
closed = 1;
nodes = (
(259,-120,l),
(216,-120,o),
(187,-93,o),
(187,-60,c),
(187,-27,o),
(216,0,o),
(259,0,c),
(259,120,l),
(154,120,o),
(67,43,o),
(67,-60,c),
(67,-163,o),
(154,-240,o),
(259,-240,c),
(402,-240,l),
(402,-120,l)
);
},
{
attr = {
strokePos = 1;
};
closed = 1;
nodes = (
(404,313,l),
(444,313,o),
(474,283,o),
(474,243,c),
(474,80,l),
(474,79,o),
(515,120,o),
(514,120,c),
(259,120,l),
(226,120,o),
(199,93,o),
(199,60,c),
(199,27,o),
(226,0,o),
(259,0,c),
(514,0,l),
(565,0,o),
(594,29,o),
(594,80,c),
(594,243,l),
(594,349,o),
(510,433,o),
(404,433,c),
(191,433,l),
(191,313,l)
);
}
);
width = 661;
},
{
anchors = (
{
name = bottom;
pos = (417,-240);
},
{
name = center;
pos = (618,-94);
},
{
name = top;
pos = (417,440);
}
);
associatedMasterId = "3EFBB2FF-E525-4F07-A4DB-42752D5683EA";
attr = {
coordinates = (
120,
120
);
};
layerId = "112EC26A-0033-490D-9C51-BC8D65485786";
name = "25 Apr 25 at 02:59";
shapes = (
{
closed = 1;
nodes = (
(266,-120,l),
(223,-120,o),
(194,-93,o),
(194,-60,c),
(194,-27,o),
(223,0,o),
(266,0,c),
(266,120,l),
(161,120,o),
(74,43,o),
(74,-60,c),
(74,-163,o),
(161,-240,o),
(266,-240,c),
(499,-240,l),
(499,-120,l)
);
},
{
attr = {
strokePos = 1;
};
closed = 1;
nodes = (
(570,313,l),
(610,313,o),
(640,283,o),
(640,243,c),
(640,80,l),
(640,79,o),
(681,120,o),
(680,120,c),
(266,120,l),
(233,120,o),
(206,93,o),
(206,60,c),
(206,27,o),
(233,0,o),
(266,0,c),
(680,0,l),
(731,0,o),
(760,29,o),
(760,80,c),
(760,243,l),
(760,349,o),
(676,433,o),
(570,433,c),
(197,433,l),
(197,313,l)
);
}
);
width = 833;
}
);
metricLeft = "alef-ar";
metricRight = "alef-ar";
},
{
glyphname = "hah-ar.fina";
lastChange = "2025-04-25 13:06:46 +0000";
layers = (
{
layerId = m01;
shapes = (
{
attr = {
strokePos = 1;
};
closed = 1;
nodes = (
(488,30,l),
(480,30,o),
(473,23,o),
(473,15,c),
(473,7,o),
(480,0,o),
(488,0,c),
(678,0,l),
(678,30,l)
);
},
{
ref = "hah-ar";
}
);
width = 678;
},
{
layerId = "410C308F-557C-4D4B-8D78-DF4F3F2F205E";
shapes = (
{
attr = {
strokePos = 1;
};
closed = 1;
nodes = (
(528,170,l),
(481,170,o),
(443,132,o),
(443,85,c),
(443,38,o),
(481,0,o),
(528,0,c),
(668,0,l),
(668,170,l)
);
},
{
ref = "hah-ar";
}
);
width = 668;
},
{
layerId = "C375229C-5AB5-4F42-B4C5-B05E6279C8CD";
shapes = (
{
attr = {
strokePos = 1;
};
closed = 1;
nodes = (
(698,170,l),
(651,170,o),
(613,132,o),
(613,85,c),
(613,38,o),
(651,0,o),
(698,0,c),
(848,0,l),
(848,170,l)
);
},
{
ref = "hah-ar";
}
);
width = 848;
},
{
layerId = "3EFBB2FF-E525-4F07-A4DB-42752D5683EA";
shapes = (
{
attr = {
strokePos = 1;
};
closed = 1;
nodes = (
(648,30,l),
(640,30,o),
(633,23,o),
(633,15,c),
(633,7,o),
(640,0,o),
(648,0,c),
(838,0,l),
(838,30,l)
);
},
{
ref = "hah-ar";
}
);
width = 838;
}
);
metricLeft = "alef-ar";
metricRight = "kashida-ar";
},
{
glyphname = "hah-ar.fina.alt";
lastChange = "2025-04-25 13:06:49 +0000";
layers = (
{
layerId = m01;
shapes = (
{
attr = {
strokePos = 1;
};
closed = 1;
nodes = (
(488,30,l),
(480,30,o),
(473,23,o),
(473,15,c),
(473,7,o),
(480,0,o),
(488,0,c),
(678,0,l),
(678,30,l)
);
},
{
ref = "hah-ar.alt";
}
);
width = 678;
},
{
layerId = "410C308F-557C-4D4B-8D78-DF4F3F2F205E";
shapes = (
{
attr = {
strokePos = 1;
};
closed = 1;
nodes = (
(528,170,l),
(481,170,o),
(443,132,o),
(443,85,c),
(443,38,o),
(481,0,o),
(528,0,c),
(668,0,l),
(668,170,l)
);
},
{
ref = "hah-ar.alt";
}
);
width = 668;
},
{
layerId = "C375229C-5AB5-4F42-B4C5-B05E6279C8CD";
shapes = (
{
attr = {
strokePos = 1;
};
closed = 1;
nodes = (
(698,170,l),
(651,170,o),
(613,132,o),
(613,85,c),
(613,38,o),
(651,0,o),
(698,0,c),
(848,0,l),
(848,170,l)
);
},
{
ref = "hah-ar.alt";
}
);
width = 848;
},
{
layerId = "3EFBB2FF-E525-4F07-A4DB-42752D5683EA";
shapes = (
{
attr = {
strokePos = 1;
};
closed = 1;
nodes = (
(648,30,l),
(640,30,o),
(633,23,o),
(633,15,c),
(633,7,o),
(640,0,o),
(648,0,c),
(838,0,l),
(838,30,l)
);
},
{
ref = "hah-ar.alt";
}
);
width = 838;
}
);
metricLeft = "alef-ar";
metricRight = "kashida-ar";
},
{
glyphname = "hah-ar.medi";
lastChange = "2025-04-25 13:06:52 +0000";
layers = (
{
layerId = m01;
shapes = (
{
attr = {
strokePos = 1;
};
closed = 1;
nodes = (
(433,30,l),
(425,30,o),
(418,23,o),
(418,15,c),
(418,7,o),
(425,0,o),
(433,0,c),
(623,0,l),
(623,30,l)
);
},
{
ref = "hah-ar.init";
}
);
width = 623;
},
{
layerId = "410C308F-557C-4D4B-8D78-DF4F3F2F205E";
shapes = (
{
attr = {
strokePos = 1;
};
closed = 1;
nodes = (
(383,170,l),
(336,170,o),
(298,132,o),
(298,85,c),
(298,38,o),
(336,0,o),
(383,0,c),
(523,0,l),
(523,170,l)
);
},
{
ref = "hah-ar.init";
}
);
width = 523;
},
{
layerId = "C375229C-5AB5-4F42-B4C5-B05E6279C8CD";
shapes = (
{
attr = {
strokePos = 1;
};
closed = 1;
nodes = (
(552,170,l),
(505,170,o),
(467,132,o),
(467,85,c),
(467,38,o),
(505,0,o),
(552,0,c),
(702,0,l),
(702,170,l)
);
},
{
ref = "hah-ar.init";
}
);
width = 702;
},
{
layerId = "3EFBB2FF-E525-4F07-A4DB-42752D5683EA";
shapes = (
{
attr = {
strokePos = 1;
};
closed = 1;
nodes = (
(592,30,l),
(584,30,o),
(577,23,o),
(577,15,c),
(577,7,o),
(584,0,o),
(592,0,c),
(782,0,l),
(782,30,l)
);
},
{
ref = "hah-ar.init";
}
);
width = 782;
}
);
metricLeft = "kashida-ar";
metricRight = "kashida-ar";
},
{
glyphname = "hah-ar.init";
lastChange = "2025-04-25 13:06:55 +0000";
layers = (
{
anchors = (
{
name = bottom;
pos = (262,0);
},
{
name = top;
pos = (262,440);
}
);
layerId = m01;
shapes = (
{
attr = {
strokePos = "1";
};
closed = 1;
nodes = (
(323,390,l),
(413,390,o),
(483,320,o),
(483,230,c),
(483,80,l),
(483,46,o),
(467,30,o),
(433,30,c),
(0,30,l),
(-8,30,o),
(-15,23,o),
(-15,15,c),
(-15,7,o),
(-8,0,o),
(0,0,c),
(433,0,l),
(484,0,o),
(513,29,o),
(513,80,c),
(513,230,l),
(513,336,o),
(429,420,o),
(323,420,c),
(110,420,l),
(110,390,l)
);
}
);
width = 593;
},
{
anchors = (
{
name = bottom;
pos = (212,0);
},
{
name = top;
pos = (212,440);
}
);
layerId = "410C308F-557C-4D4B-8D78-DF4F3F2F205E";
shapes = (
{
attr = {
strokePos = "1";
};
closed = 1;
nodes = (
(273,270,l),
(285,270,o),
(293,262,o),
(293,250,c),
(293,80,l),
(293,99,o),
(364,170,o),
(383,170,c),
(0,170,l),
(-48,170,o),
(-85,132,o),
(-85,85,c),
(-85,38,o),
(-48,0,o),
(0,0,c),
(383,0,l),
(434,0,o),
(463,29,o),
(463,80,c),
(463,250,l),
(463,356,o),
(379,440,o),
(273,440,c),
(60,440,l),
(60,270,l)
);
}
);
width = 523;
},
{
anchors = (
{
name = bottom;
pos = (272,0);
},
{
name = top;
pos = (272,440);
}
);
layerId = "C375229C-5AB5-4F42-B4C5-B05E6279C8CD";
shapes = (
{
attr = {
strokePos = "1";
};
closed = 1;
nodes = (
(442,270,l),
(454,270,o),
(462,262,o),
(462,250,c),
(462,80,l),
(462,99,o),
(533,170,o),
(552,170,c),
(0,170,l),
(-48,170,o),
(-85,132,o),
(-85,85,c),
(-85,38,o),
(-48,0,o),
(0,0,c),
(552,0,l),
(603,0,o),
(632,29,o),
(632,80,c),
(632,250,l),
(632,356,o),
(548,440,o),
(442,440,c),
(70,440,l),
(70,270,l)
);
}
);
width = 702;
},
{
anchors = (
{
name = bottom;
pos = (316,0);
},
{
name = top;
pos = (316,440);
}
);
layerId = "3EFBB2FF-E525-4F07-A4DB-42752D5683EA";
shapes = (
{
attr = {
strokePos = "1";
};
closed = 1;
nodes = (
(482,390,l),
(572,390,o),
(642,320,o),
(642,230,c),
(642,80,l),
(642,46,o),
(626,30,o),
(592,30,c),
(0,30,l),
(-8,30,o),
(-15,23,o),
(-15,15,c),
(-15,7,o),
(-8,0,o),
(0,0,c),
(592,0,l),
(643,0,o),
(672,29,o),
(672,80,c),
(672,230,l),
(672,336,o),
(588,420,o),
(482,420,c),
(110,420,l),
(110,390,l)
);
}
);
width = 752;
}
);
metricLeft = "kashida-ar";
metricRight = "alef-ar";
},
{
glyphname = "dal-ar";
lastChange = "2025-04-25 13:07:00 +0000";
layers = (
{
anchors = (
{
name = bottom;
pos = (228,0);
},
{
name = top;
pos = (224,440);
}
);
background = {
shapes = (
{
closed = 0;
nodes = (
(444,0,l),
(444,190,ls),
(444,296,o),
(360,380,o),
(254,380,cs),
(74,380,l)
);
}
);
};
layerId = m01;
shapes = (
{
attr = {
strokePos = "1";
};
closed = 1;
nodes = (
(224,390,l),
(314,390,o),
(384,320,o),
(384,230,c),
(384,80,l),
(384,46,o),
(368,30,o),
(334,30,c),
(80,30,l),
(80,0,l),
(334,0,l),
(385,0,o),
(414,29,o),
(414,80,c),
(414,230,l),
(414,336,o),
(330,420,o),
(224,420,c),
(139,420,l),
(139,390,l)
);
}
);
width = 494;
},
{
anchors = (
{
name = bottom;
pos = (208,0);
},
{
name = top;
pos = (208,445);
}
);
background = {
shapes = (
{
closed = 0;
nodes = (
(424,0,l),
(424,190,ls),
(424,296,o),
(340,380,o),
(234,380,cs),
(54,380,l)
);
}
);
};
layerId = "410C308F-557C-4D4B-8D78-DF4F3F2F205E";
shapes = (
{
attr = {
strokePos = "1";
};
closed = 1;
nodes = (
(204,270,l),
(216,270,o),
(224,262,o),
(224,250,c),
(224,80,l),
(224,99,o),
(295,170,o),
(314,170,c),
(60,170,l),
(60,0,l),
(314,0,l),
(365,0,o),
(394,29,o),
(394,80,c),
(394,250,l),
(394,356,o),
(310,440,o),
(204,440,c),
(119,440,l),
(119,270,l)
);
}
);
width = 454;
},
{
anchors = (
{
name = bottom;
pos = (198,0);
},
{
name = top;
pos = (248,445);
}
);
background = {
shapes = (
{
closed = 0;
nodes = (
(414,0,l),
(414,190,ls),
(414,296,o),
(330,380,o),
(224,380,cs),
(44,380,l)
);
}
);
};
layerId = "C375229C-5AB5-4F42-B4C5-B05E6279C8CD";
shapes = (
{
attr = {
strokePos = "1";
};
closed = 1;
nodes = (
(344,270,l),
(356,270,o),
(364,262,o),
(364,250,c),
(364,80,l),
(364,99,o),
(435,170,o),
(454,170,c),
(70,170,l),
(70,0,l),
(454,0,l),
(505,0,o),
(534,29,o),
(534,80,c),
(534,250,l),
(534,356,o),
(450,440,o),
(344,440,c),
(130,440,l),
(130,270,l)
);
}
);
width = 604;
},
{
anchors = (
{
name = bottom;
pos = (258,0);
},
{
name = top;
pos = (258,455);
}
);
background = {
shapes = (
{
closed = 0;
nodes = (
(474,0,l),
(474,190,ls),
(474,296,o),
(390,380,o),
(284,380,cs),
(104,380,l)
);
}
);
};
layerId = "3EFBB2FF-E525-4F07-A4DB-42752D5683EA";
shapes = (
{
attr = {
strokePos = "1";
};
closed = 1;
nodes = (
(354,390,l),
(444,390,o),
(514,320,o),
(514,230,c),
(514,80,l),
(514,46,o),
(498,30,o),
(464,30,c),
(80,30,l),
(80,0,l),
(464,0,l),
(515,0,o),
(544,29,o),
(544,80,c),
(544,230,l),
(544,336,o),
(460,420,o),
(354,420,c),
(140,420,l),
(140,390,l)
);
}
);
width = 624;
}
);
metricLeft = "alef-ar";
metricRight = "alef-ar";
unicode = 1583;
},
{
glyphname = "dal-ar.fina";
lastChange = "2025-04-25 13:07:03 +0000";
layers = (
{
layerId = m01;
shapes = (
{
ref = "dal-ar";
},
{
attr = {
strokePos = 1;
};
closed = 1;
nodes = (
(335,30,l),
(327,30,o),
(320,23,o),
(320,15,c),
(320,7,o),
(327,0,o),
(335,0,c),
(524,0,l),
(524,30,l)
);
}
);
width = 524;
},
{
layerId = "410C308F-557C-4D4B-8D78-DF4F3F2F205E";
shapes = (
{
ref = "dal-ar";
},
{
attr = {
strokePos = 1;
};
closed = 1;
nodes = (
(313,170,l),
(266,170,o),
(228,132,o),
(228,85,c),
(228,38,o),
(266,0,o),
(313,0,c),
(454,0,l),
(454,170,l)
);
}
);
width = 454;
},
{
layerId = "C375229C-5AB5-4F42-B4C5-B05E6279C8CD";
shapes = (
{
ref = "dal-ar";
},
{
attr = {
strokePos = 1;
};
closed = 1;
nodes = (
(453,170,l),
(406,170,o),
(368,132,o),
(368,85,c),
(368,38,o),
(406,0,o),
(453,0,c),
(604,0,l),
(604,170,l)
);
}
);
width = 604;
},
{
layerId = "3EFBB2FF-E525-4F07-A4DB-42752D5683EA";
shapes = (
{
ref = "dal-ar";
},
{
attr = {
strokePos = 1;
};
closed = 1;
nodes = (
(465,30,l),
(457,30,o),
(450,23,o),
(450,15,c),
(450,7,o),
(457,0,o),
(465,0,c),
(654,0,l),
(654,30,l)
);
}
);
width = 654;
}
);
metricLeft = "alef-ar";
metricRight = "kashida-ar";
},
{
glyphname = "reh-ar";
lastChange = "2025-04-25 13:07:07 +0000";
layers = (
{
anchors = (
{
name = bottom;
pos = (70,-211);
},
{
name = top;
pos = (190,360);
}
);
layerId = m01;
shapes = (
{
closed = 1;
nodes = (
(70,-165,l),
(156,-165,o),
(205,-116,o),
(205,-30,c),
(205,360,l),
(175,360,l),
(175,-30,l),
(175,-100,o),
(140,-135,o),
(70,-135,c),
(0,-135,l),
(0,-165,l)
);
}
);
width = 285;
},
{
anchors = (
{
name = bottom;
pos = (70,-211);
},
{
name = top;
pos = (190,390);
}
);
layerId = "410C308F-557C-4D4B-8D78-DF4F3F2F205E";
shapes = (
{
closed = 1;
nodes = (
(70,-235,l),
(195,-235,o),
(275,-155,o),
(275,-30,c),
(275,390,l),
(105,390,l),
(105,-30,l),
(105,-60,o),
(100,-65,o),
(70,-65,c),
(0,-65,l),
(0,-235,l)
);
}
);
width = 335;
},
{
anchors = (
{
name = bottom;
pos = (160,-211);
},
{
name = top;
pos = (280,390);
}
);
layerId = "C375229C-5AB5-4F42-B4C5-B05E6279C8CD";
shapes = (
{
closed = 1;
nodes = (
(160,-235,l),
(285,-235,o),
(365,-155,o),
(365,-30,c),
(365,390,l),
(195,390,l),
(195,-30,l),
(195,-60,o),
(190,-65,o),
(160,-65,c),
(-10,-65,l),
(-10,-235,l)
);
}
);
width = 435;
},
{
anchors = (
{
name = bottom;
pos = (160,-211);
},
{
name = top;
pos = (280,380);
}
);
layerId = "3EFBB2FF-E525-4F07-A4DB-42752D5683EA";
shapes = (
{
closed = 1;
nodes = (
(160,-165,l),
(246,-165,o),
(295,-116,o),
(295,-30,c),
(295,360,l),
(265,360,l),
(265,-30,l),
(265,-100,o),
(230,-135,o),
(160,-135,c),
(-10,-135,l),
(-10,-165,l)
);
}
);
width = 375;
}
);
metricRight = "alef-ar";
unicode = 1585;
},
{
glyphname = "reh-ar.fina";
lastChange = "2025-04-25 13:07:10 +0000";
layers = (
{
layerId = m01;
shapes = (
{
ref = "reh-ar";
},
{
attr = {
strokePos = 1;
};
closed = 1;
nodes = (
(205,30,l),
(205,0,l),
(315,0,l),
(315,30,l)
);
}
);
width = 315;
},
{
layerId = "410C308F-557C-4D4B-8D78-DF4F3F2F205E";
shapes = (
{
ref = "reh-ar";
},
{
attr = {
strokePos = 1;
};
closed = 1;
nodes = (
(275,170,l),
(275,0,l),
(335,0,l),
(335,170,l)
);
}
);
width = 335;
},
{
layerId = "C375229C-5AB5-4F42-B4C5-B05E6279C8CD";
shapes = (
{
ref = "reh-ar";
},
{
attr = {
strokePos = 1;
};
closed = 1;
nodes = (
(365,170,l),
(365,0,l),
(435,0,l),
(435,170,l)
);
}
);
width = 435;
},
{
layerId = "3EFBB2FF-E525-4F07-A4DB-42752D5683EA";
shapes = (
{
ref = "reh-ar";
},
{
attr = {
strokePos = 1;
};
closed = 1;
nodes = (
(295,30,l),
(295,0,l),
(405,0,l),
(405,30,l)
);
}
);
width = 405;
}
);
metricLeft = "reh-ar";
metricRight = "kashida-ar";
},
{
glyphname = "seen-ar";
lastChange = "2025-04-25 13:07:14 +0000";
layers = (
{
anchors = (
{
name = top;
pos = (729,370);
}
);
layerId = m01;
shapes = (
{
ref = "noonghunna-ar";
},
{
closed = 1;
nodes = (
(744,360,l),
(714,360,l),
(714,3,l),
(744,3,l)
);
},
{
attr = {
strokePos = "0";
};
closed = 1;
nodes = (
(902,0,l),
(953,0,o),
(982,29,o),
(982,80,c),
(982,360,l),
(952,360,l),
(952,80,l),
(952,46,o),
(936,30,o),
(902,30,c),
(496,30,l),
(496,0,l)
);
}
);
width = 1062;
},
{
anchors = (
{
name = top;
pos = (675,390);
}
);
layerId = "410C308F-557C-4D4B-8D78-DF4F3F2F205E";
shapes = (
{
ref = "noonghunna-ar";
},
{
closed = 1;
nodes = (
(759,390,l),
(589,390,l),
(589,3,l),
(759,3,l)
);
},
{
attr = {
strokePos = "0";
};
closed = 1;
nodes = (
(882,0,l),
(933,0,o),
(962,29,o),
(962,80,c),
(962,390,l),
(792,390,l),
(792,80,l),
(792,99,o),
(863,170,o),
(882,170,c),
(546,170,l),
(546,0,l)
);
}
);
width = 1022;
},
{
anchors = (
{
name = top;
pos = (904,390);
}
);
layerId = "C375229C-5AB5-4F42-B4C5-B05E6279C8CD";
shapes = (
{
ref = "noonghunna-ar";
},
{
closed = 1;
nodes = (
(989,390,l),
(819,390,l),
(819,3,l),
(989,3,l)
);
},
{
attr = {
strokePos = "0";
};
closed = 1;
nodes = (
(1192,0,l),
(1243,0,o),
(1272,29,o),
(1272,80,c),
(1272,390,l),
(1102,390,l),
(1102,80,l),
(1102,99,o),
(1173,170,o),
(1192,170,c),
(696,170,l),
(696,0,l)
);
}
);
width = 1342;
},
{
anchors = (
{
name = top;
pos = (951,380);
}
);
layerId = "3EFBB2FF-E525-4F07-A4DB-42752D5683EA";
shapes = (
{
ref = "noonghunna-ar";
},
{
closed = 1;
nodes = (
(964,360,l),
(934,360,l),
(934,3,l),
(964,3,l)
);
},
{
attr = {
strokePos = "0";
};
closed = 1;
nodes = (
(1202,0,l),
(1253,0,o),
(1282,29,o),
(1282,80,c),
(1282,360,l),
(1252,360,l),
(1252,80,l),
(1252,46,o),
(1236,30,o),
(1202,30,c),
(636,30,l),
(636,0,l)
);
}
);
width = 1362;
}
);
metricLeft = "alef-ar";
metricRight = "alef-ar";
unicode = 1587;
},
{
glyphname = "seen-ar.fina";
lastChange = "2025-04-25 13:08:28 +0000";
layers = (
{
layerId = m01;
shapes = (
{
ref = "seen-ar";
},
{
attr = {
strokePos = 1;
};
closed = 1;
nodes = (
(902,30,l),
(894,30,o),
(887,23,o),
(887,15,c),
(887,7,o),
(894,0,o),
(902,0,c),
(1092,0,l),
(1092,30,l)
);
}
);
width = 1092;
},
{
layerId = "410C308F-557C-4D4B-8D78-DF4F3F2F205E";
shapes = (
{
ref = "seen-ar";
},
{
attr = {
strokePos = 1;
};
closed = 1;
nodes = (
(881,170,l),
(834,170,o),
(796,132,o),
(796,85,c),
(796,38,o),
(834,0,o),
(881,0,c),
(1022,0,l),
(1022,170,l)
);
}
);
width = 1022;
},
{
layerId = "C375229C-5AB5-4F42-B4C5-B05E6279C8CD";
shapes = (
{
ref = "seen-ar";
},
{
attr = {
strokePos = 1;
};
closed = 1;
nodes = (
(1191,170,l),
(1144,170,o),
(1106,132,o),
(1106,85,c),
(1106,38,o),
(1144,0,o),
(1191,0,c),
(1342,0,l),
(1342,170,l)
);
}
);
width = 1342;
},
{
layerId = "3EFBB2FF-E525-4F07-A4DB-42752D5683EA";
shapes = (
{
ref = "seen-ar";
},
{
attr = {
strokePos = 1;
};
closed = 1;
nodes = (
(1202,30,l),
(1194,30,o),
(1187,23,o),
(1187,15,c),
(1187,7,o),
(1194,0,o),
(1202,0,c),
(1392,0,l),
(1392,30,l)
);
}
);
width = 1392;
}
);
metricLeft = "alef-ar";
metricRight = "kashida-ar";
},
{
glyphname = "seen-ar.medi";
lastChange = "2025-04-25 13:08:24 +0000";
layers = (
{
layerId = m01;
shapes = (
{
attr = {
strokePos = 1;
};
closed = 1;
nodes = (
(535,30,l),
(527,30,o),
(520,23,o),
(520,15,c),
(520,7,o),
(527,0,o),
(535,0,c),
(725,0,l),
(725,30,l)
);
},
{
ref = "seen-ar.init";
}
);
width = 725;
},
{
layerId = "410C308F-557C-4D4B-8D78-DF4F3F2F205E";
shapes = (
{
attr = {
strokePos = 1;
};
closed = 1;
nodes = (
(546,170,l),
(499,170,o),
(461,132,o),
(461,85,c),
(461,38,o),
(499,0,o),
(546,0,c),
(706,0,l),
(706,170,l)
);
},
{
ref = "seen-ar.init";
}
);
width = 706;
},
{
layerId = "C375229C-5AB5-4F42-B4C5-B05E6279C8CD";
shapes = (
{
attr = {
strokePos = 1;
};
closed = 1;
nodes = (
(705,170,l),
(658,170,o),
(620,132,o),
(620,85,c),
(620,38,o),
(658,0,o),
(705,0,c),
(875,0,l),
(875,170,l)
);
},
{
ref = "seen-ar.init";
}
);
width = 875;
},
{
layerId = "3EFBB2FF-E525-4F07-A4DB-42752D5683EA";
shapes = (
{
attr = {
strokePos = 1;
};
closed = 1;
nodes = (
(695,30,l),
(687,30,o),
(680,23,o),
(680,15,c),
(680,7,o),
(687,0,o),
(695,0,c),
(885,0,l),
(885,30,l)
);
},
{
ref = "seen-ar.init";
}
);
width = 885;
}
);
metricLeft = "kashida-ar";
metricRight = "kashida-ar";
},
{
glyphname = "seen-ar.init";
lastChange = "2025-04-25 13:08:21 +0000";
layers = (
{
anchors = (
{
name = bottom;
pos = (362,0);
},
{
name = top;
pos = (362,370);
}
);
layerId = m01;
shapes = (
{
ref = "behDotless-ar.init";
},
{
closed = 1;
nodes = (
(377,360,l),
(347,360,l),
(347,3,l),
(377,3,l)
);
},
{
attr = {
strokePos = "0";
};
closed = 1;
nodes = (
(535,0,l),
(586,0,o),
(615,29,o),
(615,80,c),
(615,360,l),
(585,360,l),
(585,80,l),
(585,46,o),
(569,30,o),
(535,30,c),
(60,30,l),
(52,30,o),
(45,23,o),
(45,15,c),
(45,7,o),
(52,0,o),
(60,0,c)
);
}
);
width = 695;
},
{
anchors = (
{
name = bottom;
pos = (360,0);
},
{
name = top;
pos = (360,390);
}
);
layerId = "410C308F-557C-4D4B-8D78-DF4F3F2F205E";
shapes = (
{
ref = "behDotless-ar.init";
},
{
closed = 1;
nodes = (
(445,390,l),
(275,390,l),
(275,3,l),
(445,3,l)
);
},
{
attr = {
strokePos = "0";
};
closed = 1;
nodes = (
(566,0,l),
(617,0,o),
(646,29,o),
(646,80,c),
(646,390,l),
(476,390,l),
(476,80,l),
(476,99,o),
(547,170,o),
(566,170,c),
(160,170,l),
(113,170,o),
(75,132,o),
(75,85,c),
(75,38,o),
(113,0,o),
(160,0,c)
);
}
);
width = 706;
},
{
anchors = (
{
name = bottom;
pos = (440,0);
},
{
name = top;
pos = (440,390);
}
);
layerId = "C375229C-5AB5-4F42-B4C5-B05E6279C8CD";
shapes = (
{
ref = "behDotless-ar.init";
},
{
closed = 1;
nodes = (
(524,390,l),
(354,390,l),
(354,3,l),
(524,3,l)
);
},
{
attr = {
strokePos = "0";
};
closed = 1;
nodes = (
(725,0,l),
(776,0,o),
(805,29,o),
(805,80,c),
(805,390,l),
(635,390,l),
(635,80,l),
(635,99,o),
(706,170,o),
(725,170,c),
(160,170,l),
(113,170,o),
(75,132,o),
(75,85,c),
(75,38,o),
(113,0,o),
(160,0,c)
);
}
);
width = 875;
},
{
anchors = (
{
name = bottom;
pos = (445,0);
},
{
name = top;
pos = (445,380);
}
);
layerId = "3EFBB2FF-E525-4F07-A4DB-42752D5683EA";
shapes = (
{
ref = "behDotless-ar.init";
},
{
closed = 1;
nodes = (
(460,360,l),
(430,360,l),
(430,3,l),
(460,3,l)
);
},
{
attr = {
strokePos = "0";
};
closed = 1;
nodes = (
(695,0,l),
(746,0,o),
(775,29,o),
(775,80,c),
(775,360,l),
(745,360,l),
(745,80,l),
(745,46,o),
(729,30,o),
(695,30,c),
(60,30,l),
(52,30,o),
(45,23,o),
(45,15,c),
(45,7,o),
(52,0,o),
(60,0,c)
);
}
);
width = 855;
}
);
metricLeft = "kashida-ar";
metricRight = "alef-ar";
},
{
glyphname = "sad-ar";
lastChange = "2025-04-25 13:08:12 +0000";
layers = (
{
layerId = m01;
shapes = (
{
closed = 1;
nodes = (
(506,420,l),
(476,420,l),
(476,360,l),
(506,360,l)
);
},
{
ref = "noonghunna-ar";
},
{
pos = (-41,0);
ref = _part.sadcurve;
}
);
width = 1062;
},
{
layerId = "410C308F-557C-4D4B-8D78-DF4F3F2F205E";
shapes = (
{
closed = 1;
nodes = (
(556,440,l),
(386,440,l),
(386,390,l),
(556,390,l)
);
},
{
ref = "noonghunna-ar";
},
{
pos = (-61,0);
ref = _part.sadcurve;
}
);
width = 1022;
},
{
layerId = "C375229C-5AB5-4F42-B4C5-B05E6279C8CD";
shapes = (
{
closed = 1;
nodes = (
(706,440,l),
(536,440,l),
(536,390,l),
(706,390,l)
);
},
{
ref = "noonghunna-ar";
},
{
pos = (89,0);
ref = _part.sadcurve;
}
);
width = 1342;
},
{
layerId = "3EFBB2FF-E525-4F07-A4DB-42752D5683EA";
shapes = (
{
closed = 1;
nodes = (
(646,420,l),
(616,420,l),
(616,360,l),
(646,360,l)
);
},
{
ref = "noonghunna-ar";
},
{
pos = (99,0);
ref = _part.sadcurve;
}
);
width = 1362;
}
);
metricLeft = "alef-ar";
metricRight = "alef-ar";
unicode = 1589;
},
{
glyphname = "sad-ar.fina";
lastChange = "2025-04-25 13:07:41 +0000";
layers = (
{
layerId = m01;
shapes = (
{
ref = "sad-ar";
},
{
attr = {
strokePos = 1;
};
closed = 1;
nodes = (
(902,30,l),
(894,30,o),
(887,23,o),
(887,15,c),
(887,7,o),
(894,0,o),
(902,0,c),
(1092,0,l),
(1092,30,l)
);
}
);
width = 1092;
},
{
layerId = "410C308F-557C-4D4B-8D78-DF4F3F2F205E";
shapes = (
{
ref = "sad-ar";
},
{
attr = {
strokePos = 1;
};
closed = 1;
nodes = (
(882,170,l),
(835,170,o),
(797,132,o),
(797,85,c),
(797,38,o),
(835,0,o),
(882,0,c),
(1022,0,l),
(1022,170,l)
);
}
);
width = 1022;
},
{
layerId = "C375229C-5AB5-4F42-B4C5-B05E6279C8CD";
shapes = (
{
ref = "sad-ar";
},
{
attr = {
strokePos = 1;
};
closed = 1;
nodes = (
(1192,170,l),
(1145,170,o),
(1107,132,o),
(1107,85,c),
(1107,38,o),
(1145,0,o),
(1192,0,c),
(1342,0,l),
(1342,170,l)
);
}
);
width = 1342;
},
{
layerId = "3EFBB2FF-E525-4F07-A4DB-42752D5683EA";
shapes = (
{
ref = "sad-ar";
},
{
attr = {
strokePos = 1;
};
closed = 1;
nodes = (
(1202,30,l),
(1194,30,o),
(1187,23,o),
(1187,15,c),
(1187,7,o),
(1194,0,o),
(1202,0,c),
(1392,0,l),
(1392,30,l)
);
}
);
width = 1392;
}
);
metricLeft = "alef-ar";
metricRight = "kashida-ar";
},
{
glyphname = "sad-ar.medi";
lastChange = "2025-04-25 13:07:38 +0000";
layers = (
{
layerId = m01;
shapes = (
{
ref = "sad-ar.init";
},
{
attr = {
strokePos = 1;
};
closed = 1;
nodes = (
(536,30,l),
(528,30,o),
(521,23,o),
(521,15,c),
(521,7,o),
(528,0,o),
(536,0,c),
(726,0,l),
(726,30,l)
);
}
);
width = 726;
},
{
layerId = "410C308F-557C-4D4B-8D78-DF4F3F2F205E";
shapes = (
{
ref = "sad-ar.init";
},
{
attr = {
strokePos = 1;
};
closed = 1;
nodes = (
(555,170,l),
(508,170,o),
(470,132,o),
(470,85,c),
(470,38,o),
(508,0,o),
(555,0,c),
(696,0,l),
(696,170,l)
);
}
);
width = 696;
},
{
layerId = "C375229C-5AB5-4F42-B4C5-B05E6279C8CD";
shapes = (
{
ref = "sad-ar.init";
},
{
attr = {
strokePos = 1;
};
closed = 1;
nodes = (
(725,170,l),
(678,170,o),
(640,132,o),
(640,85,c),
(640,38,o),
(678,0,o),
(725,0,c),
(876,0,l),
(876,170,l)
);
}
);
width = 876;
},
{
layerId = "3EFBB2FF-E525-4F07-A4DB-42752D5683EA";
shapes = (
{
ref = "sad-ar.init";
},
{
attr = {
strokePos = 1;
};
closed = 1;
nodes = (
(696,30,l),
(688,30,o),
(681,23,o),
(681,15,c),
(681,7,o),
(688,0,o),
(696,0,c),
(886,0,l),
(886,30,l)
);
}
);
width = 886;
}
);
metricLeft = "kashida-ar";
metricRight = "kashida-ar";
},
{
glyphname = "sad-ar.init";
lastChange = "2025-04-25 13:07:35 +0000";
layers = (
{
layerId = m01;
shapes = (
{
attr = {
strokePos = 1;
};
closed = 1;
nodes = (
(0,30,l),
(-8,30,o),
(-15,23,o),
(-15,15,c),
(-15,7,o),
(-8,0,o),
(0,0,c),
(185,0,l),
(185,30,l)
);
},
{
closed = 1;
nodes = (
(140,420,l),
(110,420,l),
(110,16,l),
(140,16,l)
);
},
{
pos = (-407,0);
ref = _part.sadcurve;
}
);
width = 696;
},
{
layerId = "410C308F-557C-4D4B-8D78-DF4F3F2F205E";
shapes = (
{
attr = {
strokePos = 1;
};
closed = 1;
nodes = (
(0,170,l),
(-48,170,o),
(-85,132,o),
(-85,85,c),
(-85,38,o),
(-48,0,o),
(0,0,c),
(205,0,l),
(205,170,l)
);
},
{
closed = 1;
nodes = (
(230,440,l),
(60,440,l),
(60,16,l),
(230,16,l)
);
},
{
pos = (-387,0);
ref = _part.sadcurve;
}
);
width = 696;
},
{
layerId = "C375229C-5AB5-4F42-B4C5-B05E6279C8CD";
shapes = (
{
attr = {
strokePos = 1;
};
closed = 1;
nodes = (
(0,170,l),
(-48,170,o),
(-85,132,o),
(-85,85,c),
(-85,38,o),
(-48,0,o),
(0,0,c),
(215,0,l),
(215,170,l)
);
},
{
closed = 1;
nodes = (
(240,440,l),
(70,440,l),
(70,16,l),
(240,16,l)
);
},
{
pos = (-377,0);
ref = _part.sadcurve;
}
);
width = 876;
},
{
layerId = "3EFBB2FF-E525-4F07-A4DB-42752D5683EA";
shapes = (
{
attr = {
strokePos = 1;
};
closed = 1;
nodes = (
(0,30,l),
(-8,30,o),
(-15,23,o),
(-15,15,c),
(-15,7,o),
(-8,0,o),
(0,0,c),
(185,0,l),
(185,30,l)
);
},
{
closed = 1;
nodes = (
(140,420,l),
(110,420,l),
(110,16,l),
(140,16,l)
);
},
{
pos = (-407,0);
ref = _part.sadcurve;
}
);
width = 856;
}
);
metricLeft = "kashida-ar";
metricRight = "alef-ar";
},
{
glyphname = "tah-ar";
lastChange = "2025-04-25 13:07:32 +0000";
layers = (
{
layerId = m01;
shapes = (
{
attr = {
strokePos = 1;
};
closed = 1;
nodes = (
(80,30,l),
(80,0,l),
(178,0,l),
(178,30,l)
);
},
{
closed = 1;
nodes = (
(193,640,l),
(163,640,l),
(163,16,l),
(193,16,l)
);
},
{
pos = (-354,0);
ref = _part.sadcurve;
}
);
width = 749;
},
{
layerId = "410C308F-557C-4D4B-8D78-DF4F3F2F205E";
shapes = (
{
attr = {
strokePos = 1;
};
closed = 1;
nodes = (
(60,170,l),
(60,0,l),
(188,0,l),
(188,170,l)
);
},
{
closed = 1;
nodes = (
(273,640,l),
(103,640,l),
(103,16,l),
(273,16,l)
);
},
{
pos = (-344,0);
ref = _part.sadcurve;
}
);
width = 739;
},
{
layerId = "C375229C-5AB5-4F42-B4C5-B05E6279C8CD";
shapes = (
{
attr = {
strokePos = 1;
};
closed = 1;
nodes = (
(70,170,l),
(70,0,l),
(198,0,l),
(198,170,l)
);
},
{
closed = 1;
nodes = (
(283,640,l),
(113,640,l),
(113,16,l),
(283,16,l)
);
},
{
pos = (-334,0);
ref = _part.sadcurve;
}
);
width = 919;
},
{
layerId = "3EFBB2FF-E525-4F07-A4DB-42752D5683EA";
shapes = (
{
attr = {
strokePos = 1;
};
closed = 1;
nodes = (
(80,30,l),
(80,0,l),
(178,0,l),
(178,30,l)
);
},
{
closed = 1;
nodes = (
(193,640,l),
(163,640,l),
(163,16,l),
(193,16,l)
);
},
{
pos = (-354,0);
ref = _part.sadcurve;
}
);
width = 909;
}
);
metricLeft = "alef-ar";
metricRight = "alef-ar";
unicode = 1591;
},
{
glyphname = "tah-ar.fina";
lastChange = "2025-04-25 13:07:27 +0000";
layers = (
{
layerId = m01;
shapes = (
{
ref = "tah-ar";
},
{
attr = {
strokePos = 1;
};
closed = 1;
nodes = (
(589,30,l),
(581,30,o),
(574,23,o),
(574,15,c),
(574,7,o),
(581,0,o),
(589,0,c),
(779,0,l),
(779,30,l)
);
}
);
width = 779;
},
{
layerId = "410C308F-557C-4D4B-8D78-DF4F3F2F205E";
shapes = (
{
ref = "tah-ar";
},
{
attr = {
strokePos = 1;
};
closed = 1;
nodes = (
(599,170,l),
(552,170,o),
(514,132,o),
(514,85,c),
(514,38,o),
(552,0,o),
(599,0,c),
(739,0,l),
(739,170,l)
);
}
);
width = 739;
},
{
layerId = "C375229C-5AB5-4F42-B4C5-B05E6279C8CD";
shapes = (
{
ref = "tah-ar";
},
{
attr = {
strokePos = 1;
};
closed = 1;
nodes = (
(769,170,l),
(722,170,o),
(684,132,o),
(684,85,c),
(684,38,o),
(722,0,o),
(769,0,c),
(919,0,l),
(919,170,l)
);
}
);
width = 919;
},
{
layerId = "3EFBB2FF-E525-4F07-A4DB-42752D5683EA";
shapes = (
{
ref = "tah-ar";
},
{
attr = {
strokePos = 1;
};
closed = 1;
nodes = (
(749,30,l),
(741,30,o),
(734,23,o),
(734,15,c),
(734,7,o),
(741,0,o),
(749,0,c),
(939,0,l),
(939,30,l)
);
}
);
width = 939;
}
);
metricLeft = "alef-ar";
metricRight = "kashida-ar";
},
{
glyphname = "tah-ar.medi";
lastChange = "2025-04-25 13:07:24 +0000";
layers = (
{
layerId = m01;
shapes = (
{
ref = "tah-ar.init";
},
{
attr = {
strokePos = 1;
};
closed = 1;
nodes = (
(536,30,l),
(528,30,o),
(521,23,o),
(521,15,c),
(521,7,o),
(528,0,o),
(536,0,c),
(726,0,l),
(726,30,l)
);
}
);
width = 726;
},
{
layerId = "410C308F-557C-4D4B-8D78-DF4F3F2F205E";
shapes = (
{
ref = "tah-ar.init";
},
{
attr = {
strokePos = 1;
};
closed = 1;
nodes = (
(555,170,l),
(508,170,o),
(470,132,o),
(470,85,c),
(470,38,o),
(508,0,o),
(555,0,c),
(696,0,l),
(696,170,l)
);
}
);
width = 696;
},
{
layerId = "C375229C-5AB5-4F42-B4C5-B05E6279C8CD";
shapes = (
{
ref = "tah-ar.init";
},
{
attr = {
strokePos = 1;
};
closed = 1;
nodes = (
(725,170,l),
(678,170,o),
(640,132,o),
(640,85,c),
(640,38,o),
(678,0,o),
(725,0,c),
(876,0,l),
(876,170,l)
);
}
);
width = 876;
},
{
layerId = "3EFBB2FF-E525-4F07-A4DB-42752D5683EA";
shapes = (
{
ref = "tah-ar.init";
},
{
attr = {
strokePos = 1;
};
closed = 1;
nodes = (
(696,30,l),
(688,30,o),
(681,23,o),
(681,15,c),
(681,7,o),
(688,0,o),
(696,0,c),
(886,0,l),
(886,30,l)
);
}
);
width = 886;
}
);
metricLeft = "kashida-ar";
metricRight = "kashida-ar";
},
{
glyphname = "tah-ar.init";
lastChange = "2025-04-25 13:07:22 +0000";
layers = (
{
layerId = m01;
shapes = (
{
pos = (-53,0);
ref = "tah-ar";
},
{
attr = {
strokePos = 1;
};
closed = 1;
nodes = (
(0,30,l),
(-8,30,o),
(-15,23,o),
(-15,15,c),
(-15,7,o),
(-8,0,o),
(0,0,c),
(27,0,l),
(27,30,l)
);
}
);
width = 696;
},
{
layerId = "410C308F-557C-4D4B-8D78-DF4F3F2F205E";
shapes = (
{
pos = (-43,0);
ref = "tah-ar";
},
{
attr = {
strokePos = 1;
};
closed = 1;
nodes = (
(0,170,l),
(-48,170,o),
(-85,132,o),
(-85,85,c),
(-85,38,o),
(-48,0,o),
(0,0,c),
(37,0,l),
(37,170,l)
);
}
);
width = 696;
},
{
layerId = "C375229C-5AB5-4F42-B4C5-B05E6279C8CD";
shapes = (
{
pos = (-43,0);
ref = "tah-ar";
},
{
attr = {
strokePos = 1;
};
closed = 1;
nodes = (
(0,170,l),
(-48,170,o),
(-85,132,o),
(-85,85,c),
(-85,38,o),
(-48,0,o),
(0,0,c),
(37,0,l),
(37,170,l)
);
}
);
width = 876;
},
{
layerId = "3EFBB2FF-E525-4F07-A4DB-42752D5683EA";
shapes = (
{
pos = (-53,0);
ref = "tah-ar";
},
{
attr = {
strokePos = 1;
};
closed = 1;
nodes = (
(0,30,l),
(-8,30,o),
(-15,23,o),
(-15,15,c),
(-15,7,o),
(-8,0,o),
(0,0,c),
(27,0,l),
(27,30,l)
);
}
);
width = 856;
}
);
metricLeft = "kashida-ar";
metricRight = "alef-ar";
},
{
glyphname = "ain-ar";
lastChange = "2025-04-25 13:07:18 +0000";
layers = (
{
anchors = (
{
name = bottom;
pos = (346,-240);
},
{
name = top;
pos = (355,440);
}
);
layerId = m01;
shapes = (
{
closed = 1;
nodes = (
(227,-210,l),
(161,-210,o),
(110,-164,o),
(110,-105,c),
(110,-46,o),
(161,0,o),
(227,0,c),
(517,0,l),
(517,30,l),
(227,30,l),
(145,30,o),
(80,-28,o),
(80,-105,c),
(80,-182,o),
(145,-240,o),
(227,-240,c),
(461,-240,l),
(461,-210,l)
);
},
{
attr = {
strokePos = "1";
};
closed = 1;
nodes = (
(266,30,o),
(195,109,o),
(195,215,c),
(195,320,o),
(265,390,o),
(355,390,c),
(457,390,l),
(457,420,l),
(355,420,l),
(249,420,o),
(165,336,o),
(165,215,c),
(165,94,o),
(249,0,o),
(355,0,c),
(355,30,l)
);
}
);
width = 597;
},
{
anchors = (
{
name = bottom;
pos = (396,-240);
},
{
name = top;
pos = (396,440);
}
);
background = {
shapes = (
{
pos = (6,0);
ref = "hah-ar";
}
);
};
layerId = "410C308F-557C-4D4B-8D78-DF4F3F2F205E";
shapes = (
{
closed = 1;
nodes = (
(277,-70,l),
(248,-70,o),
(230,-54,o),
(230,-35,c),
(230,-16,o),
(248,0,o),
(277,0,c),
(587,0,l),
(587,170,l),
(277,170,l),
(156,170,o),
(60,80,o),
(60,-35,c),
(60,-150,o),
(156,-240,o),
(277,-240,c),
(527,-240,l),
(527,-70,l)
);
},
{
attr = {
strokePos = "1";
};
closed = 1;
nodes = (
(397,170,o),
(385,190,o),
(385,233,c),
(385,248,o),
(392,270,o),
(405,270,c),
(544,270,l),
(544,440,l),
(405,440,l),
(299,440,o),
(215,349,o),
(215,233,c),
(215,114,o),
(299,0,o),
(405,0,c),
(405,170,l)
);
}
);
width = 647;
},
{
anchors = (
{
name = bottom;
pos = (406,-240);
},
{
name = top;
pos = (506,440);
}
);
layerId = "C375229C-5AB5-4F42-B4C5-B05E6279C8CD";
shapes = (
{
closed = 1;
nodes = (
(287,-70,l),
(258,-70,o),
(240,-54,o),
(240,-35,c),
(240,-16,o),
(258,0,o),
(287,0,c),
(727,0,l),
(727,170,l),
(287,170,l),
(166,170,o),
(70,80,o),
(70,-35,c),
(70,-150,o),
(166,-240,o),
(287,-240,c),
(637,-240,l),
(637,-70,l)
);
},
{
attr = {
strokePos = "1";
};
closed = 1;
nodes = (
(400,170,o),
(395,177,o),
(395,245,c),
(395,261,o),
(404,270,o),
(415,270,c),
(667,270,l),
(667,440,l),
(415,440,l),
(309,440,o),
(225,354,o),
(225,245,c),
(225,126,o),
(309,0,o),
(415,0,c),
(415,170,l)
);
}
);
width = 797;
},
{
anchors = (
{
name = bottom;
pos = (346,-240);
},
{
name = top;
pos = (455,440);
}
);
layerId = "3EFBB2FF-E525-4F07-A4DB-42752D5683EA";
shapes = (
{
closed = 1;
nodes = (
(227,-210,l),
(161,-210,o),
(110,-164,o),
(110,-105,c),
(110,-46,o),
(161,0,o),
(227,0,c),
(687,0,l),
(687,30,l),
(227,30,l),
(145,30,o),
(80,-28,o),
(80,-105,c),
(80,-182,o),
(145,-240,o),
(227,-240,c),
(597,-240,l),
(597,-210,l)
);
},
{
attr = {
strokePos = "1";
};
closed = 1;
nodes = (
(266,30,o),
(195,109,o),
(195,215,c),
(195,320,o),
(265,390,o),
(355,390,c),
(627,390,l),
(627,420,l),
(355,420,l),
(249,420,o),
(165,336,o),
(165,215,c),
(165,94,o),
(249,0,o),
(355,0,c),
(355,30,l)
);
}
);
width = 767;
}
);
metricLeft = "alef-ar";
metricRight = "alef-ar";
unicode = 1593;
},
{
glyphname = "ain-ar.fina";
lastChange = "2025-04-25 13:08:37 +0000";
layers = (
{
layerId = m01;
shapes = (
{
ref = "ain-ar";
},
{
attr = {
strokePos = 1;
};
closed = 1;
nodes = (
(517,30,l),
(517,0,l),
(567,0,l),
(567,30,l)
);
}
);
width = 567;
},
{
layerId = "410C308F-557C-4D4B-8D78-DF4F3F2F205E";
shapes = (
{
ref = "ain-ar";
},
{
attr = {
strokePos = 1;
};
closed = 1;
nodes = (
(587,170,l),
(587,0,l),
(601,0,l),
(601,170,l)
);
}
);
width = 601;
},
{
layerId = "C375229C-5AB5-4F42-B4C5-B05E6279C8CD";
shapes = (
{
ref = "ain-ar";
},
{
attr = {
strokePos = 1;
};
closed = 1;
nodes = (
(727,170,l),
(727,0,l),
(741,0,l),
(741,170,l)
);
}
);
width = 741;
},
{
layerId = "3EFBB2FF-E525-4F07-A4DB-42752D5683EA";
shapes = (
{
ref = "ain-ar";
},
{
attr = {
strokePos = 1;
};
closed = 1;
nodes = (
(687,30,l),
(687,0,l),
(737,0,l),
(737,30,l)
);
}
);
width = 737;
}
);
metricLeft = "alef-ar";
metricRight = "kashida-ar";
},
{
glyphname = "ain-ar.medi";
lastChange = "2025-04-25 13:08:40 +0000";
layers = (
{
layerId = m01;
shapes = (
{
ref = "ain-ar.init";
},
{
attr = {
strokePos = 1;
};
closed = 1;
nodes = (
(462,30,l),
(462,0,l),
(512,0,l),
(512,30,l)
);
}
);
width = 512;
},
{
layerId = "410C308F-557C-4D4B-8D78-DF4F3F2F205E";
shapes = (
{
ref = "ain-ar.init";
},
{
attr = {
strokePos = 1;
};
closed = 1;
nodes = (
(432,170,l),
(432,0,l),
(450,0,l),
(450,170,l)
);
}
);
width = 450;
},
{
layerId = "C375229C-5AB5-4F42-B4C5-B05E6279C8CD";
shapes = (
{
ref = "ain-ar.init";
},
{
attr = {
strokePos = 1;
};
closed = 1;
nodes = (
(572,170,l),
(572,0,l),
(590,0,l),
(590,170,l)
);
}
);
width = 590;
},
{
layerId = "3EFBB2FF-E525-4F07-A4DB-42752D5683EA";
shapes = (
{
ref = "ain-ar.init";
},
{
attr = {
strokePos = 1;
};
closed = 1;
nodes = (
(632,30,l),
(632,0,l),
(682,0,l),
(682,30,l)
);
}
);
width = 682;
}
);
metricLeft = "kashida-ar";
metricRight = "kashida-ar";
},
{
glyphname = "ain-ar.init";
lastChange = "2025-04-25 13:08:42 +0000";
layers = (
{
anchors = (
{
name = bottom;
pos = (311,0);
},
{
name = top;
pos = (311,455);
}
);
layerId = m01;
shapes = (
{
attr = {
strokePos = 0;
};
closed = 1;
nodes = (
(462,0,l),
(462,30,l),
(0,30,l),
(-8,30,o),
(-15,23,o),
(-15,15,c),
(-15,7,o),
(-8,0,o),
(0,0,c)
);
},
{
attr = {
strokePos = "1";
};
closed = 1;
nodes = (
(211,30,o),
(140,109,o),
(140,215,c),
(140,320,o),
(210,390,o),
(300,390,c),
(422,390,l),
(422,420,l),
(300,420,l),
(194,420,o),
(110,336,o),
(110,215,c),
(110,94,o),
(194,0,o),
(300,0,c),
(300,30,l)
);
}
);
width = 542;
},
{
anchors = (
{
name = bottom;
pos = (261,0);
},
{
name = top;
pos = (248,440);
}
);
layerId = "410C308F-557C-4D4B-8D78-DF4F3F2F205E";
shapes = (
{
attr = {
strokePos = 0;
};
closed = 1;
nodes = (
(432,0,l),
(432,170,l),
(0,170,l),
(-48,170,o),
(-85,132,o),
(-85,85,c),
(-85,38,o),
(-48,0,o),
(0,0,c)
);
},
{
attr = {
strokePos = "1";
};
closed = 1;
nodes = (
(241,170,o),
(230,181,o),
(230,233,c),
(230,248,o),
(237,270,o),
(250,270,c),
(392,270,l),
(392,440,l),
(250,440,l),
(144,440,o),
(60,349,o),
(60,233,c),
(60,116,o),
(144,0,o),
(250,0,c),
(250,170,l)
);
}
);
width = 492;
},
{
anchors = (
{
name = bottom;
pos = (271,0);
},
{
name = top;
pos = (351,440);
}
);
layerId = "C375229C-5AB5-4F42-B4C5-B05E6279C8CD";
shapes = (
{
attr = {
strokePos = "0";
};
closed = 1;
nodes = (
(572,0,l),
(572,170,l),
(0,170,l),
(-48,170,o),
(-85,132,o),
(-85,85,c),
(-85,38,o),
(-48,0,o),
(0,0,c)
);
},
{
attr = {
strokePos = "1";
};
closed = 1;
nodes = (
(245,170,o),
(240,177,o),
(240,245,c),
(240,261,o),
(249,270,o),
(260,270,c),
(512,270,l),
(512,440,l),
(260,440,l),
(154,440,o),
(70,354,o),
(70,245,c),
(70,126,o),
(154,0,o),
(260,0,c),
(260,170,l)
);
}
);
width = 642;
},
{
anchors = (
{
name = bottom;
pos = (311,0);
},
{
name = top;
pos = (411,440);
}
);
layerId = "3EFBB2FF-E525-4F07-A4DB-42752D5683EA";
shapes = (
{
attr = {
strokePos = "0";
};
closed = 1;
nodes = (
(632,0,l),
(632,30,l),
(0,30,l),
(-8,30,o),
(-15,23,o),
(-15,15,c),
(-15,7,o),
(-8,0,o),
(0,0,c)
);
},
{
attr = {
strokePos = "1";
};
closed = 1;
nodes = (
(211,30,o),
(140,109,o),
(140,215,c),
(140,320,o),
(210,390,o),
(300,390,c),
(572,390,l),
(572,420,l),
(300,420,l),
(194,420,o),
(110,336,o),
(110,215,c),
(110,94,o),
(194,0,o),
(300,0,c),
(300,30,l)
);
}
);
width = 712;
}
);
metricLeft = "kashida-ar";
metricRight = "alef-ar";
},
{
glyphname = "fehDotless-ar";
lastChange = "2025-04-25 13:08:45 +0000";
layers = (
{
anchors = (
{
name = bottom;
pos = (458,0);
}
);
layerId = m01;
shapes = (
{
pos = (270,0);
ref = "fehDotless-ar.init";
},
{
attr = {
strokePos = "0";
};
closed = 1;
nodes = (
(80,80,l),
(80,29,o),
(109,0,o),
(160,0,c),
(270,0,l),
(270,30,l),
(160,30,l),
(126,30,o),
(110,46,o),
(110,80,c),
(110,360,l),
(80,360,l)
);
}
);
width = 765;
},
{
anchors = (
{
name = bottom;
pos = (465,0);
}
);
layerId = "410C308F-557C-4D4B-8D78-DF4F3F2F205E";
shapes = (
{
pos = (320,0);
ref = "fehDotless-ar.init";
},
{
attr = {
strokePos = "0";
};
closed = 1;
nodes = (
(60,80,l),
(60,29,o),
(89,0,o),
(140,0,c),
(320,0,l),
(320,170,l),
(140,170,l),
(159,170,o),
(230,99,o),
(230,80,c),
(230,390,l),
(60,390,l)
);
}
);
width = 812;
},
{
anchors = (
{
name = bottom;
pos = (678,0);
}
);
background = {
shapes = (
{
attr = {
identifier = ID0x13ae18dd0;
lineCapStart = "1";
strokeHeight = 170;
strokePos = "1";
strokeWidth = 160;
};
closed = 0;
nodes = (
(395,0,l),
(835,0,ls),
(898,0,o),
(935,29,o),
(935,80,cs),
(935,440,l)
);
},
{
attr = {
identifier = ID0x13ae18dd0;
strokeHeight = 160;
strokePos = "1";
strokeWidth = 160;
};
closed = 0;
nodes = (
(926,440,l),
(708,440,l),
(576,440,o),
(471,356,o),
(471,250,c),
(471,10,l)
);
},
{
attr = {
strokePos = "0";
strokeWidth = 170;
};
closed = 0;
nodes = (
(395,0,l),
(170,0,ls),
(106,0,o),
(70,29,o),
(70,80,cs),
(70,390,l)
);
}
);
};
layerId = "C375229C-5AB5-4F42-B4C5-B05E6279C8CD";
shapes = (
{
pos = (393,0);
ref = "fehDotless-ar.init";
},
{
attr = {
strokePos = "0";
};
closed = 1;
nodes = (
(70,80,l),
(70,29,o),
(99,0,o),
(150,0,c),
(393,0,l),
(393,170,l),
(150,170,l),
(169,170,o),
(240,99,o),
(240,80,c),
(240,390,l),
(70,390,l)
);
}
);
width = 1005;
},
{
anchors = (
{
name = bottom;
pos = (650,0);
}
);
background = {
shapes = (
{
attr = {
identifier = ID0x13ae33370;
lineCapStart = "1";
strokeHeight = 30;
strokePos = "1";
strokeWidth = 30;
};
closed = 0;
nodes = (
(348,0,l),
(767,0,ls),
(830,0,o),
(867,29,o),
(867,80,cs),
(867,420,l)
);
},
{
attr = {
identifier = ID0x13ae33370;
strokeHeight = 30;
strokePos = "1";
strokeWidth = 30;
};
closed = 0;
nodes = (
(858,420,l),
(723,420,ls),
(590,420,o),
(485,336,o),
(485,230,cs),
(485,10,l)
);
},
{
attr = {
strokePos = "0";
strokeWidth = 30;
};
closed = 0;
nodes = (
(348,0,l),
(210,0,ls),
(147,0,o),
(110,29,o),
(110,80,cs),
(110,360,l)
);
}
);
};
layerId = "3EFBB2FF-E525-4F07-A4DB-42752D5683EA";
shapes = (
{
pos = (266,0);
ref = "fehDotless-ar.init";
},
{
attr = {
strokePos = "0";
};
closed = 1;
nodes = (
(80,80,l),
(80,29,o),
(109,0,o),
(160,0,c),
(266,0,l),
(266,30,l),
(160,30,l),
(126,30,o),
(110,46,o),
(110,80,c),
(110,360,l),
(80,360,l)
);
}
);
width = 917;
}
);
metricLeft = "alef-ar";
metricRight = "alef-ar";
unicode = 1697;
},
{
glyphname = "fehDotless-ar.fina";
lastChange = "2025-04-25 13:08:49 +0000";
layers = (
{
layerId = m01;
shapes = (
{
attr = {
strokePos = 1;
};
closed = 1;
nodes = (
(605,30,l),
(597,30,o),
(590,23,o),
(590,15,c),
(590,7,o),
(597,0,o),
(605,0,c),
(795,0,l),
(795,30,l)
);
},
{
ref = "fehDotless-ar";
}
);
width = 795;
},
{
layerId = "410C308F-557C-4D4B-8D78-DF4F3F2F205E";
shapes = (
{
attr = {
strokePos = 1;
};
closed = 1;
nodes = (
(672,170,l),
(625,170,o),
(587,132,o),
(587,85,c),
(587,38,o),
(625,0,o),
(672,0,c),
(812,0,l),
(812,170,l)
);
},
{
ref = "fehDotless-ar";
}
);
width = 812;
},
{
layerId = "C375229C-5AB5-4F42-B4C5-B05E6279C8CD";
shapes = (
{
attr = {
strokePos = 1;
};
closed = 1;
nodes = (
(855,170,l),
(808,170,o),
(770,132,o),
(770,85,c),
(770,38,o),
(808,0,o),
(855,0,c),
(1005,0,l),
(1005,170,l)
);
},
{
ref = "fehDotless-ar";
}
);
width = 1005;
},
{
layerId = "3EFBB2FF-E525-4F07-A4DB-42752D5683EA";
shapes = (
{
attr = {
strokePos = 1;
};
closed = 1;
nodes = (
(757,30,l),
(749,30,o),
(742,23,o),
(742,15,c),
(742,7,o),
(749,0,o),
(757,0,c),
(947,0,l),
(947,30,l)
);
},
{
ref = "fehDotless-ar";
}
);
width = 947;
}
);
metricLeft = "alef-ar";
metricRight = "kashida-ar";
},
{
glyphname = "fehDotless-ar.medi";
lastChange = "2025-04-25 13:08:53 +0000";
layers = (
{
layerId = m01;
shapes = (
{
attr = {
strokePos = 1;
};
closed = 1;
nodes = (
(335,30,l),
(327,30,o),
(320,23,o),
(320,15,c),
(320,7,o),
(327,0,o),
(335,0,c),
(525,0,l),
(525,30,l)
);
},
{
ref = "fehDotless-ar.init";
}
);
width = 525;
},
{
layerId = "410C308F-557C-4D4B-8D78-DF4F3F2F205E";
shapes = (
{
attr = {
strokePos = 1;
};
closed = 1;
nodes = (
(352,170,l),
(305,170,o),
(267,132,o),
(267,85,c),
(267,38,o),
(305,0,o),
(352,0,c),
(492,0,l),
(492,170,l)
);
},
{
ref = "fehDotless-ar.init";
}
);
width = 492;
},
{
layerId = "C375229C-5AB5-4F42-B4C5-B05E6279C8CD";
shapes = (
{
attr = {
strokePos = 1;
};
closed = 1;
nodes = (
(462,170,l),
(415,170,o),
(377,132,o),
(377,85,c),
(377,38,o),
(415,0,o),
(462,0,c),
(612,0,l),
(612,170,l)
);
},
{
ref = "fehDotless-ar.init";
}
);
width = 612;
},
{
layerId = "3EFBB2FF-E525-4F07-A4DB-42752D5683EA";
shapes = (
{
attr = {
strokePos = 1;
};
closed = 1;
nodes = (
(491,30,l),
(483,30,o),
(476,23,o),
(476,15,c),
(476,7,o),
(483,0,o),
(491,0,c),
(681,0,l),
(681,30,l)
);
},
{
ref = "fehDotless-ar.init";
}
);
width = 681;
}
);
metricLeft = "kashida-ar";
metricRight = "kashida-ar";
},
{
glyphname = "fehDotless-ar.init";
lastChange = "2025-04-25 13:20:16 +0000";
layers = (
{
anchors = (
{
name = bottom;
pos = (255,0);
},
{
name = top;
pos = (255,440);
}
);
layerId = m01;
shapes = (
{
attr = {
strokePos = "1";
};
closed = 1;
nodes = (
(385,80,l),
(385,46,o),
(369,30,o),
(335,30,c),
(0,30,l),
(-8,30,o),
(-15,23,o),
(-15,15,c),
(-15,7,o),
(-8,0,o),
(0,0,c),
(335,0,l),
(386,0,o),
(415,29,o),
(415,80,c),
(415,420,l),
(385,420,l)
);
},
{
attr = {
strokePos = "1";
};
closed = 1;
nodes = (
(130,230,l),
(130,320,o),
(200,390,o),
(290,390,c),
(408,390,l),
(408,420,l),
(290,420,l),
(184,420,o),
(100,336,o),
(100,230,c),
(100,10,l),
(130,10,l)
);
}
);
width = 495;
},
{
anchors = (
{
name = bottom;
pos = (272,0);
},
{
name = top;
pos = (272,440);
}
);
layerId = "410C308F-557C-4D4B-8D78-DF4F3F2F205E";
shapes = (
{
attr = {
strokePos = "1";
};
closed = 1;
nodes = (
(262,80,l),
(262,99,o),
(333,170,o),
(352,170,c),
(0,170,l),
(-48,170,o),
(-85,132,o),
(-85,85,c),
(-85,38,o),
(-48,0,o),
(0,0,c),
(352,0,l),
(403,0,o),
(432,29,o),
(432,80,c),
(432,440,l),
(262,440,l)
);
},
{
attr = {
strokePos = "1";
};
closed = 1;
nodes = (
(217,250,l),
(217,270,o),
(226,280,o),
(237,280,c),
(425,280,l),
(425,440,l),
(237,440,l),
(131,440,o),
(47,356,o),
(47,250,c),
(47,10,l),
(217,10,l)
);
}
);
width = 492;
},
{
anchors = (
{
name = bottom;
pos = (312,0);
},
{
name = top;
pos = (312,440);
}
);
layerId = "C375229C-5AB5-4F42-B4C5-B05E6279C8CD";
shapes = (
{
attr = {
strokePos = "1";
};
closed = 1;
nodes = (
(372,80,l),
(372,99,o),
(443,170,o),
(462,170,c),
(0,170,l),
(-48,170,o),
(-85,132,o),
(-85,85,c),
(-85,38,o),
(-48,0,o),
(0,0,c),
(462,0,l),
(513,0,o),
(542,29,o),
(542,80,c),
(542,440,l),
(372,440,l)
);
},
{
attr = {
strokePos = "1";
};
closed = 1;
nodes = (
(227,250,l),
(227,270,o),
(236,280,o),
(247,280,c),
(535,280,l),
(535,440,l),
(247,440,l),
(141,440,o),
(57,356,o),
(57,250,c),
(57,10,l),
(227,10,l)
);
}
);
width = 612;
},
{
anchors = (
{
name = bottom;
pos = (311,0);
},
{
name = top;
pos = (411,440);
}
);
layerId = "3EFBB2FF-E525-4F07-A4DB-42752D5683EA";
shapes = (
{
attr = {
strokePos = "1";
};
closed = 1;
nodes = (
(541,80,l),
(541,46,o),
(525,30,o),
(491,30,c),
(0,30,l),
(-8,30,o),
(-15,23,o),
(-15,15,c),
(-15,7,o),
(-8,0,o),
(0,0,c),
(491,0,l),
(542,0,o),
(571,29,o),
(571,80,c),
(571,420,l),
(541,420,l)
);
},
{
attr = {
strokePos = "1";
};
closed = 1;
nodes = (
(186,230,l),
(186,320,o),
(256,390,o),
(346,390,c),
(564,390,l),
(564,420,l),
(346,420,l),
(240,420,o),
(156,336,o),
(156,230,c),
(156,10,l),
(186,10,l)
);
}
);
width = 651;
}
);
metricLeft = "kashida-ar";
metricRight = "alef-ar";
},
{
glyphname = "qafDotless-ar";
lastChange = "2025-04-25 13:28:56 +0000";
layers = (
{
anchors = (
{
name = bottom;
pos = (297,-180);
},
{
name = top;
pos = (473,440);
}
);
layerId = m01;
shapes = (
{
attr = {
strokePos = "1";
};
closed = 1;
nodes = (
(298,30,l),
(298,230,ls),
(298,320,o),
(368,390,o),
(458,390,cs),
(573,390,l),
(573,420,l),
(458,420,ls),
(352,420,o),
(268,336,o),
(268,230,cs),
(268,0,l),
(573,0,l),
(573,30,l)
);
},
{
attr = {
strokePos = "0";
};
closed = 1;
nodes = (
(80,10,ls),
(80,-113,o),
(147,-180,o),
(270,-180,cs),
(393,-180,ls),
(516,-180,o),
(583,-113,o),
(583,10,cs),
(583,420,l),
(553,420,l),
(553,10,ls),
(553,-96,o),
(499,-150,o),
(393,-150,cs),
(270,-150,ls),
(164,-150,o),
(110,-96,o),
(110,10,cs),
(110,280,l),
(80,280,l)
);
}
);
width = 663;
},
{
anchors = (
{
name = bottom;
pos = (362,-200);
},
{
name = top;
pos = (488,440);
}
);
layerId = "410C308F-557C-4D4B-8D78-DF4F3F2F205E";
shapes = (
{
attr = {
strokePos = "1";
};
closed = 1;
nodes = (
(433,165,l),
(433,250,ls),
(433,266,o),
(442,275,o),
(453,275,cs),
(638,275,l),
(638,440,l),
(453,440,ls),
(347,440,o),
(263,356,o),
(263,250,cs),
(263,0,l),
(638,0,l),
(638,165,l)
);
},
{
attr = {
strokePos = "0";
};
closed = 1;
nodes = (
(60,-10,ls),
(60,-133,o),
(127,-200,o),
(250,-200,cs),
(458,-200,ls),
(581,-200,o),
(648,-133,o),
(648,-10,cs),
(648,440,l),
(478,440,l),
(478,-10,ls),
(478,-30,o),
(478,-30,o),
(458,-30,cs),
(250,-30,ls),
(230,-30,o),
(230,-30,o),
(230,-10,cs),
(230,280,l),
(60,280,l)
);
}
);
width = 708;
},
{
anchors = (
{
name = bottom;
pos = (354,-200);
},
{
name = top;
pos = (518,440);
}
);
layerId = "C375229C-5AB5-4F42-B4C5-B05E6279C8CD";
shapes = (
{
attr = {
strokePos = "1";
};
closed = 1;
nodes = (
(443,165,l),
(443,250,ls),
(443,266,o),
(452,275,o),
(463,275,cs),
(748,275,l),
(748,440,l),
(463,440,ls),
(357,440,o),
(273,356,o),
(273,250,cs),
(273,0,l),
(748,0,l),
(748,165,l)
);
},
{
attr = {
strokePos = "0";
};
closed = 1;
nodes = (
(70,-10,ls),
(70,-133,o),
(137,-200,o),
(260,-200,cs),
(568,-200,ls),
(691,-200,o),
(758,-133,o),
(758,-10,cs),
(758,440,l),
(588,440,l),
(588,-10,ls),
(588,-30,o),
(588,-30,o),
(568,-30,cs),
(260,-30,ls),
(240,-30,o),
(240,-30,o),
(240,-10,cs),
(240,280,l),
(70,280,l)
);
}
);
width = 828;
},
{
anchors = (
{
name = bottom;
pos = (382,-180);
},
{
name = top;
pos = (548,440);
}
);
layerId = "3EFBB2FF-E525-4F07-A4DB-42752D5683EA";
shapes = (
{
attr = {
strokePos = "1";
};
closed = 1;
nodes = (
(323,30,l),
(323,230,ls),
(323,320,o),
(393,390,o),
(483,390,cs),
(698,390,l),
(698,420,l),
(483,420,ls),
(377,420,o),
(293,336,o),
(293,230,cs),
(293,0,l),
(698,0,l),
(698,30,l)
);
},
{
attr = {
strokePos = "0";
};
closed = 1;
nodes = (
(80,10,ls),
(80,-113,o),
(147,-180,o),
(270,-180,cs),
(493,-180,ls),
(616,-180,o),
(708,-113,o),
(708,10,cs),
(708,420,l),
(678,420,l),
(678,10,ls),
(678,-95,o),
(602,-150,o),
(493,-150,cs),
(270,-150,ls),
(164,-150,o),
(110,-96,o),
(110,10,cs),
(110,280,l),
(80,280,l)
);
}
);
width = 788;
}
);
metricLeft = "alef-ar";
metricRight = "alef-ar";
unicode = 1647;
},
{
glyphname = "qafDotless-ar.fina";
lastChange = "2025-04-25 13:09:09 +0000";
layers = (
{
layerId = m01;
shapes = (
{
attr = {
strokePos = 1;
};
closed = 1;
nodes = (
(573,30,l),
(573,0,l),
(693,0,l),
(693,30,l)
);
},
{
ref = "qafDotless-ar";
}
);
width = 693;
},
{
layerId = "410C308F-557C-4D4B-8D78-DF4F3F2F205E";
shapes = (
{
attr = {
strokePos = 1;
};
closed = 1;
nodes = (
(638,170,l),
(638,0,l),
(708,0,l),
(708,170,l)
);
},
{
ref = "qafDotless-ar";
}
);
width = 708;
},
{
layerId = "C375229C-5AB5-4F42-B4C5-B05E6279C8CD";
shapes = (
{
attr = {
strokePos = 1;
};
closed = 1;
nodes = (
(748,170,l),
(748,0,l),
(828,0,l),
(828,170,l)
);
},
{
ref = "qafDotless-ar";
}
);
width = 828;
},
{
layerId = "3EFBB2FF-E525-4F07-A4DB-42752D5683EA";
shapes = (
{
attr = {
strokePos = 1;
};
closed = 1;
nodes = (
(698,30,l),
(698,0,l),
(818,0,l),
(818,30,l)
);
},
{
ref = "qafDotless-ar";
}
);
width = 818;
}
);
metricLeft = "alef-ar";
metricRight = "kashida-ar";
},
{
glyphname = "kaf-ar";
lastChange = "2025-04-25 13:09:13 +0000";
layers = (
{
anchors = (
{
name = bottom;
pos = (332,0);
},
{
name = top;
pos = (332,519);
}
);
background = {
shapes = (
{
ref = "behDotless-ar";
}
);
};
layerId = m01;
shapes = (
{
attr = {
strokePos = "0";
};
closed = 1;
nodes = (
(80,80,l),
(80,29,o),
(109,0,o),
(160,0,c),
(505,0,l),
(556,0,o),
(585,29,o),
(585,80,c),
(585,640,l),
(555,640,l),
(555,80,l),
(555,46,o),
(539,30,o),
(505,30,c),
(160,30,l),
(126,30,o),
(110,46,o),
(110,80,c),
(110,360,l),
(80,360,l)
);
},
{
attr = {
identifier = ID0x118a0c1a0;
};
closed = 1;
nodes = (
(305,479,l),
(283,479,o),
(265,461,o),
(265,439,c),
(265,399,l),
(365,399,l),
(376,399,o),
(384,391,o),
(384,381,c),
(384,360,l),
(384,358,o),
(391,365,o),
(389,365,c),
(265,365,l),
(265,343,l),
(389,343,l),
(399,343,o),
(406,350,o),
(406,360,c),
(406,381,l),
(406,403,o),
(388,421,o),
(365,421,c),
(287,421,l),
(287,439,l),
(287,449,o),
(295,457,o),
(305,457,c),
(365,457,l),
(365,479,l)
);
}
);
width = 665;
},
{
anchors = (
{
name = bottom;
pos = (346,0);
},
{
name = top;
pos = (346,519);
}
);
background = {
shapes = (
{
ref = "behDotless-ar";
}
);
};
layerId = "410C308F-557C-4D4B-8D78-DF4F3F2F205E";
shapes = (
{
attr = {
strokePos = "0";
};
closed = 1;
nodes = (
(60,80,l),
(60,29,o),
(89,0,o),
(140,0,c),
(555,0,l),
(606,0,o),
(635,29,o),
(635,80,c),
(635,640,l),
(465,640,l),
(465,80,l),
(465,99,o),
(536,170,o),
(555,170,c),
(140,170,l),
(159,170,o),
(230,99,o),
(230,80,c),
(230,390,l),
(60,390,l)
);
},
{
attr = {
identifier = ID0x118a0c1a0;
};
closed = 1;
nodes = (
(318,498,l),
(288,498,o),
(264,474,o),
(264,444,c),
(264,390,l),
(378,390,l),
(380,390,o),
(383,389,o),
(383,386,c),
(383,363,l),
(383,359,o),
(406,382,o),
(402,382,c),
(264,382,l),
(264,332,l),
(402,332,l),
(420,332,o),
(433,345,o),
(433,363,c),
(433,386,l),
(433,416,o),
(409,440,o),
(378,440,c),
(314,440,l),
(314,444,l),
(314,446,o),
(316,448,o),
(318,448,c),
(378,448,l),
(378,498,l)
);
}
);
width = 695;
},
{
anchors = (
{
name = bottom;
pos = (435,0);
},
{
name = top;
pos = (435,519);
}
);
background = {
shapes = (
{
ref = "behDotless-ar";
}
);
};
layerId = "C375229C-5AB5-4F42-B4C5-B05E6279C8CD";
shapes = (
{
attr = {
strokePos = "0";
};
closed = 1;
nodes = (
(70,80,l),
(70,29,o),
(99,0,o),
(150,0,c),
(725,0,l),
(776,0,o),
(805,29,o),
(805,80,c),
(805,640,l),
(635,640,l),
(635,80,l),
(635,99,o),
(706,170,o),
(725,170,c),
(150,170,l),
(169,170,o),
(240,99,o),
(240,80,c),
(240,390,l),
(70,390,l)
);
},
{
attr = {
identifier = ID0x118a0c1a0;
};
closed = 1;
nodes = (
(415,498,l),
(385,498,o),
(361,474,o),
(361,444,c),
(361,390,l),
(475,390,l),
(477,390,o),
(480,389,o),
(480,386,c),
(480,363,l),
(480,359,o),
(503,382,o),
(499,382,c),
(361,382,l),
(361,332,l),
(499,332,l),
(517,332,o),
(530,345,o),
(530,363,c),
(530,386,l),
(530,416,o),
(506,440,o),
(475,440,c),
(411,440,l),
(411,444,l),
(411,446,o),
(413,448,o),
(415,448,c),
(475,448,l),
(475,498,l)
);
}
);
width = 875;
},
{
anchors = (
{
name = bottom;
pos = (413,0);
},
{
name = top;
pos = (413,519);
}
);
background = {
shapes = (
{
ref = "behDotless-ar";
}
);
};
layerId = "3EFBB2FF-E525-4F07-A4DB-42752D5683EA";
shapes = (
{
attr = {
strokePos = "0";
};
closed = 1;
nodes = (
(80,80,l),
(80,29,o),
(109,0,o),
(160,0,c),
(665,0,l),
(716,0,o),
(745,29,o),
(745,80,c),
(745,640,l),
(715,640,l),
(715,80,l),
(715,46,o),
(699,30,o),
(665,30,c),
(160,30,l),
(126,30,o),
(110,46,o),
(110,80,c),
(110,360,l),
(80,360,l)
);
},
{
attr = {
identifier = ID0x118a0c1a0;
};
closed = 1;
nodes = (
(385,479,l),
(363,479,o),
(345,461,o),
(345,439,c),
(345,399,l),
(445,399,l),
(456,399,o),
(464,391,o),
(464,381,c),
(464,360,l),
(464,358,o),
(471,365,o),
(469,365,c),
(345,365,l),
(345,343,l),
(469,343,l),
(479,343,o),
(486,350,o),
(486,360,c),
(486,381,l),
(486,403,o),
(468,421,o),
(445,421,c),
(367,421,l),
(367,439,l),
(367,449,o),
(375,457,o),
(385,457,c),
(445,457,l),
(445,479,l)
);
}
);
width = 825;
}
);
metricLeft = "alef-ar";
metricRight = "alef-ar";
unicode = 1603;
},
{
glyphname = "kaf-ar.fina";
lastChange = "2025-04-25 13:09:17 +0000";
layers = (
{
layerId = m01;
shapes = (
{
ref = "kaf-ar";
},
{
attr = {
strokePos = 1;
};
closed = 1;
nodes = (
(506,30,l),
(498,30,o),
(491,23,o),
(491,15,c),
(491,7,o),
(498,0,o),
(506,0,c),
(695,0,l),
(695,30,l)
);
}
);
width = 695;
},
{
layerId = "410C308F-557C-4D4B-8D78-DF4F3F2F205E";
shapes = (
{
ref = "kaf-ar";
},
{
attr = {
strokePos = 1;
};
closed = 1;
nodes = (
(555,170,l),
(508,170,o),
(470,132,o),
(470,85,c),
(470,38,o),
(508,0,o),
(555,0,c),
(695,0,l),
(695,170,l)
);
}
);
width = 695;
},
{
layerId = "C375229C-5AB5-4F42-B4C5-B05E6279C8CD";
shapes = (
{
ref = "kaf-ar";
},
{
attr = {
strokePos = 1;
};
closed = 1;
nodes = (
(725,170,l),
(678,170,o),
(640,132,o),
(640,85,c),
(640,38,o),
(678,0,o),
(725,0,c),
(875,0,l),
(875,170,l)
);
}
);
width = 875;
},
{
layerId = "3EFBB2FF-E525-4F07-A4DB-42752D5683EA";
shapes = (
{
ref = "kaf-ar";
},
{
attr = {
strokePos = 1;
};
closed = 1;
nodes = (
(666,30,l),
(658,30,o),
(651,23,o),
(651,15,c),
(651,7,o),
(658,0,o),
(666,0,c),
(855,0,l),
(855,30,l)
);
}
);
width = 855;
}
);
metricLeft = "alef-ar";
metricRight = "kashida-ar";
},
{
glyphname = "kaf-ar.medi";
lastChange = "2025-04-25 13:09:20 +0000";
layers = (
{
layerId = m01;
shapes = (
{
ref = "kaf-ar.init";
},
{
attr = {
strokePos = 1;
};
closed = 1;
nodes = (
(417,30,l),
(409,30,o),
(402,23,o),
(402,15,c),
(402,7,o),
(409,0,o),
(417,0,c),
(607,0,l),
(607,30,l)
);
}
);
width = 607;
},
{
layerId = "410C308F-557C-4D4B-8D78-DF4F3F2F205E";
shapes = (
{
ref = "kaf-ar.init";
},
{
attr = {
strokePos = 1;
};
closed = 1;
nodes = (
(437,170,l),
(390,170,o),
(352,132,o),
(352,85,c),
(352,38,o),
(390,0,o),
(437,0,c),
(577,0,l),
(577,170,l)
);
}
);
width = 577;
},
{
layerId = "C375229C-5AB5-4F42-B4C5-B05E6279C8CD";
shapes = (
{
ref = "kaf-ar.init";
},
{
attr = {
strokePos = 1;
};
closed = 1;
nodes = (
(607,170,l),
(560,170,o),
(522,132,o),
(522,85,c),
(522,38,o),
(560,0,o),
(607,0,c),
(757,0,l),
(757,170,l)
);
}
);
width = 757;
},
{
layerId = "3EFBB2FF-E525-4F07-A4DB-42752D5683EA";
shapes = (
{
ref = "kaf-ar.init";
},
{
attr = {
strokePos = 1;
};
closed = 1;
nodes = (
(577,30,l),
(569,30,o),
(562,23,o),
(562,15,c),
(562,7,o),
(569,0,o),
(577,0,c),
(767,0,l),
(767,30,l)
);
}
);
width = 767;
}
);
metricLeft = "kashida-ar";
metricRight = "kashida-ar";
},
{
glyphname = "kaf-ar.init";
lastChange = "2025-04-25 13:09:23 +0000";
layers = (
{
anchors = (
{
name = bottom;
pos = (261,0);
},
{
name = top;
pos = (220,640);
}
);
layerId = m01;
shapes = (
{
attr = {
strokePos = "1";
};
closed = 1;
nodes = (
(90,452,l),
(90,542,o),
(160,612,o),
(250,612,c),
(374,612,l),
(374,642,l),
(250,642,l),
(144,642,o),
(60,558,o),
(60,452,c),
(60,317,l),
(90,317,l)
);
},
{
attr = {
strokePos = "1";
};
closed = 1;
nodes = (
(307,316,l),
(397,316,o),
(467,246,o),
(467,156,c),
(467,80,l),
(467,46,o),
(451,30,o),
(417,30,c),
(0,30,l),
(-8,30,o),
(-15,23,o),
(-15,15,c),
(-15,7,o),
(-8,0,o),
(0,0,c),
(417,0,l),
(468,0,o),
(497,29,o),
(497,80,c),
(497,156,l),
(497,262,o),
(413,346,o),
(307,346,c),
(60,346,l),
(60,316,l)
);
}
);
width = 577;
},
{
anchors = (
{
name = bottom;
pos = (239,0);
},
{
name = top;
pos = (198,640);
}
);
layerId = "410C308F-557C-4D4B-8D78-DF4F3F2F205E";
shapes = (
{
attr = {
strokePos = "1";
};
closed = 1;
nodes = (
(220,450,l),
(220,478,o),
(230,488,o),
(240,488,c),
(364,488,l),
(364,640,l),
(240,640,l),
(134,640,o),
(50,556,o),
(50,450,c),
(50,269,l),
(220,269,l)
);
},
{
attr = {
strokePos = "1";
};
closed = 1;
nodes = (
(327,248,l),
(339,248,o),
(347,240,o),
(347,228,c),
(347,80,l),
(347,99,o),
(418,170,o),
(437,170,c),
(0,170,l),
(-48,170,o),
(-85,132,o),
(-85,85,c),
(-85,38,o),
(-48,0,o),
(0,0,c),
(437,0,l),
(488,0,o),
(517,29,o),
(517,80,c),
(517,228,l),
(517,334,o),
(433,418,o),
(327,418,c),
(50,418,l),
(50,248,l)
);
}
);
width = 577;
},
{
anchors = (
{
name = bottom;
pos = (209,0);
},
{
name = top;
pos = (168,640);
}
);
layerId = "C375229C-5AB5-4F42-B4C5-B05E6279C8CD";
shapes = (
{
attr = {
strokePos = "1";
};
closed = 1;
nodes = (
(230,450,l),
(230,478,o),
(240,488,o),
(250,488,c),
(534,488,l),
(534,640,l),
(250,640,l),
(144,640,o),
(60,556,o),
(60,450,c),
(60,269,l),
(230,269,l)
);
},
{
attr = {
strokePos = "1";
};
closed = 1;
nodes = (
(497,248,l),
(509,248,o),
(517,240,o),
(517,228,c),
(517,80,l),
(517,99,o),
(588,170,o),
(607,170,c),
(0,170,l),
(-48,170,o),
(-85,132,o),
(-85,85,c),
(-85,38,o),
(-48,0,o),
(0,0,c),
(607,0,l),
(658,0,o),
(687,29,o),
(687,80,c),
(687,228,l),
(687,334,o),
(603,418,o),
(497,418,c),
(60,418,l),
(60,248,l)
);
}
);
width = 757;
},
{
anchors = (
{
name = bottom;
pos = (301,0);
},
{
name = top;
pos = (301,640);
}
);
layerId = "3EFBB2FF-E525-4F07-A4DB-42752D5683EA";
shapes = (
{
attr = {
strokePos = "1";
};
closed = 1;
nodes = (
(90,452,l),
(90,542,o),
(160,612,o),
(250,612,c),
(534,612,l),
(534,642,l),
(250,642,l),
(144,642,o),
(60,558,o),
(60,452,c),
(60,317,l),
(90,317,l)
);
},
{
attr = {
strokePos = "1";
};
closed = 1;
nodes = (
(467,316,l),
(557,316,o),
(627,246,o),
(627,156,c),
(627,80,l),
(627,46,o),
(611,30,o),
(577,30,c),
(0,30,l),
(-8,30,o),
(-15,23,o),
(-15,15,c),
(-15,7,o),
(-8,0,o),
(0,0,c),
(577,0,l),
(628,0,o),
(657,29,o),
(657,80,c),
(657,156,l),
(657,262,o),
(573,346,o),
(467,346,c),
(60,346,l),
(60,316,l)
);
}
);
width = 737;
}
);
metricLeft = "kashida-ar";
metricRight = "alef-ar";
},
{
glyphname = "keheh-ar";
lastChange = "2025-04-25 13:09:27 +0000";
layers = (
{
layerId = m01;
shapes = (
{
pos = (190,0);
ref = "keheh-ar.init";
},
{
attr = {
strokePos = 1;
};
closed = 1;
nodes = (
(160,30,l),
(126,30,o),
(110,46,o),
(110,80,c),
(110,330,l),
(80,330,l),
(80,80,l),
(80,29,o),
(109,0,o),
(160,0,c),
(190,0,l),
(190,30,l)
);
}
);
width = 767;
},
{
layerId = "410C308F-557C-4D4B-8D78-DF4F3F2F205E";
shapes = (
{
pos = (240,0);
ref = "keheh-ar.init";
},
{
attr = {
strokePos = "1";
};
closed = 1;
nodes = (
(140,170,l),
(159,170,o),
(230,99,o),
(230,80,c),
(230,330,l),
(60,330,l),
(60,80,l),
(60,29,o),
(89,0,o),
(140,0,c),
(240,0,l),
(240,170,l)
);
}
);
width = 817;
},
{
layerId = "C375229C-5AB5-4F42-B4C5-B05E6279C8CD";
shapes = (
{
pos = (250,0);
ref = "keheh-ar.init";
},
{
attr = {
strokePos = "1";
};
closed = 1;
nodes = (
(150,170,l),
(169,170,o),
(240,99,o),
(240,80,c),
(240,330,l),
(70,330,l),
(70,80,l),
(70,29,o),
(99,0,o),
(150,0,c),
(250,0,l),
(250,170,l)
);
}
);
width = 1007;
},
{
layerId = "3EFBB2FF-E525-4F07-A4DB-42752D5683EA";
shapes = (
{
pos = (190,0);
ref = "keheh-ar.init";
},
{
attr = {
strokePos = 1;
};
closed = 1;
nodes = (
(160,30,l),
(126,30,o),
(110,46,o),
(110,80,c),
(110,330,l),
(80,330,l),
(80,80,l),
(80,29,o),
(109,0,o),
(160,0,c),
(190,0,l),
(190,30,l)
);
}
);
width = 927;
}
);
metricLeft = "kaf-ar";
metricRight = "kaf-ar.init";
unicode = 1705;
},
{
glyphname = "keheh-ar.fina";
lastChange = "2025-04-25 13:09:30 +0000";
layers = (
{
layerId = m01;
shapes = (
{
ref = "keheh-ar";
},
{
attr = {
strokePos = "1";
};
closed = 1;
nodes = (
(607,30,l),
(599,30,o),
(592,23,o),
(592,15,c),
(592,7,o),
(599,0,o),
(607,0,c),
(797,0,l),
(797,30,l)
);
}
);
width = 797;
},
{
layerId = "410C308F-557C-4D4B-8D78-DF4F3F2F205E";
shapes = (
{
ref = "keheh-ar";
},
{
attr = {
strokePos = "1";
};
closed = 1;
nodes = (
(677,170,l),
(630,170,o),
(592,132,o),
(592,85,c),
(592,38,o),
(630,0,o),
(677,0,c),
(817,0,l),
(817,170,l)
);
}
);
width = 817;
},
{
layerId = "C375229C-5AB5-4F42-B4C5-B05E6279C8CD";
shapes = (
{
ref = "keheh-ar";
},
{
attr = {
strokePos = "1";
};
closed = 1;
nodes = (
(857,170,l),
(810,170,o),
(772,132,o),
(772,85,c),
(772,38,o),
(810,0,o),
(857,0,c),
(1007,0,l),
(1007,170,l)
);
}
);
width = 1007;
},
{
layerId = "3EFBB2FF-E525-4F07-A4DB-42752D5683EA";
shapes = (
{
ref = "keheh-ar";
},
{
attr = {
strokePos = "1";
};
closed = 1;
nodes = (
(767,30,l),
(759,30,o),
(752,23,o),
(752,15,c),
(752,7,o),
(759,0,o),
(767,0,c),
(957,0,l),
(957,30,l)
);
}
);
width = 957;
}
);
metricLeft = "kaf-ar";
metricRight = "kashida-ar";
},
{
glyphname = "lam-ar";
lastChange = "2025-04-25 13:30:12 +0000";
layers = (
{
anchors = (
{
name = bottom;
pos = (270,-160);
},
{
name = top;
pos = (273,481);
}
);
layerId = m01;
shapes = (
{
attr = {
strokePos = "0";
};
closed = 1;
nodes = (
(80,30,l),
(80,-93,o),
(147,-160,o),
(270,-160,c),
(316,-160,l),
(439,-160,o),
(506,-93,o),
(506,30,c),
(506,640,l),
(476,640,l),
(476,30,l),
(476,-76,o),
(422,-130,o),
(316,-130,c),
(270,-130,l),
(164,-130,o),
(110,-76,o),
(110,30,c),
(110,280,l),
(80,280,l)
);
}
);
width = 586;
},
{
anchors = (
{
name = bottom;
pos = (250,-160);
},
{
name = top;
pos = (238,481);
}
);
layerId = "410C308F-557C-4D4B-8D78-DF4F3F2F205E";
shapes = (
{
attr = {
strokePos = "0";
};
closed = 1;
nodes = (
(60,30,ls),
(60,-93,o),
(127,-160,o),
(250,-160,cs),
(366,-160,ls),
(489,-160,o),
(556,-93,o),
(556,30,cs),
(556,640,l),
(386,640,l),
(386,30,ls),
(386,10,o),
(386,10,o),
(366,10,cs),
(250,10,ls),
(230,10,o),
(230,10,o),
(230,30,cs),
(230,280,l),
(60,280,l)
);
}
);
width = 616;
},
{
anchors = (
{
name = bottom;
pos = (388,-160);
},
{
name = top;
pos = (388,481);
}
);
layerId = "C375229C-5AB5-4F42-B4C5-B05E6279C8CD";
shapes = (
{
attr = {
strokePos = "0";
};
closed = 1;
nodes = (
(70,30,ls),
(70,-93,o),
(137,-160,o),
(260,-160,cs),
(516,-160,ls),
(639,-160,o),
(706,-93,o),
(706,30,cs),
(706,640,l),
(536,640,l),
(536,30,ls),
(536,10,o),
(536,10,o),
(516,10,cs),
(260,10,ls),
(240,10,o),
(240,10,o),
(240,30,cs),
(240,280,l),
(70,280,l)
);
}
);
width = 776;
},
{
anchors = (
{
name = bottom;
pos = (373,-160);
},
{
name = top;
pos = (373,481);
}
);
layerId = "3EFBB2FF-E525-4F07-A4DB-42752D5683EA";
shapes = (
{
attr = {
strokePos = "0";
};
closed = 1;
nodes = (
(80,30,ls),
(80,-93,o),
(147,-160,o),
(270,-160,cs),
(456,-160,ls),
(579,-160,o),
(646,-93,o),
(646,30,cs),
(646,640,l),
(616,640,l),
(616,30,ls),
(616,-76,o),
(562,-130,o),
(456,-130,cs),
(270,-130,ls),
(164,-130,o),
(110,-76,o),
(110,30,cs),
(110,280,l),
(80,280,l)
);
}
);
width = 726;
}
);
metricLeft = "alef-ar";
metricRight = "alef-ar";
unicode = 1604;
},
{
glyphname = "lam-ar.fina";
lastChange = "2025-04-25 13:10:13 +0000";
layers = (
{
layerId = m01;
shapes = (
{
ref = "lam-ar";
},
{
attr = {
strokePos = 1;
};
closed = 1;
nodes = (
(496,30,l),
(496,0,l),
(616,0,l),
(616,30,l)
);
}
);
width = 616;
},
{
layerId = "410C308F-557C-4D4B-8D78-DF4F3F2F205E";
shapes = (
{
ref = "lam-ar";
},
{
attr = {
strokePos = 1;
};
closed = 1;
nodes = (
(546,170,l),
(546,0,l),
(616,0,l),
(616,170,l)
);
}
);
width = 616;
},
{
layerId = "C375229C-5AB5-4F42-B4C5-B05E6279C8CD";
shapes = (
{
ref = "lam-ar";
},
{
attr = {
strokePos = 1;
};
closed = 1;
nodes = (
(696,170,l),
(696,0,l),
(776,0,l),
(776,170,l)
);
}
);
width = 776;
},
{
layerId = "3EFBB2FF-E525-4F07-A4DB-42752D5683EA";
shapes = (
{
ref = "lam-ar";
},
{
attr = {
strokePos = 1;
};
closed = 1;
nodes = (
(636,30,l),
(636,0,l),
(756,0,l),
(756,30,l)
);
}
);
width = 756;
}
);
metricLeft = "alef-ar";
metricRight = "kashida-ar";
},
{
glyphname = "lam-ar.medi";
lastChange = "2025-04-25 13:10:10 +0000";
layers = (
{
layerId = m01;
shapes = (
{
attr = {
strokePos = 1;
};
closed = 1;
nodes = (
(60,30,l),
(52,30,o),
(45,23,o),
(45,15,c),
(45,7,o),
(52,0,o),
(60,0,c),
(250,0,l),
(250,30,l)
);
},
{
ref = "lam-ar.init";
}
);
width = 250;
},
{
layerId = "410C308F-557C-4D4B-8D78-DF4F3F2F205E";
shapes = (
{
attr = {
strokePos = 1;
};
closed = 1;
nodes = (
(131,170,l),
(84,170,o),
(46,132,o),
(46,85,c),
(46,38,o),
(84,0,o),
(131,0,c),
(290,0,l),
(290,170,l)
);
},
{
ref = "lam-ar.init";
}
);
width = 290;
},
{
layerId = "C375229C-5AB5-4F42-B4C5-B05E6279C8CD";
shapes = (
{
attr = {
strokePos = 1;
};
closed = 1;
nodes = (
(141,170,l),
(94,170,o),
(56,132,o),
(56,85,c),
(56,38,o),
(94,0,o),
(141,0,c),
(310,0,l),
(310,170,l)
);
},
{
ref = "lam-ar.init";
}
);
width = 310;
},
{
layerId = "3EFBB2FF-E525-4F07-A4DB-42752D5683EA";
shapes = (
{
attr = {
strokePos = 1;
};
closed = 1;
nodes = (
(60,30,l),
(52,30,o),
(45,23,o),
(45,15,c),
(45,7,o),
(52,0,o),
(60,0,c),
(250,0,l),
(250,30,l)
);
},
{
ref = "lam-ar.init";
}
);
width = 250;
}
);
metricLeft = "kashida-ar";
metricRight = "kashida-ar";
},
{
glyphname = "lam-ar.init";
lastChange = "2025-04-25 13:10:07 +0000";
layers = (
{
anchors = (
{
name = bottom;
pos = (63,0);
},
{
name = top;
pos = (80,640);
}
);
layerId = m01;
shapes = (
{
attr = {
strokePos = "0";
};
closed = 1;
nodes = (
(60,0,l),
(111,0,o),
(140,29,o),
(140,80,c),
(140,640,l),
(110,640,l),
(110,80,l),
(110,46,o),
(94,30,o),
(60,30,c),
(0,30,l),
(-8,30,o),
(-15,23,o),
(-15,15,c),
(-15,7,o),
(-8,0,o),
(0,0,c)
);
}
);
width = 220;
},
{
anchors = (
{
name = bottom;
pos = (153,0);
},
{
name = top;
pos = (170,640);
}
);
layerId = "410C308F-557C-4D4B-8D78-DF4F3F2F205E";
shapes = (
{
attr = {
strokePos = "0";
};
closed = 1;
nodes = (
(150,0,l),
(201,0,o),
(230,29,o),
(230,80,c),
(230,640,l),
(60,640,l),
(60,80,l),
(60,99,o),
(131,170,o),
(150,170,c),
(0,170,l),
(-48,170,o),
(-85,132,o),
(-85,85,c),
(-85,38,o),
(-48,0,o),
(0,0,c)
);
}
);
width = 290;
},
{
anchors = (
{
name = bottom;
pos = (163,0);
},
{
name = top;
pos = (180,640);
}
);
layerId = "C375229C-5AB5-4F42-B4C5-B05E6279C8CD";
shapes = (
{
attr = {
strokePos = "0";
};
closed = 1;
nodes = (
(160,0,l),
(211,0,o),
(240,29,o),
(240,80,c),
(240,640,l),
(70,640,l),
(70,80,l),
(70,99,o),
(141,170,o),
(160,170,c),
(0,170,l),
(-48,170,o),
(-85,132,o),
(-85,85,c),
(-85,38,o),
(-48,0,o),
(0,0,c)
);
}
);
width = 310;
},
{
anchors = (
{
name = bottom;
pos = (63,0);
},
{
name = top;
pos = (80,640);
}
);
layerId = "3EFBB2FF-E525-4F07-A4DB-42752D5683EA";
shapes = (
{
attr = {
strokePos = "0";
};
closed = 1;
nodes = (
(60,0,l),
(111,0,o),
(140,29,o),
(140,80,c),
(140,640,l),
(110,640,l),
(110,80,l),
(110,46,o),
(94,30,o),
(60,30,c),
(0,30,l),
(-8,30,o),
(-15,23,o),
(-15,15,c),
(-15,7,o),
(-8,0,o),
(0,0,c)
);
}
);
width = 220;
}
);
metricLeft = "kashida-ar";
metricRight = "alef-ar";
},
{
glyphname = "meem-ar";
lastChange = "2025-04-25 13:53:45 +0000";
layers = (
{
anchors = (
{
name = bottom;
pos = (395,-77);
},
{
name = top;
pos = (395,380);
}
);
layerId = m01;
shapes = (
{
attr = {
strokePos = "1";
};
closed = 1;
nodes = (
(530,-60,l),
(530,170,ls),
(530,276,o),
(446,360,o),
(340,360,cs),
(215,360,l),
(215,20,ls),
(215,-31,o),
(244,-60,o),
(295,-60,cs)
);
},
{
closed = 1;
nodes = (
(110,-240,l),
(110,30,ls),
(110,73,o),
(132,95,o),
(175,95,cs),
(215,95,l),
(215,125,l),
(175,125,ls),
(116,125,o),
(80,89,o),
(80,30,cs),
(80,-240,l)
);
},
{
attr = {
strokePos = "1";
};
closed = 1;
nodes = (
(261,-30,o),
(245,-14,o),
(245,20,cs),
(245,330,l),
(340,330,ls),
(430,330,o),
(500,260,o),
(500,170,cs),
(500,-30,l),
(295,-30,ls)
);
}
);
width = 610;
},
{
anchors = (
{
name = bottom;
pos = (460,-77);
},
{
name = top;
pos = (460,390);
}
);
layerId = "410C308F-557C-4D4B-8D78-DF4F3F2F205E";
shapes = (
{
attr = {
strokePos = "1";
};
closed = 1;
nodes = (
(660,-60,l),
(660,200,ls),
(660,306,o),
(576,390,o),
(470,390,cs),
(275,390,l),
(275,20,ls),
(275,-31,o),
(304,-60,o),
(355,-60,cs)
);
},
{
closed = 1;
nodes = (
(230,-240,l),
(230,22,ls),
(230,24,o),
(231,25,o),
(233,25,cs),
(275,25,l),
(275,195,l),
(225,195,ls),
(127,195,o),
(60,128,o),
(60,30,cs),
(60,-240,l)
);
},
{
attr = {
strokePos = "1";
};
closed = 1;
nodes = (
(446,105,o),
(445,106,o),
(445,108,cs),
(445,225,l),
(470,225,ls),
(481,225,o),
(490,216,o),
(490,200,cs),
(490,105,l),
(448,105,ls)
);
}
);
width = 720;
},
{
anchors = (
{
name = bottom;
pos = (500,-77);
},
{
name = top;
pos = (500,390);
}
);
layerId = "C375229C-5AB5-4F42-B4C5-B05E6279C8CD";
shapes = (
{
attr = {
strokePos = "1";
};
closed = 1;
nodes = (
(800,-60,l),
(800,200,ls),
(800,306,o),
(716,390,o),
(610,390,cs),
(315,390,l),
(315,20,ls),
(315,-31,o),
(344,-60,o),
(395,-60,cs)
);
},
{
closed = 1;
nodes = (
(240,-240,l),
(240,22,ls),
(240,24,o),
(241,25,o),
(243,25,cs),
(315,25,l),
(315,195,l),
(235,195,ls),
(137,195,o),
(70,129,o),
(70,30,cs),
(70,-240,l)
);
},
{
attr = {
strokePos = "1";
};
closed = 1;
nodes = (
(486,105,o),
(485,106,o),
(485,108,cs),
(485,225,l),
(610,225,ls),
(621,225,o),
(630,216,o),
(630,200,cs),
(630,105,l),
(488,105,ls)
);
}
);
width = 870;
},
{
anchors = (
{
name = bottom;
pos = (340,-77);
},
{
name = top;
pos = (340,380);
}
);
layerId = "3EFBB2FF-E525-4F07-A4DB-42752D5683EA";
shapes = (
{
attr = {
strokePos = "1";
};
closed = 1;
nodes = (
(640,-60,l),
(640,170,ls),
(640,276,o),
(556,360,o),
(450,360,cs),
(225,360,l),
(225,20,ls),
(225,-31,o),
(254,-60,o),
(305,-60,cs)
);
},
{
closed = 1;
nodes = (
(110,-240,l),
(110,30,ls),
(110,74,o),
(132,95,o),
(175,95,cs),
(225,95,l),
(225,125,l),
(175,125,ls),
(116,125,o),
(80,90,o),
(80,30,cs),
(80,-240,l)
);
},
{
attr = {
strokePos = "1";
};
closed = 1;
nodes = (
(271,-30,o),
(255,-14,o),
(255,20,cs),
(255,330,l),
(450,330,ls),
(540,330,o),
(610,260,o),
(610,170,cs),
(610,-30,l),
(305,-30,ls)
);
}
);
width = 720;
}
);
metricLeft = "alef-ar";
metricRight = "alef-ar";
unicode = 1605;
},
{
glyphname = "meem-ar.fina";
lastChange = "2025-04-25 13:10:00 +0000";
layers = (
{
layerId = m01;
shapes = (
{
attr = {
strokePos = 1;
};
closed = 1;
nodes = (
(530,30,l),
(530,0,l),
(640,0,l),
(640,30,l)
);
},
{
ref = "meem-ar";
}
);
width = 640;
},
{
layerId = "410C308F-557C-4D4B-8D78-DF4F3F2F205E";
shapes = (
{
attr = {
strokePos = 1;
};
closed = 1;
nodes = (
(660,170,l),
(660,0,l),
(720,0,l),
(720,170,l)
);
},
{
ref = "meem-ar";
}
);
width = 720;
},
{
layerId = "C375229C-5AB5-4F42-B4C5-B05E6279C8CD";
shapes = (
{
attr = {
strokePos = 1;
};
closed = 1;
nodes = (
(800,170,l),
(800,0,l),
(870,0,l),
(870,170,l)
);
},
{
ref = "meem-ar";
}
);
width = 870;
},
{
layerId = "3EFBB2FF-E525-4F07-A4DB-42752D5683EA";
shapes = (
{
attr = {
strokePos = 1;
};
closed = 1;
nodes = (
(640,30,l),
(640,0,l),
(750,0,l),
(750,30,l)
);
},
{
ref = "meem-ar";
}
);
width = 750;
}
);
metricLeft = "alef-ar";
metricRight = "kashida-ar";
},
{
glyphname = "meem-ar.medi";
lastChange = "2025-04-25 13:09:56 +0000";
layers = (
{
layerId = m01;
shapes = (
{
ref = "meem-ar.init";
},
{
attr = {
strokePos = 1;
};
closed = 1;
nodes = (
(426,30,l),
(426,0,l),
(536,0,l),
(536,30,l)
);
}
);
width = 536;
},
{
layerId = "410C308F-557C-4D4B-8D78-DF4F3F2F205E";
shapes = (
{
ref = "meem-ar.init";
},
{
attr = {
strokePos = 1;
};
closed = 1;
nodes = (
(445,170,l),
(445,0,l),
(505,0,l),
(505,170,l)
);
}
);
width = 505;
},
{
layerId = "C375229C-5AB5-4F42-B4C5-B05E6279C8CD";
shapes = (
{
ref = "meem-ar.init";
},
{
attr = {
strokePos = 1;
};
closed = 1;
nodes = (
(555,170,l),
(555,0,l),
(625,0,l),
(625,170,l)
);
}
);
width = 625;
},
{
layerId = "3EFBB2FF-E525-4F07-A4DB-42752D5683EA";
shapes = (
{
ref = "meem-ar.init";
},
{
attr = {
strokePos = 1;
};
closed = 1;
nodes = (
(526,30,l),
(526,0,l),
(636,0,l),
(636,30,l)
);
}
);
width = 636;
}
);
metricLeft = "kashida-ar";
metricRight = "kashida-ar";
},
{
glyphname = "meem-ar.init";
lastChange = "2025-04-25 13:59:03 +0000";
layers = (
{
anchors = (
{
name = bottom;
pos = (291,-65);
},
{
name = top;
pos = (291,380);
}
);
layerId = m01;
shapes = (
{
attr = {
strokePos = "1";
};
closed = 1;
nodes = (
(426,-60,l),
(426,170,ls),
(426,276,o),
(342,360,o),
(236,360,cs),
(111,360,l),
(111,20,ls),
(111,-31,o),
(140,-60,o),
(191,-60,cs)
);
},
{
attr = {
strokePos = 1;
};
closed = 1;
nodes = (
(115,0,l),
(115,30,l),
(0,30,l),
(-8,30,o),
(-15,23,o),
(-15,15,c),
(-15,7,o),
(-8,0,o),
(0,0,c)
);
},
{
attr = {
strokePos = "1";
};
closed = 1;
nodes = (
(157,-30,o),
(141,-14,o),
(141,20,cs),
(141,330,l),
(236,330,ls),
(326,330,o),
(396,260,o),
(396,170,cs),
(396,-30,l),
(191,-30,ls)
);
}
);
width = 506;
},
{
anchors = (
{
name = bottom;
pos = (245,-65);
},
{
name = top;
pos = (245,390);
}
);
layerId = "410C308F-557C-4D4B-8D78-DF4F3F2F205E";
shapes = (
{
attr = {
strokePos = "1";
};
closed = 1;
nodes = (
(445,-60,l),
(445,200,ls),
(445,306,o),
(361,390,o),
(255,390,cs),
(60,390,l),
(60,20,ls),
(60,-31,o),
(89,-60,o),
(140,-60,cs)
);
},
{
attr = {
strokePos = 1;
};
closed = 1;
nodes = (
(64,0,l),
(64,170,l),
(0,170,l),
(-48,170,o),
(-85,132,o),
(-85,85,c),
(-85,38,o),
(-48,0,o),
(0,0,c)
);
},
{
attr = {
strokePos = "1";
};
closed = 1;
nodes = (
(231,105,o),
(230,106,o),
(230,108,cs),
(230,225,l),
(255,225,ls),
(266,225,o),
(275,216,o),
(275,200,cs),
(275,105,l),
(233,105,ls)
);
}
);
width = 505;
},
{
anchors = (
{
name = bottom;
pos = (255,-65);
},
{
name = top;
pos = (255,390);
}
);
layerId = "C375229C-5AB5-4F42-B4C5-B05E6279C8CD";
shapes = (
{
attr = {
strokePos = "1";
};
closed = 1;
nodes = (
(555,-60,l),
(555,200,ls),
(555,306,o),
(471,390,o),
(365,390,cs),
(70,390,l),
(70,20,ls),
(70,-31,o),
(99,-60,o),
(150,-60,cs)
);
},
{
attr = {
strokePos = 1;
};
closed = 1;
nodes = (
(74,0,l),
(74,170,l),
(0,170,l),
(-48,170,o),
(-85,132,o),
(-85,85,c),
(-85,38,o),
(-48,0,o),
(0,0,c)
);
},
{
attr = {
strokePos = "1";
};
closed = 1;
nodes = (
(241,105,o),
(240,106,o),
(240,108,cs),
(240,225,l),
(365,225,ls),
(376,225,o),
(385,216,o),
(385,200,cs),
(385,105,l),
(243,105,ls)
);
}
);
width = 625;
},
{
anchors = (
{
name = bottom;
pos = (226,-65);
},
{
name = top;
pos = (226,380);
}
);
layerId = "3EFBB2FF-E525-4F07-A4DB-42752D5683EA";
shapes = (
{
attr = {
strokePos = "1";
};
closed = 1;
nodes = (
(526,-60,l),
(526,170,ls),
(526,276,o),
(442,360,o),
(336,360,cs),
(111,360,l),
(111,20,ls),
(111,-31,o),
(140,-60,o),
(191,-60,cs)
);
},
{
attr = {
strokePos = 1;
};
closed = 1;
nodes = (
(115,0,l),
(115,30,l),
(0,30,l),
(-8,30,o),
(-15,23,o),
(-15,15,c),
(-15,7,o),
(-8,0,o),
(0,0,c)
);
},
{
attr = {
strokePos = "1";
};
closed = 1;
nodes = (
(157,-30,o),
(141,-14,o),
(141,20,cs),
(141,330,l),
(336,330,ls),
(426,330,o),
(496,260,o),
(496,170,cs),
(496,-30,l),
(191,-30,ls)
);
}
);
width = 606;
}
);
metricLeft = "kashida-ar";
metricRight = "alef-ar";
},
{
glyphname = "noonghunna-ar";
lastChange = "2025-04-25 13:09:51 +0000";
layers = (
{
anchors = (
{
name = bottom;
pos = (296,-160);
},
{
name = top;
pos = (296,330);
}
);
layerId = m01;
shapes = (
{
attr = {
strokePos = 0;
};
closed = 1;
nodes = (
(80,30,l),
(80,-93,o),
(147,-160,o),
(270,-160,c),
(316,-160,l),
(439,-160,o),
(506,-93,o),
(506,30,c),
(506,360,l),
(476,360,l),
(476,30,l),
(476,-76,o),
(422,-130,o),
(316,-130,c),
(270,-130,l),
(164,-130,o),
(110,-76,o),
(110,30,c),
(110,280,l),
(80,280,l)
);
}
);
width = 586;
},
{
anchors = (
{
name = bottom;
pos = (306,-160);
},
{
name = top;
pos = (306,345);
}
);
layerId = "410C308F-557C-4D4B-8D78-DF4F3F2F205E";
shapes = (
{
attr = {
strokePos = 0;
};
closed = 1;
nodes = (
(60,30,l),
(60,-93,o),
(127,-160,o),
(250,-160,c),
(366,-160,l),
(489,-160,o),
(556,-93,o),
(556,30,c),
(556,390,l),
(386,390,l),
(386,30,l),
(386,10,o),
(386,10,o),
(366,10,c),
(250,10,l),
(230,10,o),
(230,10,o),
(230,30,c),
(230,280,l),
(60,280,l)
);
}
);
width = 616;
},
{
anchors = (
{
name = bottom;
pos = (386,-160);
},
{
name = top;
pos = (386,345);
}
);
layerId = "C375229C-5AB5-4F42-B4C5-B05E6279C8CD";
shapes = (
{
attr = {
strokePos = 0;
};
closed = 1;
nodes = (
(70,30,l),
(70,-93,o),
(137,-160,o),
(260,-160,c),
(516,-160,l),
(639,-160,o),
(706,-93,o),
(706,30,c),
(706,390,l),
(536,390,l),
(536,30,l),
(536,10,o),
(536,10,o),
(516,10,c),
(260,10,l),
(240,10,o),
(240,10,o),
(240,30,c),
(240,280,l),
(70,280,l)
);
}
);
width = 776;
},
{
anchors = (
{
name = bottom;
pos = (366,-160);
},
{
name = top;
pos = (366,330);
}
);
layerId = "3EFBB2FF-E525-4F07-A4DB-42752D5683EA";
shapes = (
{
attr = {
strokePos = 0;
};
closed = 1;
nodes = (
(80,30,l),
(80,-93,o),
(147,-160,o),
(270,-160,c),
(456,-160,l),
(579,-160,o),
(646,-93,o),
(646,30,c),
(646,360,l),
(616,360,l),
(616,30,l),
(616,-76,o),
(562,-130,o),
(456,-130,c),
(270,-130,l),
(164,-130,o),
(110,-76,o),
(110,30,c),
(110,280,l),
(80,280,l)
);
}
);
width = 726;
}
);
metricLeft = "alef-ar";
metricRight = "alef-ar";
unicode = 1722;
},
{
glyphname = "noonghunna-ar.fina";
lastChange = "2025-04-25 13:09:46 +0000";
layers = (
{
layerId = m01;
shapes = (
{
attr = {
strokePos = 1;
};
closed = 1;
nodes = (
(503,30,l),
(503,0,l),
(616,0,l),
(616,30,l)
);
},
{
ref = "noonghunna-ar";
}
);
width = 616;
},
{
layerId = "410C308F-557C-4D4B-8D78-DF4F3F2F205E";
shapes = (
{
attr = {
strokePos = 1;
};
closed = 1;
nodes = (
(546,170,l),
(546,0,l),
(616,0,l),
(616,170,l)
);
},
{
ref = "noonghunna-ar";
}
);
width = 616;
},
{
layerId = "C375229C-5AB5-4F42-B4C5-B05E6279C8CD";
shapes = (
{
attr = {
strokePos = 1;
};
closed = 1;
nodes = (
(696,170,l),
(696,0,l),
(776,0,l),
(776,170,l)
);
},
{
ref = "noonghunna-ar";
}
);
width = 776;
},
{
layerId = "3EFBB2FF-E525-4F07-A4DB-42752D5683EA";
shapes = (
{
attr = {
strokePos = 1;
};
closed = 1;
nodes = (
(643,30,l),
(643,0,l),
(756,0,l),
(756,30,l)
);
},
{
ref = "noonghunna-ar";
}
);
width = 756;
}
);
metricLeft = "alef-ar";
metricRight = "kashida-ar";
},
{
glyphname = "heh-ar";
lastChange = "2025-04-25 13:09:44 +0000";
layers = (
{
anchors = (
{
name = bottom;
pos = (294,0);
},
{
name = top;
pos = (294,440);
}
);
layerId = m01;
shapes = (
{
closed = 1;
nodes = (
(385,0,l),
(415,0,l),
(415,420,l),
(385,420,l)
);
},
{
attr = {
strokePos = "1";
};
closed = 1;
nodes = (
(270,30,l),
(180,30,o),
(110,100,o),
(110,190,c),
(110,230,l),
(110,320,o),
(180,390,o),
(270,390,c),
(396,390,l),
(396,420,l),
(270,420,l),
(164,420,o),
(80,336,o),
(80,230,c),
(80,190,l),
(80,84,o),
(164,0,o),
(270,0,c),
(396,0,l),
(396,30,l)
);
}
);
width = 495;
},
{
anchors = (
{
name = bottom;
pos = (294,0);
},
{
name = top;
pos = (294,440);
}
);
layerId = "410C308F-557C-4D4B-8D78-DF4F3F2F205E";
shapes = (
{
closed = 1;
nodes = (
(295,0,l),
(465,0,l),
(465,440,l),
(295,440,l)
);
},
{
attr = {
strokePos = "1";
};
closed = 1;
nodes = (
(250,160,l),
(239,160,o),
(230,170,o),
(230,190,c),
(230,250,l),
(230,270,o),
(239,280,o),
(250,280,c),
(376,280,l),
(376,440,l),
(250,440,l),
(144,440,o),
(60,356,o),
(60,250,c),
(60,190,l),
(60,84,o),
(144,0,o),
(250,0,c),
(376,0,l),
(376,160,l)
);
}
);
width = 525;
},
{
anchors = (
{
name = bottom;
pos = (323,0);
},
{
name = top;
pos = (323,440);
}
);
layerId = "C375229C-5AB5-4F42-B4C5-B05E6279C8CD";
shapes = (
{
closed = 1;
nodes = (
(405,0,l),
(575,0,l),
(575,440,l),
(405,440,l)
);
},
{
attr = {
strokePos = "1";
};
closed = 1;
nodes = (
(260,160,l),
(249,160,o),
(240,170,o),
(240,190,c),
(240,250,l),
(240,270,o),
(249,280,o),
(260,280,c),
(486,280,l),
(486,440,l),
(260,440,l),
(154,440,o),
(70,356,o),
(70,250,c),
(70,190,l),
(70,84,o),
(154,0,o),
(260,0,c),
(486,0,l),
(486,160,l)
);
}
);
width = 645;
},
{
anchors = (
{
name = bottom;
pos = (354,0);
},
{
name = top;
pos = (354,440);
}
);
layerId = "3EFBB2FF-E525-4F07-A4DB-42752D5683EA";
shapes = (
{
closed = 1;
nodes = (
(495,0,l),
(525,0,l),
(525,420,l),
(495,420,l)
);
},
{
attr = {
strokePos = "1";
};
closed = 1;
nodes = (
(270,30,l),
(180,30,o),
(110,100,o),
(110,190,c),
(110,230,l),
(110,320,o),
(180,390,o),
(270,390,c),
(506,390,l),
(506,420,l),
(270,420,l),
(164,420,o),
(80,336,o),
(80,230,c),
(80,190,l),
(80,84,o),
(164,0,o),
(270,0,c),
(506,0,l),
(506,30,l)
);
}
);
width = 605;
}
);
metricLeft = "alef-ar";
metricRight = "alef-ar";
unicode = 1607;
},
{
glyphname = "heh-ar.fina";
lastChange = "2025-04-25 13:09:41 +0000";
layers = (
{
background = {
shapes = (
{
attr = {
strokeWidth = 120;
};
closed = 0;
nodes = (
(659,60,ls),
(452,60,l),
(452,400,l)
);
},
{
attr = {
strokeWidth = 120;
};
closed = 0;
nodes = (
(442,270,l),
(242,270,ls),
(168,270,o),
(120,225,o),
(120,166,cs),
(120,106,o),
(168,60,o),
(242,60,cs),
(431,60,l)
);
}
);
};
layerId = m01;
shapes = (
{
attr = {
strokePos = 1;
};
closed = 1;
nodes = (
(415,30,l),
(415,0,l),
(525,0,l),
(525,30,l)
);
},
{
ref = "heh-ar";
}
);
width = 525;
},
{
background = {
shapes = (
{
attr = {
strokeWidth = 120;
};
closed = 0;
nodes = (
(699,60,ls),
(492,60,l),
(492,400,l)
);
},
{
attr = {
strokeWidth = 120;
};
closed = 0;
nodes = (
(482,270,l),
(282,270,ls),
(208,270,o),
(160,225,o),
(160,166,cs),
(160,106,o),
(208,60,o),
(282,60,cs),
(471,60,l)
);
}
);
};
layerId = "410C308F-557C-4D4B-8D78-DF4F3F2F205E";
shapes = (
{
attr = {
strokePos = 1;
};
closed = 1;
nodes = (
(465,170,l),
(465,0,l),
(525,0,l),
(525,170,l)
);
},
{
ref = "heh-ar";
}
);
width = 525;
},
{
background = {
shapes = (
{
attr = {
strokeWidth = 120;
};
closed = 0;
nodes = (
(629,60,ls),
(422,60,l),
(422,400,l)
);
},
{
attr = {
strokeWidth = 120;
};
closed = 0;
nodes = (
(412,270,l),
(212,270,ls),
(138,270,o),
(90,225,o),
(90,166,cs),
(90,106,o),
(138,60,o),
(212,60,cs),
(401,60,l)
);
}
);
};
layerId = "C375229C-5AB5-4F42-B4C5-B05E6279C8CD";
shapes = (
{
attr = {
strokePos = 1;
};
closed = 1;
nodes = (
(575,170,l),
(575,0,l),
(645,0,l),
(645,170,l)
);
},
{
ref = "heh-ar";
}
);
width = 645;
},
{
background = {
shapes = (
{
attr = {
strokeWidth = 120;
};
closed = 0;
nodes = (
(629,60,ls),
(422,60,l),
(422,400,l)
);
},
{
attr = {
strokeWidth = 120;
};
closed = 0;
nodes = (
(412,270,l),
(212,270,ls),
(138,270,o),
(90,225,o),
(90,166,cs),
(90,106,o),
(138,60,o),
(212,60,cs),
(401,60,l)
);
}
);
};
layerId = "3EFBB2FF-E525-4F07-A4DB-42752D5683EA";
shapes = (
{
attr = {
strokePos = 1;
};
closed = 1;
nodes = (
(525,30,l),
(525,0,l),
(635,0,l),
(635,30,l)
);
},
{
ref = "heh-ar";
}
);
width = 635;
}
);
metricLeft = "alef-ar";
metricRight = "kashida-ar";
},
{
glyphname = "heh-ar.medi";
lastChange = "2025-04-25 13:09:38 +0000";
layers = (
{
layerId = m01;
shapes = (
{
attr = {
strokePos = 1;
};
closed = 1;
nodes = (
(536,30,l),
(528,30,o),
(521,23,o),
(521,15,c),
(521,7,o),
(528,0,o),
(536,0,c),
(726,0,l),
(726,30,l)
);
},
{
ref = "heh-ar.init";
}
);
width = 726;
},
{
layerId = "410C308F-557C-4D4B-8D78-DF4F3F2F205E";
shapes = (
{
attr = {
strokePos = 1;
};
closed = 1;
nodes = (
(556,170,l),
(509,170,o),
(471,132,o),
(471,85,c),
(471,38,o),
(509,0,o),
(556,0,c),
(696,0,l),
(696,170,l)
);
},
{
ref = "heh-ar.init";
}
);
width = 696;
},
{
layerId = "C375229C-5AB5-4F42-B4C5-B05E6279C8CD";
shapes = (
{
attr = {
strokePos = 1;
};
closed = 1;
nodes = (
(726,170,l),
(679,170,o),
(641,132,o),
(641,85,c),
(641,38,o),
(679,0,o),
(726,0,c),
(876,0,l),
(876,170,l)
);
},
{
ref = "heh-ar.init";
}
);
width = 876;
},
{
layerId = "3EFBB2FF-E525-4F07-A4DB-42752D5683EA";
shapes = (
{
attr = {
strokePos = 1;
};
closed = 1;
nodes = (
(696,30,l),
(688,30,o),
(681,23,o),
(681,15,c),
(681,7,o),
(688,0,o),
(696,0,c),
(886,0,l),
(886,30,l)
);
},
{
ref = "heh-ar.init";
}
);
width = 886;
}
);
metricLeft = "kashida-ar";
metricRight = "kashida-ar";
},
{
glyphname = "heh-ar.init";
lastChange = "2025-04-25 13:09:36 +0000";
layers = (
{
anchors = (
{
name = bottom;
pos = (363,0);
},
{
name = top;
pos = (363,483);
}
);
layerId = m01;
name = Regular;
shapes = (
{
attr = {
strokePos = "1";
};
closed = 1;
nodes = (
(140,230,l),
(140,320,o),
(210,390,o),
(300,390,c),
(426,390,l),
(516,390,o),
(586,320,o),
(586,230,c),
(586,80,l),
(586,46,o),
(570,30,o),
(536,30,c),
(0,30,l),
(-8,30,o),
(-15,23,o),
(-15,15,c),
(-15,7,o),
(-8,0,o),
(0,0,c),
(536,0,l),
(587,0,o),
(616,29,o),
(616,80,c),
(616,230,l),
(616,336,o),
(532,420,o),
(426,420,c),
(300,420,l),
(194,420,o),
(110,336,o),
(110,230,c),
(110,14,l),
(140,14,l)
);
},
{
closed = 1;
nodes = (
(378,463,l),
(348,463,l),
(348,13,l),
(378,13,l)
);
}
);
width = 696;
},
{
anchors = (
{
name = bottom;
pos = (348,0);
},
{
name = top;
pos = (348,483);
}
);
layerId = "410C308F-557C-4D4B-8D78-DF4F3F2F205E";
name = Regular;
shapes = (
{
attr = {
strokePos = "1";
};
closed = 1;
nodes = (
(230,250,l),
(230,262,o),
(238,270,o),
(250,270,c),
(446,270,l),
(458,270,o),
(466,262,o),
(466,250,c),
(466,80,l),
(466,99,o),
(537,170,o),
(556,170,c),
(0,170,l),
(-48,170,o),
(-85,132,o),
(-85,85,c),
(-85,38,o),
(-48,0,o),
(0,0,c),
(556,0,l),
(607,0,o),
(636,29,o),
(636,80,c),
(636,250,l),
(636,356,o),
(552,440,o),
(446,440,c),
(250,440,l),
(144,440,o),
(60,356,o),
(60,250,c),
(60,14,l),
(230,14,l)
);
},
{
closed = 1;
nodes = (
(418,483,l),
(278,483,l),
(278,13,l),
(418,13,l)
);
}
);
width = 696;
},
{
anchors = (
{
name = bottom;
pos = (438,0);
},
{
name = top;
pos = (438,483);
}
);
layerId = "C375229C-5AB5-4F42-B4C5-B05E6279C8CD";
name = Regular;
shapes = (
{
attr = {
strokePos = "1";
};
closed = 1;
nodes = (
(240,250,l),
(240,262,o),
(248,270,o),
(260,270,c),
(616,270,l),
(628,270,o),
(636,262,o),
(636,250,c),
(636,80,l),
(636,99,o),
(707,170,o),
(726,170,c),
(0,170,l),
(-48,170,o),
(-85,132,o),
(-85,85,c),
(-85,38,o),
(-48,0,o),
(0,0,c),
(726,0,l),
(777,0,o),
(806,29,o),
(806,80,c),
(806,250,l),
(806,356,o),
(722,440,o),
(616,440,c),
(260,440,l),
(154,440,o),
(70,356,o),
(70,250,c),
(70,14,l),
(240,14,l)
);
},
{
closed = 1;
nodes = (
(508,483,l),
(368,483,l),
(368,13,l),
(508,13,l)
);
}
);
width = 876;
},
{
anchors = (
{
name = bottom;
pos = (443,0);
},
{
name = top;
pos = (443,483);
}
);
layerId = "3EFBB2FF-E525-4F07-A4DB-42752D5683EA";
name = Regular;
shapes = (
{
attr = {
strokePos = "1";
};
closed = 1;
nodes = (
(140,230,l),
(140,320,o),
(210,390,o),
(300,390,c),
(586,390,l),
(676,390,o),
(746,320,o),
(746,230,c),
(746,80,l),
(746,46,o),
(730,30,o),
(696,30,c),
(0,30,l),
(-8,30,o),
(-15,23,o),
(-15,15,c),
(-15,7,o),
(-8,0,o),
(0,0,c),
(696,0,l),
(747,0,o),
(776,29,o),
(776,80,c),
(776,230,l),
(776,336,o),
(692,420,o),
(586,420,c),
(300,420,l),
(194,420,o),
(110,336,o),
(110,230,c),
(110,14,l),
(140,14,l)
);
},
{
closed = 1;
nodes = (
(458,463,l),
(428,463,l),
(428,13,l),
(458,13,l)
);
}
);
width = 856;
}
);
metricLeft = "kashida-ar";
metricRight = "alef-ar";
},
{
glyphname = "hehgoal-ar.fina";
lastChange = "2025-04-25 13:09:33 +0000";
layers = (
{
anchors = (
{
name = bottom;
pos = (303,0);
},
{
name = top;
pos = (303,440);
}
);
layerId = m01;
shapes = (
{
attr = {
strokePos = "1";
};
closed = 1;
nodes = (
(415,30,l),
(415,0,l),
(525,0,l),
(525,30,l)
);
},
{
attr = {
identifier = ID0x30406ad90;
};
closed = 1;
nodes = (
(385,0,l),
(415,0,l),
(415,420,l),
(385,420,l)
);
},
{
attr = {
identifier = ID0x30406ad90;
strokePos = "1";
};
closed = 1;
nodes = (
(110,230,l),
(110,320,o),
(180,390,o),
(270,390,c),
(396,390,l),
(396,420,l),
(270,420,l),
(164,420,o),
(80,336,o),
(80,230,c),
(80,0,l),
(110,0,l)
);
}
);
width = 525;
},
{
anchors = (
{
name = bottom;
pos = (265,0);
},
{
name = top;
pos = (265,440);
}
);
layerId = "410C308F-557C-4D4B-8D78-DF4F3F2F205E";
shapes = (
{
attr = {
strokePos = "1";
};
closed = 1;
nodes = (
(465,170,l),
(465,0,l),
(525,0,l),
(525,170,l)
);
},
{
attr = {
identifier = ID0x169c530e0;
};
closed = 1;
nodes = (
(295,0,l),
(465,0,l),
(465,440,l),
(295,440,l)
);
},
{
attr = {
identifier = ID0x169c530e0;
strokePos = "1";
};
closed = 1;
nodes = (
(230,250,l),
(230,262,o),
(238,270,o),
(250,270,c),
(376,270,l),
(376,440,l),
(250,440,l),
(144,440,o),
(60,356,o),
(60,250,c),
(60,0,l),
(230,0,l)
);
}
);
width = 525;
},
{
anchors = (
{
name = bottom;
pos = (325,0);
},
{
name = top;
pos = (325,440);
}
);
layerId = "C375229C-5AB5-4F42-B4C5-B05E6279C8CD";
shapes = (
{
attr = {
strokePos = "1";
};
closed = 1;
nodes = (
(576,170,l),
(576,0,l),
(646,0,l),
(646,170,l)
);
},
{
attr = {
identifier = ID0x169c530e0;
};
closed = 1;
nodes = (
(406,0,l),
(576,0,l),
(576,440,l),
(406,440,l)
);
},
{
attr = {
identifier = ID0x169c530e0;
strokePos = "1";
};
closed = 1;
nodes = (
(240,250,l),
(240,262,o),
(248,270,o),
(260,270,c),
(487,270,l),
(487,440,l),
(260,440,l),
(154,440,o),
(70,356,o),
(70,250,c),
(70,0,l),
(240,0,l)
);
}
);
width = 646;
},
{
anchors = (
{
name = bottom;
pos = (353,0);
},
{
name = top;
pos = (353,440);
}
);
layerId = "3EFBB2FF-E525-4F07-A4DB-42752D5683EA";
shapes = (
{
attr = {
strokePos = "1";
};
closed = 1;
nodes = (
(525,30,l),
(525,0,l),
(635,0,l),
(635,30,l)
);
},
{
attr = {
identifier = ID0x30406ad90;
};
closed = 1;
nodes = (
(495,0,l),
(525,0,l),
(525,420,l),
(495,420,l)
);
},
{
attr = {
identifier = ID0x30406ad90;
strokePos = "1";
};
closed = 1;
nodes = (
(110,230,l),
(110,320,o),
(180,390,o),
(270,390,c),
(506,390,l),
(506,420,l),
(270,420,l),
(164,420,o),
(80,336,o),
(80,230,c),
(80,0,l),
(110,0,l)
);
}
);
width = 635;
}
);
metricLeft = "alef-ar";
metricRight = "kashida-ar";
},
{
glyphname = "waw-ar";
lastChange = "2025-04-25 13:10:23 +0000";
layers = (
{
anchors = (
{
name = bottom;
pos = (172,-210);
},
{
name = center;
pos = (178,0);
},
{
name = top;
pos = (270,440);
}
);
layerId = m01;
shapes = (
{
closed = 1;
nodes = (
(260,-165,l),
(346,-165,o),
(395,-116,o),
(395,-30,c),
(395,420,l),
(365,420,l),
(365,-30,l),
(365,-100,o),
(330,-135,o),
(260,-135,c),
(81,-135,l),
(81,-165,l)
);
},
{
attr = {
strokePos = "1";
};
closed = 1;
nodes = (
(110,30,l),
(110,230,l),
(110,320,o),
(180,390,o),
(270,390,c),
(377,390,l),
(377,420,l),
(270,420,l),
(164,420,o),
(80,336,o),
(80,230,c),
(80,0,l),
(380,0,l),
(380,30,l)
);
}
);
width = 475;
},
{
anchors = (
{
name = bottom;
pos = (152,-210);
},
{
name = center;
pos = (158,0);
},
{
name = top;
pos = (250,440);
}
);
layerId = "410C308F-557C-4D4B-8D78-DF4F3F2F205E";
shapes = (
{
closed = 1;
nodes = (
(240,-235,l),
(365,-235,o),
(445,-155,o),
(445,-30,c),
(445,440,l),
(275,440,l),
(275,-30,l),
(275,-60,o),
(270,-65,o),
(240,-65,c),
(61,-65,l),
(61,-235,l)
);
},
{
attr = {
strokePos = "1";
};
closed = 1;
nodes = (
(230,165,l),
(230,250,l),
(230,266,o),
(239,275,o),
(250,275,c),
(357,275,l),
(357,440,l),
(250,440,l),
(144,440,o),
(60,356,o),
(60,250,c),
(60,0,l),
(360,0,l),
(360,165,l)
);
}
);
width = 505;
},
{
anchors = (
{
name = bottom;
pos = (262,-210);
},
{
name = center;
pos = (268,0);
},
{
name = top;
pos = (360,440);
}
);
layerId = "C375229C-5AB5-4F42-B4C5-B05E6279C8CD";
shapes = (
{
closed = 1;
nodes = (
(350,-235,l),
(475,-235,o),
(555,-155,o),
(555,-30,c),
(555,440,l),
(385,440,l),
(385,-30,l),
(385,-60,o),
(380,-65,o),
(350,-65,c),
(71,-65,l),
(71,-235,l)
);
},
{
attr = {
strokePos = "1";
};
closed = 1;
nodes = (
(240,165,l),
(240,250,l),
(240,266,o),
(249,275,o),
(260,275,c),
(467,275,l),
(467,440,l),
(260,440,l),
(154,440,o),
(70,356,o),
(70,250,c),
(70,0,l),
(470,0,l),
(470,165,l)
);
}
);
width = 625;
},
{
anchors = (
{
name = bottom;
pos = (272,-210);
},
{
name = center;
pos = (278,0);
},
{
name = top;
pos = (370,440);
}
);
layerId = "3EFBB2FF-E525-4F07-A4DB-42752D5683EA";
shapes = (
{
closed = 1;
nodes = (
(360,-165,l),
(446,-165,o),
(495,-116,o),
(495,-30,c),
(495,420,l),
(465,420,l),
(465,-30,l),
(465,-100,o),
(430,-135,o),
(360,-135,c),
(81,-135,l),
(81,-165,l)
);
},
{
attr = {
strokePos = "1";
};
closed = 1;
nodes = (
(110,30,l),
(110,230,l),
(110,320,o),
(180,390,o),
(270,390,c),
(477,390,l),
(477,420,l),
(270,420,l),
(164,420,o),
(80,336,o),
(80,230,c),
(80,0,l),
(480,0,l),
(480,30,l)
);
}
);
width = 575;
}
);
metricLeft = "alef-ar";
metricRight = "alef-ar";
unicode = 1608;
},
{
glyphname = "waw-ar.fina";
lastChange = "2025-04-25 13:10:26 +0000";
layers = (
{
layerId = m01;
shapes = (
{
ref = "waw-ar";
},
{
attr = {
strokePos = 1;
};
closed = 1;
nodes = (
(395,30,l),
(395,0,l),
(505,0,l),
(505,30,l)
);
}
);
width = 505;
},
{
layerId = "410C308F-557C-4D4B-8D78-DF4F3F2F205E";
shapes = (
{
ref = "waw-ar";
},
{
attr = {
strokePos = 1;
};
closed = 1;
nodes = (
(445,170,l),
(445,0,l),
(505,0,l),
(505,170,l)
);
}
);
width = 505;
},
{
layerId = "C375229C-5AB5-4F42-B4C5-B05E6279C8CD";
shapes = (
{
ref = "waw-ar";
},
{
attr = {
strokePos = 1;
};
closed = 1;
nodes = (
(555,170,l),
(555,0,l),
(625,0,l),
(625,170,l)
);
}
);
width = 625;
},
{
layerId = "3EFBB2FF-E525-4F07-A4DB-42752D5683EA";
shapes = (
{
ref = "waw-ar";
},
{
attr = {
strokePos = 1;
};
closed = 1;
nodes = (
(495,30,l),
(495,0,l),
(605,0,l),
(605,30,l)
);
}
);
width = 605;
}
);
metricLeft = "alef-ar";
metricRight = "kashida-ar";
},
{
glyphname = "alefMaksura-ar";
lastChange = "2025-04-25 13:10:28 +0000";
layers = (
{
anchors = (
{
name = bottom;
pos = (319,-160);
},
{
name = top;
pos = (96,290);
}
);
layerId = m01;
shapes = (
{
closed = 1;
nodes = (
(758,0,l),
(788,0,l),
(788,420,l),
(758,420,l)
);
},
{
attr = {
strokePos = "1";
};
closed = 1;
nodes = (
(506,230,l),
(506,320,o),
(576,390,o),
(666,390,c),
(774,390,l),
(774,420,l),
(666,420,l),
(560,420,o),
(476,336,o),
(476,230,c),
(476,0,l),
(506,0,l)
);
},
{
attr = {
strokePos = "0";
};
closed = 1;
nodes = (
(80,30,l),
(80,-93,o),
(147,-160,o),
(270,-160,c),
(316,-160,l),
(438,-160,o),
(506,-92,o),
(506,30,c),
(506,87,l),
(476,87,l),
(476,30,l),
(476,-75,o),
(421,-130,o),
(316,-130,c),
(270,-130,l),
(164,-130,o),
(110,-76,o),
(110,30,c),
(110,280,l),
(80,280,l)
);
}
);
width = 868;
},
{
anchors = (
{
name = bottom;
pos = (316,-160);
},
{
name = top;
pos = (146,280);
}
);
layerId = "410C308F-557C-4D4B-8D78-DF4F3F2F205E";
shapes = (
{
closed = 1;
nodes = (
(631,0,l),
(801,0,l),
(801,440,l),
(631,440,l)
);
},
{
attr = {
strokePos = "1";
};
closed = 1;
nodes = (
(556,250,l),
(556,262,o),
(564,270,o),
(576,270,c),
(717,270,l),
(717,440,l),
(576,440,l),
(470,440,o),
(386,356,o),
(386,250,c),
(386,0,l),
(556,0,l)
);
},
{
attr = {
strokePos = "0";
};
closed = 1;
nodes = (
(60,30,l),
(60,-93,o),
(127,-160,o),
(250,-160,c),
(366,-160,l),
(488,-160,o),
(556,-92,o),
(556,30,c),
(556,87,l),
(386,87,l),
(386,30,l),
(386,10,o),
(386,10,o),
(366,10,c),
(250,10,l),
(230,10,o),
(230,10,o),
(230,30,c),
(230,280,l),
(60,280,l)
);
}
);
width = 861;
},
{
anchors = (
{
name = bottom;
pos = (393,-160);
},
{
name = top;
pos = (138,280);
}
);
layerId = "C375229C-5AB5-4F42-B4C5-B05E6279C8CD";
shapes = (
{
closed = 1;
nodes = (
(861,0,l),
(1031,0,l),
(1031,440,l),
(861,440,l)
);
},
{
attr = {
strokePos = "1";
};
closed = 1;
nodes = (
(706,250,l),
(706,262,o),
(714,270,o),
(726,270,c),
(947,270,l),
(947,440,l),
(726,440,l),
(620,440,o),
(536,356,o),
(536,250,c),
(536,0,l),
(706,0,l)
);
},
{
attr = {
strokePos = "0";
};
closed = 1;
nodes = (
(70,30,l),
(70,-93,o),
(137,-160,o),
(260,-160,c),
(516,-160,l),
(638,-160,o),
(706,-92,o),
(706,30,c),
(706,87,l),
(536,87,l),
(536,30,l),
(536,10,o),
(536,10,o),
(516,10,c),
(260,10,l),
(240,10,o),
(240,10,o),
(240,30,c),
(240,280,l),
(70,280,l)
);
}
);
width = 1101;
},
{
anchors = (
{
name = bottom;
pos = (368,-160);
},
{
name = top;
pos = (77,280);
}
);
layerId = "3EFBB2FF-E525-4F07-A4DB-42752D5683EA";
shapes = (
{
closed = 1;
nodes = (
(978,0,l),
(1008,0,l),
(1008,420,l),
(978,420,l)
);
},
{
attr = {
strokePos = "1";
};
closed = 1;
nodes = (
(646,230,l),
(646,320,o),
(716,390,o),
(806,390,c),
(994,390,l),
(994,420,l),
(806,420,l),
(700,420,o),
(616,336,o),
(616,230,c),
(616,0,l),
(646,0,l)
);
},
{
attr = {
strokePos = "0";
};
closed = 1;
nodes = (
(80,30,l),
(80,-93,o),
(147,-160,o),
(270,-160,c),
(456,-160,l),
(578,-160,o),
(646,-92,o),
(646,30,c),
(646,87,l),
(616,87,l),
(616,30,l),
(616,-75,o),
(561,-130,o),
(456,-130,c),
(270,-130,l),
(164,-130,o),
(110,-76,o),
(110,30,c),
(110,280,l),
(80,280,l)
);
}
);
width = 1088;
}
);
metricLeft = "alef-ar";
metricRight = "alef-ar";
unicode = 1609;
},
{
glyphname = "alefMaksura-ar.fina";
lastChange = "2025-04-25 13:10:31 +0000";
layers = (
{
layerId = m01;
shapes = (
{
ref = "alefMaksura-ar";
},
{
attr = {
strokePos = 1;
};
closed = 1;
nodes = (
(788,30,l),
(788,0,l),
(898,0,l),
(898,30,l)
);
}
);
width = 898;
},
{
layerId = "410C308F-557C-4D4B-8D78-DF4F3F2F205E";
shapes = (
{
ref = "alefMaksura-ar";
},
{
attr = {
strokePos = 1;
};
closed = 1;
nodes = (
(801,170,l),
(801,0,l),
(871,0,l),
(871,170,l)
);
}
);
width = 871;
},
{
layerId = "C375229C-5AB5-4F42-B4C5-B05E6279C8CD";
shapes = (
{
ref = "alefMaksura-ar";
},
{
attr = {
strokePos = 1;
};
closed = 1;
nodes = (
(1031,170,l),
(1031,0,l),
(1101,0,l),
(1101,170,l)
);
}
);
width = 1101;
},
{
layerId = "3EFBB2FF-E525-4F07-A4DB-42752D5683EA";
shapes = (
{
ref = "alefMaksura-ar";
},
{
attr = {
strokePos = 1;
};
closed = 1;
nodes = (
(1008,30,l),
(1008,0,l),
(1118,0,l),
(1118,30,l)
);
}
);
width = 1118;
}
);
metricLeft = "alef-ar";
metricRight = "kashida-ar";
},
